<svg xmlns="http://www.w3.org/2000/svg" xmlns:xlink="http://www.w3.org/1999/xlink" width="123" height="126" viewBox="0 0 123 126">
    <defs>
        <path id="iaw08x4bua" d="M3.25.768L2.036 5.151s-.168.412-.72.271C.68 5.258.187 4.285.187 4.285l.87-4.282L3.25.768"/>
        <path id="qs8g5zzdrd" d="M.165 6.016L.977.172l.117-.03L3.39.806s-.657.922-1.268 1.287C1.51 2.46.558 4.81 1.24 5.837c.682 1.028 2.183.655 2.183.655l-.073.603C1.995 7.678.55 6.67.3 6.535c-.25-.134-.135-.52-.135-.52"/>
        <path id="i3g9hrga4g" d="M.122 1.938c.447-.09 1.366-.332 1.654-.875.277-.52-.605-.744-.693-.761l.003-.004.068-.164.065-.001c.694 0 1.157.482.859.959-.325.517-1.199.771-1.956.846M1.934.558c-.02 0-.039.005-.055.013-.084.043-.029.2-.029.2.075.29-.228.558-.279.597-.135.102-.41.292-.347.292.018 0 .06-.014.139-.048.574-.251.748-.58.756-.8.005-.177-.1-.253-.185-.253"/>
        <path id="rckt13g9bj" d="M4.836 6.518c-.023-.006-.889-.414-1.94-.913C1.943 5.15.415 3.677.13 3.285.066 3.197.025 3.1.009 3.005c-.056-.33.185-.662.821-.67.13-.002.27-.01.412-.023C2 2.238 2.875 1.983 3.2 1.466c.298-.477-.165-.96-.859-.96-.024 0-.048 0-.073.002 0 0 1.526-.377 3.073-.377.225 0 .45.008.671.026 1.742.144 2.16.356 2.16.356L4.836 6.518"/>
        <path id="7it3q4tcvl" d="M.176 3.778c-.008-.183.349-.042.575.028.226.07 1.733.578 2.285.669.255.042.351.043.407-.056.044-.076.14-.379.235-.61.108-.263.672-1.046 1.573-1.972C6.15.911 6.875.355 7.017.255c.141-.1.28-.073.28-.073l1.34.439-.28.564-3.169 5.58s-1.033-.218-1.218-.268c-.185-.049-.239-.46-.275-.596-.035-.137-.153-.248-.28-.294-.127-.047-1.023-.349-1.839-.747-.815-.398-1.392-.898-1.4-1.082"/>
        <path id="8kddybiano" d="M3.525.21C3.16.523 2.745.9 2.24 1.425 1.346 2.356.807 3.011.639 3.373l-.096.203c-.2.426-.39.827-.384 1.082.007.293.261.873.386.962.023.018.06.025.087.018.337-.088.94-.718 1.58-1.385l.09-.094c.78-.813 1.313-1.443 1.442-1.63.068-.1.176-.29.131-.455-.021-.08-.069-.153-.124-.239-.085-.133-.19-.297-.218-.53-.032-.26.077-.67.2-1.101 0 0 .115-.269-.208.007"/>
        <path id="tsyyv72ror" d="M1.453.234c.361-.208.689-.23.926-.094L27.45 14.58l-3.725 2.15L.527 3.366c-.24-.137-.39-.432-.39-.854 0-.839.59-1.858 1.316-2.278"/>
        <path id="qgqptaq4wt" d="M1.362.306c.361-.209.688-.23.926-.095l25.068 14.44-3.724 2.151L.436 3.437c-.24-.136-.39-.432-.39-.854 0-.838.59-1.858 1.316-2.277"/>
        <path id="h0vbpk729v" d="M1.458.19c.361-.209.689-.23.926-.094l25.067 14.441-3.724 2.152L.533 3.322c-.241-.137-.39-.432-.39-.854C.142 1.629.731.609 1.457.19"/>
        <path id="u51gj1e57x" d="M1.367.261c.361-.209.689-.23.926-.094L27.36 14.61l-3.724 2.151L.44 3.393c-.24-.137-.39-.432-.39-.854 0-.838.59-1.858 1.316-2.278"/>
        <path id="m1j6cb0qrz" d="M1.463.333c.36-.21.689-.23.926-.094l25.065 14.445-3.725 2.15L.537 3.465c-.24-.136-.39-.432-.39-.853 0-.84.59-1.86 1.316-2.278"/>
        <path id="6wwyadh7nB" d="M1.372.217c.361-.209.688-.23.926-.094L27.362 14.57l-3.725 2.15L.447 3.35c-.241-.137-.39-.432-.39-.854 0-.839.588-1.859 1.315-2.278"/>
        <path id="qpxrtx8l4D" d="M1.467.288c.362-.208.69-.23.927-.094l25.063 14.449-3.725 2.15L.542 3.42c-.24-.137-.39-.432-.39-.854 0-.839.589-1.858 1.315-2.278"/>
        <path id="5beyg80koF" d="M1.377.36c.361-.21.688-.23.926-.095l25.062 14.451-3.725 2.15L.451 3.492c-.24-.136-.39-.432-.39-.854C.061 1.8.651.78 1.377.36"/>
        <path id="p0sqftpmlH" d="M1.472.244c.362-.209.69-.23.927-.094l25.06 14.452-3.724 2.151L.547 3.376c-.24-.137-.39-.433-.39-.854 0-.839.59-1.859 1.315-2.278"/>
        <path id="w7c722jquJ" d="M1.381.315c.362-.208.689-.23.927-.094l25.06 14.455-3.725 2.15L.456 3.447c-.24-.137-.39-.432-.39-.854 0-.839.59-1.859 1.315-2.278"/>
        <path id="f6zc446a4L" d="M1.477.2c.362-.21.689-.23.927-.095l25.058 14.457-3.725 2.15L.552 3.332c-.24-.137-.39-.433-.39-.855C.162 1.64.752.62 1.477.2"/>
        <path id="yqqkkfy5eN" d="M1.386.27c.362-.208.689-.229.927-.093L27.37 14.635l-3.725 2.15L.461 3.404C.22 3.266.07 2.97.07 2.548.07 1.71.66.69 1.386.271"/>
        <linearGradient id="8kyjx3youb" x1="50.611%" x2="59.254%" y1="52.283%" y2="55.9%">
            <stop offset="0%" stop-color="#799299"/>
            <stop offset="100%" stop-color="#586B6F"/>
        </linearGradient>
        <linearGradient id="qsmi8j75je" x1="56.869%" x2="60.38%" y1="50.104%" y2="50.155%">
            <stop offset="0%" stop-color="#414E52"/>
            <stop offset="100%" stop-color="#2D383A"/>
        </linearGradient>
        <linearGradient id="g51x4p42bh" x1="99.264%" x2="-26.925%" y1="34.417%" y2="63.337%">
            <stop offset="0%" stop-color="#5F787E"/>
            <stop offset="100%" stop-color="#50646B"/>
        </linearGradient>
        <linearGradient id="ii27mlvgwm" x1="43.656%" x2="41.292%" y1="50.062%" y2="54.491%">
            <stop offset="0%" stop-color="#414E52"/>
            <stop offset="100%" stop-color="#2D383A"/>
        </linearGradient>
        <linearGradient id="ur6xjl703p" x1="58.456%" x2="54.239%" y1="23.739%" y2="41.33%">
            <stop offset="0%" stop-color="#111618"/>
            <stop offset="100%" stop-color="#344145"/>
        </linearGradient>
    </defs>
    <g fill="none" fill-rule="evenodd">
        <g>
            <g>
                <path fill="#E7E7E7" d="M28.596 125.741L0.23 109.416 93.911 55.506 122.277 71.831 28.596 125.741" transform="translate(-917 -122) translate(917.066 122)"/>
                <path fill="#E6E6E6" d="M28.596 125.741L0.23 109.416 93.911 55.506 122.277 71.831 28.596 125.741" transform="translate(-917 -122) translate(917.066 122)"/>
                <path fill="#E62620" d="M30.084 15.912s3.13 2.673 5.273 4.156c2.144 1.483 5.975 4.876 8.682 5.975 2.706 1.099 15.564 5.013 15.564 5.013l-1.349 4.556s-13.599-3.187-16.157-3.454c-2.558-.267-5.893-2.343-5.893-2.343l-6.377-4.203s-3.522-7.875-3.485-8.878c.037-1.004.233-3.024 1.26-2.45 1.027.575 2.482 1.628 2.482 1.628" transform="translate(-917 -122) translate(917.066 122)"/>
                <path fill="#D88F69" d="M16.585 12.02c.2.28.414.565.648.86 2.365 2.975 5.542 4.008 7.155 3.836.181-.02.34-.052.483-.094.402 1.894.447 3.833-.756 4.545-4.338 2.57-9.622-3.562-9.622-3.562s1.924-2.109 2.292-3.235c.172-.523.016-1.477-.2-2.35" transform="translate(-917 -122) translate(917.066 122)"/>
                <path fill="#000" d="M27.11 90.735c1.394.808 2.337 2.274 5.13 3.688 1.622.82 5.544 1.474 5.392-.324-.01-.097-.029-.198-.057-.3.13.274.217.536.237.775.153 1.799-3.77 1.144-5.392.324-2.793-1.413-3.735-2.88-5.13-3.688-.173-.1-.38-.21-.603-.322v.436l-2.784-1.306s-.172-.465-.157-.998c.357.314 2.378 1.143 3.364 1.715" transform="translate(-917 -122) translate(917.066 122)"/>
                <path fill="#313131" d="M29.228 87.224c.694-.144.021-1.647 2.897 1.349.22.15.447.283.674.385 1.612.724 4.692 3.49 4.833 5.141.152 1.798-3.77 1.144-5.392.324-2.793-1.414-3.736-2.88-5.13-3.688-1.06-.614-3.318-1.528-3.418-1.777-.052-.13-.112-.365-.147-.658 3.167-2.875 4.302-.788 5.683-1.076M21.66 95.63c.123.217.235.402.325.516.536.691 4.404 5.63 2.183 6.778-2.221 1.148-5.954-.823-6.739-2.489-.784-1.666-.65-2.795-1.646-3.79-.589-.59-1.301-1.372-1.522-2.353.903-.938 1.952-.297 3.775-.032 1.037.15 1.792-.407 3.625 1.37" transform="translate(-917 -122) translate(917.066 122)"/>
                <path fill="#000" d="M14.257 94.289c.22.983.935 1.765 1.526 2.356.996.995.862 2.124 1.646 3.79.785 1.666 4.518 3.637 6.739 2.489.412-.213.614-.557.666-.98.068.649-.103 1.185-.666 1.477-2.221 1.15-5.954-.822-6.739-2.488-.764-1.623-.66-2.736-1.575-3.713l-.024.315s-1.06-.867-1.717-2.104l.058-1.205.086.063" transform="translate(-917 -122) translate(917.066 122)"/>
                <path fill="#001B45" d="M23.187 47.31l.255-4.51s6.138-1.093 8.798-4.444c0 0 1.614 14.903.629 21.408-.986 6.504-1.789 14.696-2.089 17.554-.3 2.858-.017 8.564 1.345 11.255 0 0-5.031 2.734-8.58-.018l-.373-15.424.015-25.821" transform="translate(-917 -122) translate(917.066 122)"/>
                <path fill="#05345E" d="M26.876 41.822s-.33 6.601-.936 8.84c-.497 1.832-1.467 3.821-1.527 4.28-.588 4.45-1.027 9.457-1.241 11.319-.42 3.662-1.78 10.78-2.16 13.265-.379 2.484.649 16.104.649 16.104s-3.554 1.282-8.142-1.707c0 0-.758-13.555-.295-17.176.464-3.62 1.027-4.528 1.256-7.05.219-2.399-1.761-9.789-1.72-15.936.043-6.145 2.322-14.557 2.322-14.557s1.206 4.12 11.794 2.618" transform="translate(-917 -122) translate(917.066 122)"/>
                <path fill="#FF3F39" d="M11.38 26.802c-.378-1.874-2.288-3.094-1.884-4.005.788-1.773 1.187-2.171 3.052-3.616.927-.718 3.676-3.76 3.676-3.76s4.575 3.514 7.093 2.941.513-4.115.513-4.115h3.6c1.056 1.242 3.163 6.363 3.534 9.863.369 3.5-.708 5.653-.708 5.653s2.385 9.17 2.452 10.178c.068 1.01.396 5.542.396 5.542s-2.276 3.393-7.29 5.277c-7.829 2.943-13.054-.458-13.054-.458s-.129-1.822.342-3.976c.47-2.154.57-6.044.436-7.525-.135-1.48-1.318-7.827-2.158-12" transform="translate(-917 -122) translate(917.066 122)"/>
                <path fill="#E62620" d="M13.102 46.326c.47-2.154.57-6.044.436-7.525-.128-1.415-1.216-7.283-2.047-11.442l3.307-.397s2.125 5.658 2.338 7.93c.212 2.272 5.98 6.964 9.74 6.512 1.412-.17 3.792.937 3.792.937s.942.848 1.777 3.961c-.999 1.124-3.157 3.153-6.63 4.458-7.83 2.943-13.055-.458-13.055-.458s-.129-1.822.342-3.976" transform="translate(-917 -122) translate(917.066 122)"/>
                <path fill="#FFF" d="M18.9 29.815L23.835 27.309 22.689 24.11 17.755 26.616 18.9 29.815" transform="translate(-917 -122) translate(917.066 122)"/>
                <path fill="#8F9CA0" d="M22.117 27.46L23.281 26.869 22.569 24.884 21.406 25.474 22.117 27.46" transform="translate(-917 -122) translate(917.066 122)"/>
                <path fill="#758286" d="M19.284 26.808L21.117 25.877 21.04 25.66 19.206 26.591 19.284 26.808M19.551 27.349L21.322 26.45 21.249 26.246 19.478 27.145 19.551 27.349M19.041 28.843L20.282 28.212 20.209 28.008 18.967 28.639 19.041 28.843" transform="translate(-917 -122) translate(917.066 122)"/>
                <path fill="#414E52" d="M19.623 24.826L20.311 24.477 20.636 25.384 19.948 25.733 19.623 24.826" transform="translate(-917 -122) translate(917.066 122)"/>
                <path fill="#F2A983" d="M14.556 5.271c.297-2.458 2.677-3.976 4.76-4.321 2.082-.344 5.33.971 6.472 3.006.322.574.839 2.145 1.027 2.96.187.813.172.83.078 1.314-.094.486-.188.83-.032 1.3.158.47.189 1.925-.046 2.896-.235.97-.548 1.362-.658 2.176-.11.815-.156 1.942-1.769 2.114-1.613.172-4.79-.861-7.155-3.836l-.027-.034c-.536-.233-1.305-.944-1.644-1.567-.264-.48-.292-.907-.176-1.228-.825-1.675-1.025-3.168-.83-4.78" transform="translate(-917 -122) translate(917.066 122)"/>
                <path fill="#995F35" d="M15.944 1.9C18.038-.115 20.276-.048 22.721.894c2.444.943 3.106 2.623 3.186 3.214.08.592.254.704.254.704-.077.601-.3 1.405-1.029 1.545-1.166.223-4.217-.72-4.984.67-.767 1.39-1.183 1.55-1.247 2.238-.064.687-.144 1.182-.52 1.142-.375-.04-1.447-.686-1.663-.803h-.001c-.142-.103-.312-.173-.516-.164-.382.018-.7.257-.824.634-.236-.426-.407-.777-.546-1.26-.045-.157-.113-.26-.122-.28-.815-1.645-.858-4.622 1.235-6.636" transform="translate(-917 -122) translate(917.066 122)"/>
                <path fill="#D88F69" d="M25.542 15.066c.41-1.246.15-1.358.15-1.534 0-.176 0-.32.746-.495.745-.176-.234-1.694-.522-2.253-.287-.56-.431-.527-.352-1.247.055-.49.857-1.123 1.362-1.477l-.033.17c-.094.486-.188.83-.032 1.3.158.47.189 1.925-.046 2.896-.235.97-.548 1.362-.658 2.176-.091.682-.143 1.581-1.104 1.957l.49-1.493" transform="translate(-917 -122) translate(917.066 122)"/>
                <path fill="#D88F69" d="M23.267 1.736c1.068.538 2.007 1.305 2.521 2.22.322.574.839 2.145 1.027 2.96.187.813.172.83.078 1.314-.094.486-.188.83-.032 1.3.04.121.073.31.095.539-2.369.296-7.075.48-8.996-2.334-1.887-2.764 2.638-4.98 5.307-6" transform="translate(-917 -122) translate(917.066 122)"/>
                <path fill="#FF3F39" d="M14.83 9.154s1.988-.84 3.264-1.486c4.242-2.144 8.42-2.397 8.42-2.397s-1.163-3.157-2.295-4.252c-.737-.712-4.214-1.769-6.84-.124-3.19 2-3.505 3.013-3.501 4.586.002.98.31 2.179.953 3.673" transform="translate(-917 -122) translate(917.066 122)"/>
                <path fill="#FF5953" d="M18.094 7.668c4.242-2.144 8.42-2.397 8.42-2.397s-.015-.044-.042-.111l3.102 1.534s2.001 1.32-2.017 2.405c-4.567 1.233-8.735-.884-9.597-1.364l.134-.067" transform="translate(-917 -122) translate(917.066 122)"/>
                <path fill="#2E383B" d="M36.708 42.427s1.088.736.996.894c-.093.158-.925.415-.925.415l-1.078-.408.141-.759.866-.142" transform="translate(-917 -122) translate(917.066 122)"/>
                <g transform="translate(-917 -122) translate(917.066 122) translate(34.654 37.764)">
                    <mask id="2zhrnqfq4c" fill="#fff">
                        <use xlink:href="#iaw08x4bua"/>
                    </mask>
                    <path fill="url(#8kyjx3youb)" d="M3.25.768L2.036 5.151s-.168.412-.72.271C.68 5.258.187 4.285.187 4.285l.87-4.282L3.25.768" mask="url(#2zhrnqfq4c)"/>
                </g>
                <g transform="translate(-917 -122) translate(917.066 122) translate(34.28 36.83)">
                    <mask id="0h6jbfm0ef" fill="#fff">
                        <use xlink:href="#qs8g5zzdrd"/>
                    </mask>
                    <path fill="url(#qsmi8j75je)" d="M.165 6.016L.977.172l.117-.03L3.39.806s-.657.922-1.268 1.287C1.51 2.46.558 4.81 1.24 5.837c.682 1.028 2.183.655 2.183.655l-.073.603C1.995 7.678.55 6.67.3 6.535c-.25-.134-.135-.52-.135-.52" mask="url(#0h6jbfm0ef)"/>
                </g>
                <path fill="#2E383B" d="M36.403 38.923c.611-.366 1.268-1.287 1.268-1.287l-2.297-.665.056-.015 2.298.665s-.656.922-1.268 1.287c-.612.366-1.565 2.716-.883 3.744.481.724 1.37.752 1.851.706l.276-.037s-1.501.373-2.183-.655c-.683-1.027.27-3.378.882-3.743" transform="translate(-917 -122) translate(917.066 122)"/>
                <g transform="translate(-917 -122) translate(917.066 122) translate(35.589 33.652)">
                    <mask id="jdn9grqtci" fill="#fff">
                        <use xlink:href="#i3g9hrga4g"/>
                    </mask>
                    <path fill="url(#g51x4p42bh)" d="M.122 1.938c.447-.09 1.366-.332 1.654-.875.277-.52-.605-.744-.693-.761l.003-.004.068-.164.065-.001c.694 0 1.157.482.859.959-.325.517-1.199.771-1.956.846M1.934.558c-.02 0-.039.005-.055.013-.084.043-.029.2-.029.2.075.29-.228.558-.279.597-.135.102-.41.292-.347.292.018 0 .06-.014.139-.048.574-.251.748-.58.756-.8.005-.177-.1-.253-.185-.253" mask="url(#jdn9grqtci)"/>
                </g>
                <path fill="#414E52" d="M36.664 33.952c.013-.001.99.22.7.763-.288.543-1.208.786-1.655.875-.447.089-.756.73-.756.73l-.39.14s-.352-.67-.374-1.017c-.023-.348.507-1.272 2.475-1.49" transform="translate(-917 -122) translate(917.066 122)"/>
                <g transform="translate(-917 -122) translate(917.066 122) translate(34.467 33.278)">
                    <mask id="kuq6xnheck" fill="#fff">
                        <use xlink:href="#rckt13g9bj"/>
                    </mask>
                    <path d="M4.836 6.518c-.023-.006-.889-.414-1.94-.913C1.943 5.15.415 3.677.13 3.285.066 3.197.025 3.1.009 3.005c-.056-.33.185-.662.821-.67.13-.002.27-.01.412-.023C2 2.238 2.875 1.983 3.2 1.466c.298-.477-.165-.96-.859-.96-.024 0-.048 0-.073.002 0 0 1.526-.377 3.073-.377.225 0 .45.008.671.026 1.742.144 2.16.356 2.16.356L4.836 6.518" mask="url(#kuq6xnheck)"/>
                </g>
                <g transform="translate(-917 -122) translate(917.066 122) translate(35.402 33.465)">
                    <mask id="9jcsomi3bn" fill="#fff">
                        <use xlink:href="#7it3q4tcvl"/>
                    </mask>
                    <path fill="url(#ii27mlvgwm)" d="M.176 3.778c-.008-.183.349-.042.575.028.226.07 1.733.578 2.285.669.255.042.351.043.407-.056.044-.076.14-.379.235-.61.108-.263.672-1.046 1.573-1.972C6.15.911 6.875.355 7.017.255c.141-.1.28-.073.28-.073l1.34.439-.28.564-3.169 5.58s-1.033-.218-1.218-.268c-.185-.049-.239-.46-.275-.596-.035-.137-.153-.248-.28-.294-.127-.047-1.023-.349-1.839-.747-.815-.398-1.392-.898-1.4-1.082" mask="url(#9jcsomi3bn)"/>
                </g>
                <path fill="#4F5F63" d="M38.845 37.884c-.056.099-.152.098-.407.056-.552-.091-2.06-.6-2.286-.67-.224-.068-.576-.208-.574-.031-.012-.023-.019-.043-.02-.061-.007-.184.402-.079.628-.01.226.07 1.733.579 2.285.67.256.042.351.043.408-.055l.02-.025c-.022.058-.04.103-.054.126" transform="translate(-917 -122) translate(917.066 122)"/>
                <path fill="#2E383B" d="M44.056 34.412s.082-.287-.003-.313c-.084-.026-.18.043-.573.364-.394.32-.807.714-1.302 1.23-.494.514-1.392 1.475-1.637 2-.244.524-.506 1.025-.497 1.369.01.343.324 1.118.546 1.167.385.084 1.098-.678 1.924-1.539.826-.86 1.336-1.471 1.461-1.654.126-.183.214-.408.158-.612-.069-.253-.297-.413-.337-.743-.04-.33.226-1.091.26-1.27" transform="translate(-917 -122) translate(917.066 122)"/>
                <g transform="translate(-917 -122) translate(917.066 122) translate(40.075 34.4)">
                    <mask id="ccoxcw95rq" fill="#fff">
                        <use xlink:href="#8kddybiano"/>
                    </mask>
                    <path fill="url(#ur6xjl703p)" d="M3.525.21C3.16.523 2.745.9 2.24 1.425 1.346 2.356.807 3.011.639 3.373l-.096.203c-.2.426-.39.827-.384 1.082.007.293.261.873.386.962.023.018.06.025.087.018.337-.088.94-.718 1.58-1.385l.09-.094c.78-.813 1.313-1.443 1.442-1.63.068-.1.176-.29.131-.455-.021-.08-.069-.153-.124-.239-.085-.133-.19-.297-.218-.53-.032-.26.077-.67.2-1.101 0 0 .115-.269-.208.007" mask="url(#ccoxcw95rq)"/>
                </g>
                <path fill="#2E383B" d="M39.473 35.234c.15-.135.209-.277.21-.392 0-.033.006-.088-.029-.103-.04-.017-.1-.003-.129.025-.032.03-.01.066-.01.095.002.092-.036.198-.154.316-.113.112-.272.197-.415.247-.054.02-.115.028-.143.054-.033.03-.025.068.026.074.048.005.124-.023.17-.04.16-.056.338-.152.474-.276" transform="translate(-917 -122) translate(917.066 122)"/>
                <path fill="#2E383B" d="M39.231 35.183c.122-.106.17-.215.17-.3 0-.029-.001-.071-.037-.083-.044-.015-.101.003-.127.034-.028.036-.003.063-.005.094-.005.057-.037.13-.13.213-.078.068-.171.108-.262.137-.045.014-.08.02-.107.053-.018.023-.014.048.026.059.044.012.11-.013.158-.03.106-.037.217-.094.314-.177" transform="translate(-917 -122) translate(917.066 122)"/>
                <path fill="#2E383B" d="M39.023 35.101c.076-.066.101-.137.093-.188-.003-.019-.01-.038-.027-.046-.044-.022-.112 0-.14.035-.019.023 0 .05-.003.072-.007.049-.07.11-.144.14-.05.02-.095.018-.127.058-.024.03-.008.057.04.063.046.005.114-.02.158-.039.06-.025.106-.057.15-.095" transform="translate(-917 -122) translate(917.066 122)"/>
                <path fill="#0F53B9" d="M37.439 34.423s-.055-.158.029-.2c.084-.042.247.021.24.24-.008.22-.183.55-.757.8-.363.16.036-.113.209-.244.05-.038.354-.306.279-.596" transform="translate(-917 -122) translate(917.066 122)"/>
                <path fill="#0963EB" d="M36.887 35.308c.074-.046.185-.109.262-.153l.13-.074c.005-.003.507-.309.39-.659-.017-.037-.048-.147.02-.173l.022-.006c.011-.003.023-.004.035-.004.04 0 .08.012.115.033.065.04.1.112.095.202-.004.112-.09.504-.998.811-.026.01-.05.017-.07.023m.858-1.04c-.009 0-.017.002-.025.003l-.015.004c-.032.013-.023.09-.001.137.124.371-.398.69-.403.693l-.075.043c.62-.276.687-.58.691-.675.004-.08-.026-.143-.081-.178-.027-.017-.06-.026-.091-.026" transform="translate(-917 -122) translate(917.066 122)"/>
                <path fill="#0576FA" d="M37.139 35.106l.055-.041c.004-.003.39-.307.298-.66-.015-.046-.023-.119.002-.131l.01-.004c.006-.002.012-.003.019-.003.022 0 .047.01.067.026.041.033.063.093.06.17-.003.09-.052.38-.511.643" transform="translate(-917 -122) translate(917.066 122)"/>
                <path fill="#000609" d="M40.714 37.772c.168-.361.707-1.017 1.601-1.948.505-.525.92-.902 1.285-1.214.194-.165.23-.135.228-.084-.768.7-1.159 1.414-1.159 1.414l-.125.592s-1.271.858-1.846 1.274l.016-.034" transform="translate(-917 -122) translate(917.066 122)"/>
                <path fill="#430000" d="M40.234 39.057c-.007-.254.183-.656.384-1.081l.096-.204c.03-.066.075-.144.131-.23l1.793-1.871c.131-.129.276-.09.323.089l.029.112c.046.178-.023.43-.155.559l-2.59 2.731c-.006-.037-.01-.073-.01-.105" transform="translate(-917 -122) translate(917.066 122)"/>
                <path fill="#F2A983" d="M29.787 40.115c.483-.052 2.642-.513 3.371-1.302.438-.474 2.055-1.489 2.055-1.489l-.226 1.613s.117.451.371.53c.255.08 1.312.273 1.689.306.376.033.553-.144.553-.144l.155-.56s.661.587.777.762c.116.174.073.888.02 1.19-.054.302-.31.815-.504 1.187-.196.372-.136.76-.55 1.04-.414.278-1.574.472-2.051.66-.477.188-2.785-.322-3.686-.584-.9-.262-2.114-.546-2.114-.546l.14-2.663" transform="translate(-917 -122) translate(917.066 122)"/>
                <path fill="#D88F69" d="M38.048 42.208c.195-.372.45-.885.504-1.187.053-.302.096-1.016-.02-1.19-.116-.175-.777-.762-.777-.762l-.155.56s-.104.102-.32.137c-.084.098-.219.193-.43.217-.475.053.469.368.577.907.109.54-.14.646-.24.966-.102.32.069.276-.153.824-.19.469-1.722.844-2.277 1.249.315.029.565.028.69-.02.477-.189 1.637-.383 2.051-.661.414-.28.354-.668.55-1.04" transform="translate(-917 -122) translate(917.066 122)"/>
                <path fill="#FF5953" d="M30.668 39.844v4.254s-14.81 2.911-18.927-.34c0 0-1.456-2.386-1.618-3.572-.338-2.466-.367-6.543-.665-8.264-.441-2.55-1.299-6.256-.602-8.233.905-2.572 3.608-3.388 5.7-.273 2.595 3.864 1.73 12.3 1.338 15.486 0 0 10.62.508 14.774.942" transform="translate(-917 -122) translate(917.066 122)"/>
                <path fill="#C1C8CC" d="M28.185 91.282L30.526 92.634 30.526 123.742 28.185 122.391 28.185 91.282" transform="translate(-917 -122) translate(917.066 122)"/>
                <path fill="#949597" d="M30.526 123.742L30.526 92.634 32.867 91.283 32.867 122.391 30.526 123.742" transform="translate(-917 -122) translate(917.066 122)"/>
                <path fill="#C1C8CC" d="M3.466 76.863L5.806 78.215 5.806 109.322 3.466 107.971 3.466 76.863" transform="translate(-917 -122) translate(917.066 122)"/>
                <path fill="#949597" d="M5.806 109.322L5.806 78.215 8.147 76.864 8.147 107.971 5.806 109.322" transform="translate(-917 -122) translate(917.066 122)"/>
                <path fill="#C1C8CC" d="M112.03 42.819L114.37 44.171 114.37 75.278 112.03 73.927 112.03 42.819" transform="translate(-917 -122) translate(917.066 122)"/>
                <path fill="#949597" d="M114.37 75.278L114.37 44.171 116.711 42.819 116.711 73.928 114.37 75.278" transform="translate(-917 -122) translate(917.066 122)"/>
                <path fill="#C1C8CC" d="M72.913 65.955L75.253 67.307 75.253 98.415 72.913 97.063 72.913 65.955" transform="translate(-917 -122) translate(917.066 122)"/>
                <path fill="#949597" d="M75.253 98.415L75.253 67.307 77.594 65.956 77.594 97.064 75.253 98.415" transform="translate(-917 -122) translate(917.066 122)"/>
                <path fill="#F6C100" d="M30.718 95.292L30.718 89.781 3.466 74.047 3.466 79.558 30.718 95.292" transform="translate(-917 -122) translate(917.066 122)"/>
                <path fill="#DF9400" d="M30.718 95.292L116.711 45.644 116.711 40.133 30.718 89.781 30.718 95.292" transform="translate(-917 -122) translate(917.066 122)"/>
                <path fill="#414E52" d="M114.969 40.133L89.458 25.403 5.207 74.047 30.718 88.777 114.969 40.133" transform="translate(-917 -122) translate(917.066 122)"/>
                <g transform="translate(-917 -122) translate(917.066 122) translate(8.484 71.599)">
                    <mask id="qt5snd0sfs" fill="#fff">
                        <use xlink:href="#tsyyv72ror"/>
                    </mask>
                    <path d="M1.453.234c.361-.208.689-.23.926-.094L27.45 14.58l-3.725 2.15L.527 3.366c-.24-.137-.39-.432-.39-.854 0-.839.59-1.858 1.316-2.278" mask="url(#qt5snd0sfs)"/>
                </g>
                <g transform="translate(-917 -122) translate(917.066 122) translate(15.587 67.486)">
                    <mask id="j4kxml3d9u" fill="#fff">
                        <use xlink:href="#qgqptaq4wt"/>
                    </mask>
                    <path d="M1.362.306c.361-.209.688-.23.926-.095l25.068 14.44-3.724 2.151L.436 3.437c-.24-.136-.39-.432-.39-.854 0-.838.59-1.858 1.316-2.277" mask="url(#j4kxml3d9u)"/>
                </g>
                <g transform="translate(-917 -122) translate(917.066 122) translate(22.503 63.56)">
                    <mask id="ud16qx26gw" fill="#fff">
                        <use xlink:href="#h0vbpk729v"/>
                    </mask>
                    <path d="M1.458.19c.361-.209.689-.23.926-.094l25.067 14.441-3.724 2.152L.533 3.322c-.241-.137-.39-.432-.39-.854C.142 1.629.731.609 1.457.19" mask="url(#ud16qx26gw)"/>
                </g>
                <g transform="translate(-917 -122) translate(917.066 122) translate(29.607 59.448)">
                    <mask id="crn75a5zhy" fill="#fff">
                        <use xlink:href="#u51gj1e57x"/>
                    </mask>
                    <path d="M1.367.261c.361-.209.689-.23.926-.094L27.36 14.61l-3.724 2.151L.44 3.393c-.24-.137-.39-.432-.39-.854 0-.838.59-1.858 1.316-2.278" mask="url(#crn75a5zhy)"/>
                </g>
                <g transform="translate(-917 -122) translate(917.066 122) translate(36.523 55.336)">
                    <mask id="lh6zh1z8bA" fill="#fff">
                        <use xlink:href="#m1j6cb0qrz"/>
                    </mask>
                    <path d="M1.463.333c.36-.21.689-.23.926-.094l25.065 14.445-3.725 2.15L.537 3.465c-.24-.136-.39-.432-.39-.853 0-.84.59-1.86 1.316-2.278" mask="url(#lh6zh1z8bA)"/>
                </g>
                <g transform="translate(-917 -122) translate(917.066 122) translate(43.627 51.41)">
                    <mask id="8ueljgqviC" fill="#fff">
                        <use xlink:href="#6wwyadh7nB"/>
                    </mask>
                    <path d="M1.372.217c.361-.209.688-.23.926-.094L27.362 14.57l-3.725 2.15L.447 3.35c-.241-.137-.39-.432-.39-.854 0-.839.588-1.859 1.315-2.278" mask="url(#8ueljgqviC)"/>
                </g>
                <g transform="translate(-917 -122) translate(917.066 122) translate(50.543 47.298)">
                    <mask id="vh5b87wt1E" fill="#fff">
                        <use xlink:href="#qpxrtx8l4D"/>
                    </mask>
                    <path d="M1.467.288c.362-.208.69-.23.927-.094l25.063 14.449-3.725 2.15L.542 3.42c-.24-.137-.39-.432-.39-.854 0-.839.589-1.858 1.315-2.278" mask="url(#vh5b87wt1E)"/>
                </g>
                <g transform="translate(-917 -122) translate(917.066 122) translate(57.647 43.185)">
                    <mask id="0abuoxa0nG" fill="#fff">
                        <use xlink:href="#5beyg80koF"/>
                    </mask>
                    <path d="M1.377.36c.361-.21.688-.23.926-.095l25.062 14.451-3.725 2.15L.451 3.492c-.24-.136-.39-.432-.39-.854C.061 1.8.651.78 1.377.36" mask="url(#0abuoxa0nG)"/>
                </g>
                <g transform="translate(-917 -122) translate(917.066 122) translate(64.563 39.26)">
                    <mask id="aru0i9anzI" fill="#fff">
                        <use xlink:href="#p0sqftpmlH"/>
                    </mask>
                    <path d="M1.472.244c.362-.209.69-.23.927-.094l25.06 14.452-3.724 2.151L.547 3.376c-.24-.137-.39-.433-.39-.854 0-.839.59-1.859 1.315-2.278" mask="url(#aru0i9anzI)"/>
                </g>
                <g transform="translate(-917 -122) translate(917.066 122) translate(71.666 35.147)">
                    <mask id="en0gatcvbK" fill="#fff">
                        <use xlink:href="#w7c722jquJ"/>
                    </mask>
                    <path d="M1.381.315c.362-.208.689-.23.927-.094l25.06 14.455-3.725 2.15L.456 3.447c-.24-.137-.39-.432-.39-.854 0-.839.59-1.859 1.315-2.278" mask="url(#en0gatcvbK)"/>
                </g>
                <g transform="translate(-917 -122) translate(917.066 122) translate(78.583 31.222)">
                    <mask id="8xb5ii8sdM" fill="#fff">
                        <use xlink:href="#f6zc446a4L"/>
                    </mask>
                    <path d="M1.477.2c.362-.21.689-.23.927-.095l25.058 14.457-3.725 2.15L.552 3.332c-.24-.137-.39-.433-.39-.855C.162 1.64.752.62 1.477.2" mask="url(#8xb5ii8sdM)"/>
                </g>
                <g transform="translate(-917 -122) translate(917.066 122) translate(85.686 27.11)">
                    <mask id="4mp2g2mh4O" fill="#fff">
                        <use xlink:href="#yqqkkfy5eN"/>
                    </mask>
                    <path d="M1.386.27c.362-.208.689-.229.927-.093L27.37 14.635l-3.725 2.15L.461 3.404C.22 3.266.07 2.97.07 2.548.07 1.71.66.69 1.386.271" mask="url(#4mp2g2mh4O)"/>
                </g>
                <path fill="#FFD400" d="M30.718 88.777l-25.51-14.73 84.25-48.644 25.511 14.73-84.25 48.644zM3.466 74.047L30.718 89.78l85.993-49.648-27.253-15.735L3.466 74.047z" transform="translate(-917 -122) translate(917.066 122)"/>
                <path fill="#C1C8CC" d="M109.147 42.328L89.512 31.231 89.512 12.944 109.147 24.208 109.147 42.328" transform="translate(-917 -122) translate(917.066 122)"/>
                <path fill="#A8AFB3" d="M69.876 42.328L69.878 24.208 89.512 12.944 89.512 31.231 69.876 42.328" transform="translate(-917 -122) translate(917.066 122)"/>
                <path fill="#DAE1E5" d="M89.512 53.664L69.876 42.328 89.512 31.231 109.147 42.328 89.512 53.664" transform="translate(-917 -122) translate(917.066 122)"/>
                <path fill="#B39372" d="M69.878 24.208L89.512 35.546 89.512 53.664 69.876 42.328 69.878 24.208" transform="translate(-917 -122) translate(917.066 122)"/>
                <path fill="#CCAC88" d="M109.147 24.208L109.147 42.328 89.512 53.664 89.512 35.546 109.147 24.208" transform="translate(-917 -122) translate(917.066 122)"/>
                <path fill="#D9B995" d="M89.512 35.411L69.935 24.109 89.512 12.806 109.089 24.109 89.512 35.411" transform="translate(-917 -122) translate(917.066 122)"/>
                <path fill="#C0A07F" d="M69.935 24.109L89.512 35.411 89.512 35.546 69.878 24.208 69.935 24.109" transform="translate(-917 -122) translate(917.066 122)"/>
                <path fill="#E6C6A2" d="M109.089 24.109L109.147 24.208 89.512 35.546 89.512 35.411 109.089 24.109" transform="translate(-917 -122) translate(917.066 122)"/>
                <path fill="#E6CFB5" d="M80.834 30.467L100.469 19.132 98.726 18.125 79.091 29.461 80.834 30.467M80.832 33.737L80.834 30.468 79.091 29.462 79.091 32.732 80.832 33.737" transform="translate(-917 -122) translate(917.066 122)"/>
                <path fill="#000" d="M91.879 48.18l-.002-.092.087-.049v.092c.343-.182.643-.14.815.078-.032-.014-.076-.009-.122.019-.09.05-.162.16-.183.266-.024-.08-.097-.105-.186-.054-.086.05-.16.162-.184.267-.022-.08-.095-.105-.184-.055-.087.05-.16.162-.184.268-.02-.08-.095-.105-.183-.055-.089.05-.162.161-.183.268-.025-.081-.1-.106-.185-.056-.046.027-.09.072-.122.123.171-.415.47-.804.816-1.02" transform="translate(-917 -122) translate(917.066 122)"/>
                <path fill="#000" d="M91.964 50.523L91.877 50.571 91.879 48.777 91.964 48.73 91.964 50.523M92.167 50.725c.113-.065.205-.223.205-.355l.085-.048c0 .184-.13.41-.288.503-.16.09-.29.016-.29-.17l.085-.048c0 .13.09.183.203.118M95.429 46.039v.99c0 .391-.275.865-.612 1.06-.338.196-.613.037-.613-.353v-.99l1.225-.707M94.739 49.144L94.739 48.261 94.88 48.178 94.88 49.062 95.017 48.984 95.429 48.858 95.429 48.941 94.204 49.648 94.204 49.565 94.613 49.217 94.739 49.144M98.555 46.886L98.555 47.148 96.733 48.199 96.733 47.937 98.555 46.886M97.334 47.48L97.095 47.617 97.095 45.814 96.951 45.898 97.215 45.008 97.485 45.59 97.334 45.675 97.334 47.48M98.162 47.001L97.925 47.139 97.925 45.335 97.778 45.42 98.043 44.53 98.312 45.111 98.162 45.197 98.162 47.001" transform="translate(-917 -122) translate(917.066 122)"/>
                <path fill="#000" d="M93.07 47.124l-2.3 1.328v3.314l2.3-1.328v-3.314zm-2.364 1.274l2.428-1.401v3.494l-2.428 1.402v-3.495zM95.966 45.453l-2.298 1.327v3.313l2.298-1.326v-3.314zm-2.363 1.273l2.429-1.4v3.494l-2.429 1.402v-3.496zM98.792 43.821l-2.298 1.327v3.314l2.298-1.327V43.82zm-2.363 1.274l2.43-1.403v3.497l-2.43 1.4v-3.494z" transform="translate(-917 -122) translate(917.066 122)"/>
                <path fill="#C1C8CC" d="M79.694 57.823L60.059 46.726 60.059 28.439 79.694 39.703 79.694 57.823" transform="translate(-917 -122) translate(917.066 122)"/>
                <path fill="#A8AFB3" d="M40.423 57.823L40.425 39.703 60.059 28.439 60.059 46.726 40.423 57.823" transform="translate(-917 -122) translate(917.066 122)"/>
                <path fill="#DAE1E5" d="M60.059 69.158L40.423 57.823 60.059 46.726 79.694 57.823 60.059 69.158" transform="translate(-917 -122) translate(917.066 122)"/>
                <path fill="#B39372" d="M40.425 39.703L60.059 51.04 60.059 69.158 40.423 57.823 40.425 39.703" transform="translate(-917 -122) translate(917.066 122)"/>
                <path fill="#CCAC88" d="M79.694 39.703L79.694 57.823 60.059 69.158 60.059 51.04 79.694 39.703" transform="translate(-917 -122) translate(917.066 122)"/>
                <path fill="#D9B995" d="M60.059 50.906L40.483 39.603 60.059 28.301 79.636 39.603 60.059 50.906" transform="translate(-917 -122) translate(917.066 122)"/>
                <path fill="#C0A07F" d="M40.483 39.603L60.059 50.906 60.059 51.04 40.425 39.703 40.483 39.603" transform="translate(-917 -122) translate(917.066 122)"/>
                <path fill="#E6C6A2" d="M79.636 39.603L79.694 39.703 60.059 51.04 60.059 50.906 79.636 39.603" transform="translate(-917 -122) translate(917.066 122)"/>
                <path fill="#E6CFB5" d="M51.38 45.962L71.016 34.626 69.273 33.619 49.638 44.956 51.38 45.962M51.379 49.232L51.38 45.963 49.638 44.957 49.638 48.227 51.379 49.232" transform="translate(-917 -122) translate(917.066 122)"/>
                <path fill="#000" d="M62.426 63.675l-.002-.092.087-.05v.093c.343-.182.642-.14.815.078-.032-.015-.076-.01-.122.019-.09.05-.162.16-.183.266-.024-.08-.098-.105-.186-.055-.086.052-.16.162-.184.268-.022-.08-.095-.105-.184-.055-.087.05-.16.162-.184.268-.02-.08-.095-.105-.184-.056-.088.051-.162.162-.182.268-.025-.08-.1-.105-.185-.055-.047.027-.09.072-.122.123.171-.416.47-.804.816-1.02" transform="translate(-917 -122) translate(917.066 122)"/>
                <path fill="#000" d="M62.511 66.018L62.424 66.066 62.426 64.272 62.511 64.224 62.511 66.018M62.714 66.22c.113-.066.205-.223.205-.355l.085-.048c0 .184-.13.409-.289.503-.16.09-.29.016-.29-.17l.086-.049c0 .13.09.184.203.119M65.976 61.533v.991c0 .39-.276.865-.612 1.06-.338.196-.613.037-.613-.353v-.99l1.225-.708M65.286 64.639L65.286 63.756 65.427 63.673 65.427 64.557 65.564 64.478 65.976 64.353 65.976 64.436 64.751 65.143 64.751 65.06 65.16 64.712 65.286 64.639M69.102 62.381L69.102 62.643 67.28 63.693 67.28 63.432 69.102 62.381M67.881 62.975L67.642 63.112 67.642 61.309 67.497 61.393 67.762 60.503 68.032 61.084 67.881 61.17 67.881 62.975M68.709 62.496L68.472 62.634 68.472 60.83 68.325 60.915 68.591 60.024 68.859 60.606 68.709 60.692 68.709 62.496" transform="translate(-917 -122) translate(917.066 122)"/>
                <path fill="#000" d="M63.617 62.619l-2.3 1.328v3.314l2.3-1.328v-3.314zm-2.364 1.274l2.427-1.401v3.494l-2.427 1.402v-3.495zM66.513 60.948l-2.298 1.327v3.313l2.298-1.326v-3.314zM64.15 62.22l2.429-1.401v3.495l-2.43 1.402V62.22zM69.339 59.316l-2.298 1.327v3.314l2.298-1.327v-3.314zm-2.363 1.274l2.43-1.403v3.497l-2.43 1.4V60.59z" transform="translate(-917 -122) translate(917.066 122)"/>
                <path fill="#C1C8CC" d="M120.104 106.385L100.469 95.289 100.469 77.002 120.104 88.266 120.104 106.385" transform="translate(-917 -122) translate(917.066 122)"/>
                <path fill="#A8AFB3" d="M80.833 106.385L80.835 88.266 100.469 77.002 100.469 95.289 80.833 106.385" transform="translate(-917 -122) translate(917.066 122)"/>
                <path fill="#DAE1E5" d="M100.469 117.721L80.833 106.385 100.469 95.289 120.104 106.385 100.469 117.721" transform="translate(-917 -122) translate(917.066 122)"/>
                <path fill="#B39372" d="M80.835 88.266L100.469 99.603 100.469 117.721 80.833 106.385 80.835 88.266" transform="translate(-917 -122) translate(917.066 122)"/>
                <path fill="#CCAC88" d="M120.104 88.266L120.104 106.385 100.469 117.721 100.469 99.603 120.104 88.266" transform="translate(-917 -122) translate(917.066 122)"/>
                <path fill="#D9B995" d="M100.469 99.469L80.892 88.166 100.469 76.864 120.046 88.166 100.469 99.469" transform="translate(-917 -122) translate(917.066 122)"/>
                <path fill="#C0A07F" d="M80.892 88.166L100.469 99.469 100.469 99.603 80.835 88.266 80.892 88.166" transform="translate(-917 -122) translate(917.066 122)"/>
                <path fill="#E6C6A2" d="M120.046 88.166L120.104 88.266 100.469 99.603 100.469 99.469 120.046 88.166" transform="translate(-917 -122) translate(917.066 122)"/>
                <path fill="#E6CFB5" d="M91.791 94.525L111.426 83.189 109.683 82.182 90.048 93.519 91.791 94.525M91.789 97.795L91.791 94.526 90.048 93.52 90.048 96.79 91.789 97.795" transform="translate(-917 -122) translate(917.066 122)"/>
                <path fill="#000" d="M102.836 112.238l-.002-.092.087-.05v.093c.343-.182.643-.14.815.077-.032-.014-.076-.008-.122.02-.089.05-.162.16-.183.266-.024-.08-.097-.105-.185-.055-.087.051-.162.162-.185.268-.022-.08-.095-.106-.184-.055-.087.05-.16.162-.184.267-.02-.079-.095-.105-.183-.055-.089.051-.162.162-.183.268-.025-.08-.1-.105-.185-.055-.046.027-.09.071-.122.123.172-.416.47-.805.816-1.02" transform="translate(-917 -122) translate(917.066 122)"/>
                <path fill="#000" d="M102.921 114.58L102.834 114.629 102.836 112.835 102.921 112.787 102.921 114.58M103.124 114.783c.113-.066.205-.224.205-.355l.085-.049c0 .185-.13.41-.288.503-.16.091-.29.016-.29-.169l.085-.049c0 .13.09.184.203.119M106.386 110.096v.991c0 .39-.275.864-.612 1.06-.338.196-.612.037-.612-.353v-.99l1.224-.708M105.696 113.202L105.696 112.318 105.837 112.236 105.837 113.12 105.974 113.041 106.386 112.916 106.386 112.999 105.162 113.706 105.162 113.623 105.57 113.275 105.696 113.202M109.512 110.944L109.512 111.206 107.69 112.256 107.69 111.995 109.512 110.944M108.291 111.538L108.052 111.675 108.052 109.871 107.908 109.956 108.172 109.066 108.442 109.647 108.291 109.733 108.291 111.538M109.119 111.059L108.882 111.196 108.882 109.393 108.735 109.477 109.001 108.587 109.269 109.169 109.119 109.255 109.119 111.059" transform="translate(-917 -122) translate(917.066 122)"/>
                <path fill="#000" d="M104.027 111.182l-2.3 1.328v3.314l2.3-1.328v-3.314zm-2.363 1.274l2.427-1.402v3.495l-2.427 1.402v-3.495zM106.923 109.51l-2.298 1.328v3.313l2.298-1.327v-3.313zm-2.363 1.274l2.429-1.401v3.494l-2.429 1.403v-3.496zM109.749 107.879l-2.298 1.327v3.314l2.298-1.328v-3.313zm-2.363 1.273l2.43-1.402v3.496l-2.43 1.4v-3.494z" transform="translate(-917 -122) translate(917.066 122)"/>
            </g>
        </g>
    </g>
</svg>
