<svg xmlns="http://www.w3.org/2000/svg" xmlns:xlink="http://www.w3.org/1999/xlink" width="130" height="125" viewBox="0 0 130 125">
    <defs>
        <path id="sg5vbnjcaa" d="M0 0.019L129.271 0.019 129.271 11.143 0 11.143z"/>
        <path id="gigwxic62c" d="M0.038 0.056L4.441 0.056 4.441 118.253 0.038 118.253z"/>
    </defs>
    <g fill="none" fill-rule="evenodd">
        <g>
            <g>
                <path fill="#B7B7B7" d="M56.477 45.194c0 .512-.415.927-.927.927-.513 0-.928-.415-.928-.927 0-.513.415-.928.928-.928.512 0 .927.415.927.928" transform="translate(-51 -122) translate(51 122)"/>
                <path fill="#EDEDED" d="M56.08 45.194c0 .293-.238.53-.53.53-.293 0-.53-.237-.53-.53 0-.293.237-.53.53-.53.292 0 .53.237.53.53" transform="translate(-51 -122) translate(51 122)"/>
                <g transform="translate(-51 -122) translate(51 122) translate(0 113.57)">
                    <mask id="cyfsk7dgbb" fill="#fff">
                        <use xlink:href="#sg5vbnjcaa"/>
                    </mask>
                    <path fill="#C7C7C7" d="M129.27 5.58c0-3.07-28.937-5.561-64.635-5.561C28.938.019 0 2.509 0 5.58s28.938 5.562 64.635 5.562c35.698 0 64.636-2.49 64.636-5.562" mask="url(#cyfsk7dgbb)"/>
                </g>
                <g transform="translate(-51 -122) translate(51 122) translate(60.845 .09)">
                    <mask id="h6vzpn66sd" fill="#fff">
                        <use xlink:href="#gigwxic62c"/>
                    </mask>
                    <path fill="#E2E2E2" d="M4.441 118.253L0.038 118.253 0.038 0.056 4.441 4.12z" mask="url(#h6vzpn66sd)"/>
                </g>
                <path fill="#EAEAEA" d="M65.201 4.603L60.883 0.2 115.579 0.2 111.515 4.603z" transform="translate(-51 -122) translate(51 122)"/>
                <path fill="#D8D8D8" d="M111.145 118.459L115.548 118.459 115.548 0.262 111.145 4.326z" transform="translate(-51 -122) translate(51 122)"/>
                <path fill="#F2F2F2" d="M111.176 31.038V4.718h-45.89v85.575c3.436-4.975 7.165-9.759 11.016-14.782 12.082-15.291 24.163-29.201 34.874-44.473" transform="translate(-51 -122) translate(51 122)"/>
                <path fill="#EDEDED" d="M76.302 75.51c-3.851 5.024-7.58 9.808-11.016 14.783v27.881h45.89V31.038C100.466 46.31 88.384 60.22 76.302 75.51" transform="translate(-51 -122) translate(51 122)"/>
                <path stroke="gray" stroke-width=".57" d="M65.286 118.174L65.286 4.719 111.176 4.719 111.176 118.174" transform="translate(-51 -122) translate(51 122)"/>
                <path fill="#666" d="M70.52 65.557c0 1.007-.817 1.823-1.824 1.823-1.007 0-1.823-.816-1.823-1.823 0-1.007.816-1.823 1.823-1.823 1.007 0 1.823.816 1.823 1.823" transform="translate(-51 -122) translate(51 122)"/>
                <path fill="gray" d="M72.745 64.888c-.095-.001-.191-.003-.289-.003-2.235 0-4.047.344-4.047.768 0 .323 1.056.6 2.55.712.591-.493 1.173-1.007 1.786-1.477M74.029 64.947c-.524.539-1.129.996-1.716 1.472l.143.001c2.236 0 4.048-.343 4.048-.767 0-.318-1.022-.59-2.475-.706" transform="translate(-51 -122) translate(51 122)"/>
                <path fill="#D1D1D1" d="M74.029 64.947c-.4-.032-.83-.053-1.284-.059-.613.47-1.195.984-1.786 1.477.421.032.878.05 1.354.054.587-.476 1.192-.933 1.716-1.472" transform="translate(-51 -122) translate(51 122)"/>
                <path fill="#B7B7B7" d="M87.632 23.084l-.27-.127c-.18-.084-.322-.207-.43-.37-.107-.161-.17-.355-.19-.58h.673c.014.099.045.18.09.246.046.065.106.114.179.146.073.034.158.05.256.05.164 0 .292-.044.381-.133.09-.09.135-.215.135-.378v-.107c0-.176-.04-.312-.12-.408-.08-.096-.193-.145-.341-.145h-.311v-.626h.31c.127 0 .224-.042.293-.125.069-.084.103-.2.103-.35v-.097c0-.14-.037-.25-.111-.325-.074-.076-.18-.114-.315-.114-.082 0-.156.017-.22.052-.066.035-.121.087-.167.158-.046.07-.079.157-.1.26h-.67c.03-.231.097-.43.202-.597.106-.166.241-.293.407-.379.166-.086.353-.13.562-.13.348 0 .618.092.81.273.19.181.286.437.286.767v.093c0 .192-.05.36-.15.503-.101.143-.245.248-.43.316.206.046.365.15.477.312.113.162.17.369.17.62v.093c0 .232-.046.431-.137.596-.09.165-.223.29-.397.377-.174.086-.383.129-.626.129h-.35zM91.3 22.312c.084-.094.127-.228.127-.402v-.002c0-.194-.043-.344-.13-.45-.086-.105-.21-.158-.37-.158-.15 0-.267.053-.348.16-.082.106-.122.256-.122.45v.003c0 .174.042.308.126.4.084.093.203.139.357.139.156 0 .276-.047.36-.14m-.975.63c-.17-.094-.3-.231-.39-.412-.09-.18-.135-.398-.135-.653v-.002c0-.147.018-.301.053-.463.036-.162.087-.324.153-.485.011-.028.022-.055.034-.081l.037-.079.841-1.72h.726l-.99 1.992-.093-.099c.046-.086.113-.153.2-.2.089-.048.191-.072.309-.072.212 0 .394.047.546.14.152.094.268.23.348.409.08.178.12.393.12.644v.003c0 .256-.046.476-.135.66-.09.182-.22.322-.392.417-.171.095-.377.143-.617.143s-.445-.047-.615-.142" transform="translate(-51 -122) translate(51 122)"/>
                <path fill="#666" d="M90.274 25.526c0 .462-.375.836-.836.836-.462 0-.837-.374-.837-.836 0-.462.375-.836.837-.836.461 0 .836.374.836.836" transform="translate(-51 -122) translate(51 122)"/>
                <path fill="#8C8C8C" d="M89.938 25.113c-.12-.144-.298-.239-.5-.239-.36 0-.652.292-.652.652 0 .184.077.35.2.469.318-.293.645-.567.952-.882" transform="translate(-51 -122) translate(51 122)"/>
                <path fill="gray" d="M88.987 25.995c.117.113.275.183.45.183.36 0 .652-.292.652-.652 0-.158-.058-.3-.15-.413-.308.315-.635.588-.952.882" transform="translate(-51 -122) translate(51 122)"/>
                <path fill="#8BC1A1" d="M116.653 91.035c2.818-.211 5.825.772 8.385-.424.865-.404 1.618-1.046 2.153-1.835 1.353-1.994 1.207-4.608 1.009-7.01-.024-.291-.05-.592-.185-.853-.134-.26-.403-.474-.696-.45-.29.024-.511.262-.701.483-.821.957-1.655 1.919-2.664 2.676-1.115.838-2.475 1.42-3.88 1.303-.293-.024-.565-.201-.66-.48-.17-.504.338-.838.785-.98 1.285-.41 2.757-.306 3.884-1.049.832-.549 1.343-1.5 1.522-2.482.178-.98.055-1.994-.169-2.966-.151-.657-.36-1.328-.935-1.757-.166-.124-.361-.21-.566-.24-.844-.12-1.302.594-1.721 1.197-.922 1.326-2.287 2.518-3.901 2.557-.257-.303-.16-.787.096-1.09.256-.302.63-.473.98-.658 1.508-.794 2.945-2.335 2.043-4.158-.131-.265-.307-.506-.509-.722-.76-.813-1.752-1.24-2.703-1.735-.373-.194-.809.093-.794.513.046 1.324-.09 2.654-.404 3.94-.054.22-.156.427-.316.586-.59.592-1.233.08-1.345-.481-.079-.398.043-.807.184-1.188.351-.946.831-1.852 1.036-2.841.205-.989.083-2.122-.63-2.837-.64-.645-1.6-.815-2.48-1.04-.881-.226-1.834-.62-2.188-1.457l-.007.001c.012.91-.702 1.653-1.418 2.212-.716.56-1.526 1.102-1.855 1.95-.366.94-.023 2.027.562 2.85.585.824 1.388 1.461 2.09 2.187.282.292.558.617.645 1.014.123.559-.26 1.285-1.039.981-.21-.082-.387-.231-.524-.41-.805-1.052-1.463-2.216-1.952-3.447-.155-.39-.67-.479-.933-.151-.673.835-1.409 1.624-1.78 2.675-.097.278-.162.57-.175.865-.095 2.032 1.84 2.866 3.54 2.988.395.028.806.035 1.162.21.356.174.638.578.525.959-1.494.612-3.223.069-4.599-.776-.626-.384-1.332-.854-2.057-.405-.176.108-.32.267-.422.447-.355.623-.277 1.321-.151 1.984.185.98.479 1.958 1.036 2.785.558.827 1.407 1.493 2.39 1.662 1.33.228 2.636-.458 3.979-.599.466-.049 1.066.053 1.111.583.026.293-.152.565-.41.705-1.241.67-2.72.684-4.078.364-1.227-.29-2.377-.835-3.514-1.382-.263-.126-.56-.256-.836-.16-.277.095-.439.399-.457.691-.018.293.079.579.174.856.782 2.279 1.698 4.731 3.737 6.014.808.509 1.754.794 2.709.817 2.825.068 5.184-2.04 7.85-2.978l.067-.014z" transform="translate(-51 -122) translate(51 122)"/>
                <path fill="#009C40" d="M119.012 102.648l-2.403-3.064c-2.136-2.722-5.302-4.687-8.69-5.392l.165-.787c2.929.61 5.702 2.114 7.847 4.219-.28-1.384-.24-2.826-.2-4.234.059-2.108.114-4.097-.822-5.859l.71-.377c1.036 1.949.975 4.14.915 6.258-.057 2.058-.111 4 .752 5.745l1.726 3.49z" transform="translate(-51 -122) translate(51 122)"/>
                <path fill="#C9AAA9" d="M121.21 99.929L112.563 99.929 115.579 118.43 119.199 118.229z" transform="translate(-51 -122) translate(51 122)"/>
                <path fill="#FFBE92" d="M113.809 96.015c1.22-1.697 3.205-2.933 3.744-4.951.182-.682.176-1.412-.016-2.091-.487-1.713-2.037-2.873-3.49-3.902-.177-.124-.36-.252-.572-.3-.211-.049-.46.003-.585.18-.125.176-.095.414-.06.626.152.92.3 1.85.25 2.78-.055 1.03-.373 2.077-1.106 2.817-.152.155-.382.225-.585.146-.367-.143-.314-.59-.183-.91.38-.923 1.137-1.707 1.252-2.698.085-.733-.211-1.474-.683-2.041-.47-.568-1.103-.98-1.76-1.314-.444-.227-.923-.427-1.439-.305-.149.035-.291.104-.405.206-.468.421-.282 1.02-.14 1.544.313 1.152.34 2.491-.405 3.424-.293.001-.522-.283-.572-.572-.05-.289.032-.582.093-.868.267-1.231.077-2.777-1.384-3.133-.212-.051-.432-.066-.65-.054-.822.044-1.535.402-2.268.706-.287.119-.331.502-.086.694.772.602 1.46 1.311 2.04 2.1.098.135.167.292.181.457.054.616-.54.737-.912.534-.262-.145-.436-.408-.584-.669-.37-.648-.655-1.351-1.118-1.937-.462-.586-1.162-1.055-1.905-.991-.67.057-1.223.52-1.769.91-.546.392-1.222.745-1.864.547l-.002.005c.52.425.602 1.183.579 1.855-.023.671-.102 1.387.222 1.976.36.654 1.138.976 1.882 1.036.744.06 1.487-.092 2.231-.144.3-.021.615-.023.88.116.376.196.605.758.063 1.054-.146.08-.315.11-.481.102-.978-.044-1.95-.224-2.88-.532-.294-.098-.589.152-.529.457.154.778.251 1.57.67 2.278.11.188.246.363.406.51 1.106 1.02 2.498.32 3.374-.584.204-.21.403-.44.671-.559.268-.119.631-.086.793.159-.363 1.137-1.492 1.858-2.624 2.236-.516.172-1.117.349-1.208.972-.021.152 0 .308.053.452.185.497.617.784 1.052 1.028.643.36 1.337.659 2.07.736.733.077 1.514-.087 2.077-.564.761-.645.993-1.71 1.551-2.538.194-.287.536-.578.858-.352.178.125.248.355.204.568-.21 1.02-.905 1.865-1.73 2.482-.748.558-1.603.95-2.453 1.333-.197.09-.411.196-.489.398-.077.202.018.438.175.587.157.15.365.23.567.308 1.663.64 3.487 1.286 5.182.741.672-.216 1.284-.616 1.75-1.146 1.38-1.568 1.308-3.905 2.043-5.86l.024-.045z" transform="translate(-51 -122) translate(51 122)"/>
                <path fill="#C9AAA9" d="M57.271 117.981L22.936 118.762 22.48 98.733 56.815 97.953z" transform="translate(-51 -122) translate(51 122)"/>
                <path fill="#F0D0C4" d="M56.815 97.953L22.48 98.733 31.58 96.046 48.747 95.655z" transform="translate(-51 -122) translate(51 122)"/>
                <path fill="#F0995A" d="M54.012 45.917c-.89-.912-2.2-.446-2.743-.336-.326.56-.455 1.932-.364 1.966.141.054.708.117 1.421.023.795-.106 2.379-.944 1.686-1.653" transform="translate(-51 -122) translate(51 122)"/>
                <path fill="#427C93" d="M23.09 35.102c-.195-.095-1.095 1.94-1.289 1.863-1.762 2.09-3.048 4.52-4.126 7.087 1.763 1.376 3.473 2.498 6.443 3.678 2.15.854 6.675 2.967 7.523 3.308.343-2.528.683-5.056.893-7.588l-9.445-8.348z" transform="translate(-51 -122) translate(51 122)"/>
                <path fill="#F0995A" d="M51.766 45.532c-11.107 1.562-13.811.573-15.52.06-.036-.012-.408-.155-.466-.182-.785-.363-3.246-1.96-3.246-1.96-.21 2.532-.403 3.414-.746 5.942.075.03 4.005 1.296 9.718.471 5.218-.753 8.503-1.764 11.013-2.473-.018-.82-.068-.875-.087-1.694-.007-.31-.35-.208-.666-.164" transform="translate(-51 -122) translate(51 122)"/>
                <path fill="#000" d="M21.016 24.35c.043-.147.098-.304.239-.394.21-.133.606-1.48.852-1.392.247.09 1.82 1.961 1.898 2.063.105.14-.134 1.24-.142 1.404-.073 1.54-.113 3.097.022 4.638.038.44-.554.893-.425 1.322.148.49 1.101 2 .004 1.863-.925-.114-1.564-1.647-1.86-2.26-.944-1.953-1.183-5.216-.588-7.244" transform="translate(-51 -122) translate(51 122)"/>
                <path fill="#421A00" d="M29.786 25.878c-.02-.132-.046-.275-.144-.367-.146-.138-.379-.105-.572-.051-.194.054-.386.119-.573.194-.099.04-.2.086-.267.167-.093.112-.493.416-.502.561-.088 1.354-.255 2.704-.499 4.04-.07.38-.146.763-.283 1.125-.158.415-1.016 1.642-.176 1.63.708-.009 1.332-1.288 1.611-1.794.893-1.617 1.665-3.671 1.405-5.505" transform="translate(-51 -122) translate(51 122)"/>
                <path fill="#F0995A" d="M27.07 37.44c-.012.38-6.045-1.944-6.045-1.944l1.646-6.13s.08.29.174.24c.114-.062.276-.038.415-.01 1.655.322 3.432.789 3.951 1.927.065.14-.108 4.809-.141 5.916" transform="translate(-51 -122) translate(51 122)"/>
                <path fill="#FFAC73" d="M30.27 33c.813-.984 1.205-2.264 1.303-3.537.098-1.273.283-2.755.067-4.013-.152-.885-1.675-2.782-4.178-2.645-3.986.217-3.317 2.056-3.647 3.294-.227.848-.091 1.936.013 2.808.063.53.127 1.063.282 1.573.45 1.474 1.663 2.727 2.957 3.52 1.256.769 2.302.09 3.202-1" transform="translate(-51 -122) translate(51 122)"/>
                <path fill="#FFAC73" d="M24.378 29.33c-.022.62-.494 1.106-1.055 1.086-.562-.02-.999-.539-.976-1.159.022-.62.494-1.107 1.055-1.087.562.02.998.54.976 1.16" transform="translate(-51 -122) translate(51 122)"/>
                <path fill="#434C5B" d="M28.594 108.928c-.504-3.743-.318-7.47-.033-10.94.844-3.424 2.72-8.791 2.25-12.603l-.08-13.893c-.021-.37-2.445-11.86-2.802-11.824-1.086.2-4.559-.53-7.249 2.447-3.228 3.574-2.514 4.677-2.495 5.63.133.788.353 1.995.683 3.454 1.14 5.046 2.375 7.682 3.032 9.991.39 1.372 1.57 7.312 1.153 10.31-.032.228-.046.475-.046.735-.353 1.966-.651 4.124-.672 6.504-.068 7.878 1.883 14.276 3.605 18.485 1.618.672 2.27.73 3.889 1.401-.738-3.11-.742-6.031-1.235-9.697" transform="translate(-51 -122) translate(51 122)"/>
                <path fill="#4D5769" d="M18.148 80.81c.238 1.41.701 7.453-.194 10.374-.067.221-.118.465-.156.722-.675 1.905-1.317 4.007-1.681 6.366-1.207 7.804.05 14.399 1.365 18.793 1.707.873 2.426 1.014 4.133 1.887-.377-3.18.039-6.077.015-9.776-.024-3.664.674-7.231 1.46-10.55 1.666-3.313 5.862-8.772 5.886-12.734l2.906-14.558c-5.526.475-11.034 1.302-16.594 1.872.406 4.267 2.49 5.406 2.86 7.605" transform="translate(-51 -122) translate(51 122)"/>
                <path fill="#000" d="M29.323 115.747c.497.307 1.211.687 1.753.983 1.147.628 1.906.896 3.048 1.236.4.12.678.549.662 1.03-.004.145-.008.28-.008.38-3.41-.113-9.208.09-9.351 0-.384-.238.008-1.456.269-2.75.418.06.682.117 1.29.029 1.042-.153 1.841-.58 2.337-.908" transform="translate(-51 -122) translate(51 122)"/>
                <path fill="#000" d="M21.433 115.72c.497.307 1.024.692 1.567.988 1.147.628 1.905.896 3.048 1.236.4.12.678.548.662 1.03-.005.145-.009.28-.009.38-3.409-.112-9.207.09-9.35 0-.384-.238-.262-1.427 0-2.721.418.06.95.088 1.558 0 1.042-.152 2.029-.586 2.524-.913" transform="translate(-51 -122) translate(51 122)"/>
                <path fill="#169DD3" d="M28.492 40.755c-.171-.915-.16-.865-.316-1.868-.003-.189-.172-.933-.434-1.373-.185-.312-.45-.576-.777-.76 0 0-5.4-3.443-5.458-3.387-.15.15-.406.42-.718.758 3.47 1.236 5.844 3.74 7.703 6.63" transform="translate(-51 -122) translate(51 122)"/>
                <path fill="#169DD3" d="M30.109 56.433c.061-1.432.18-2.593.254-3.452.262-3.001-.872-6.897-1.87-12.226-1.86-2.89-4.233-5.394-7.704-6.63-1.223 1.323-3.354 3.75-3.824 4.702-1.88 3.807-1.812 11.145-.816 17.398 1.49 9.341-1.168 12.16-.87 16.416 0 0 15.084.12 15.664-.596-.433-1.684-.533-7.68-.765-10.81-.03-.411-.053-3.311-.07-4.802" transform="translate(-51 -122) translate(51 122)"/>
                <path fill="#979797" d="M15.932 66.909L14.43 78.422 31.388 80.635 32.89 69.121z" transform="translate(-51 -122) translate(51 122)"/>
                <path fill="#EAEAEA" d="M16.46 66.342L14.958 77.856 31.916 80.068 33.418 68.555z" transform="translate(-51 -122) translate(51 122)"/>
                <path fill="#333" d="M15.273 69.183l-1.316 10.085c-.032.247.141.473.388.505l17.315 2.259c.246.032.472-.142.504-.388l1.341-10.031c.034-.254-.144-.487-.398-.518l-6.436-.788-10.995-1.434c-.197-.026-.378.113-.403.31" transform="translate(-51 -122) translate(51 122)"/>
                <path fill="#FFAC73" d="M26.934 77.776c.769-1.36-.372-2.727-.74-3.322-.844-.183-2.622.146-2.627.264-.008.184.152.867.574 1.668.47.89 2.195 2.446 2.793 1.39" transform="translate(-51 -122) translate(51 122)"/>
                <path fill="#FFAC73" d="M21.232 58.992c-.001-.039.115-1.046.088-1.104l1.237-7.288c-2.654-.272-4.453-.767-6.847-2.562-.016-.033-.037-.065-.057-.097-.018.202-.034.409-.05.622-.173 2.51-.954 9.467-.909 9.634.086 1.022 2.568 6.488 4.491 9.865 2.609 4.58 3.45 5.304 4.888 7.48.775-.268 1.304-.357 2.08-.624.292-.101.075-.399-.062-.687-3.49-7.288-4.83-13.456-4.86-15.239" transform="translate(-51 -122) translate(51 122)"/>
                <path fill="#169DD3" d="M23.376 50.66l1.71-6.945c.45-3.04-.711-5.61-4.366-5.932 0 0-2.272.154-3.183 2.498-.923 2.378-1.595 4.344-1.884 7.66.02.032.041.064.057.097 2.394 1.795 5.013 2.351 7.666 2.623M33.755 25.699c.165 0 .43-.018.725-.137.206-.083.43-.173.575-.391l.007-.01c.25-.388.032-.914-.4-1.059-.844-.283-2.575-.7-2.934-.949-.086-.43-.573-2.125-1.121-2.81-.857-1.07-2.008-1.398-2.752-1.61-.535-.152-2.195-.6-4.075.073-.532.191-1.575.565-2.352 1.564-.602.774-.815 1.63-.917 2.043-.055.22-.154.67-.18 1.253-.04.891.11 1.637.265 2.166 1.546.046 13.101-.197 13.16-.133" transform="translate(-51 -122) translate(51 122)"/>
                <path fill="#F0995A" d="M55.37 45.575l-3.138.407c-.12.018.938-.184.92-.305l-.019-.13c-.018-.12-1.105-.115-.985-.132l3.138-.407c.12-.018.233.066.25.186l.02.13c.018.12-.066.234-.187.251" transform="translate(-51 -122) translate(51 122)"/>
                <path fill="#F0D0C4" d="M43.961 98.228L43.992 107.607 46.347 106.076 48.585 107.725 48.584 98.14z" transform="translate(-51 -122) translate(51 122)"/>
            </g>
        </g>
    </g>
</svg>
