<svg width="59" height="60" viewBox="0 0 59 60" fill="none" xmlns="http://www.w3.org/2000/svg">
<path d="M13.1655 24.4113C15.497 17.3466 22.1361 12.2727 30 12.2727C34.2273 12.2727 38.0455 13.7727 41.0455 16.2273L49.7727 7.5C44.4545 2.86364 37.6364 0 30 0C18.1752 0 7.99437 6.74574 3.09998 16.6251L13.1655 24.4113Z" fill="white"/>
<path d="M40.1018 45.0315C37.3773 46.7907 33.9152 47.7273 30 47.7273C22.1662 47.7273 15.5478 42.6922 13.1924 35.6697L3.09363 43.3375C7.98195 53.2341 18.1625 60 30 60C37.3321 60 44.3383 57.3935 49.5854 52.4989L40.1018 45.0315Z" fill="white"/>
<path d="M49.5855 52.4989C55.0729 47.3802 58.6364 39.7591 58.6364 30C58.6364 28.2273 58.3636 26.3182 57.9545 24.5454H30V36.1364H46.0909C45.2969 40.0341 43.1658 43.053 40.1018 45.0315L49.5855 52.4989Z" fill="white"/>
<path d="M13.1925 35.6697C12.5958 33.8908 12.2727 31.9844 12.2727 30C12.2727 28.0457 12.5861 26.167 13.1655 24.4113L3.09998 16.6251C1.09147 20.6511 0 25.1885 0 30C0 34.7989 1.11195 39.3254 3.09366 43.3375L13.1925 35.6697Z" fill="white"/>
</svg>
