<svg xmlns="http://www.w3.org/2000/svg" xmlns:xlink="http://www.w3.org/1999/xlink" width="122" height="126" viewBox="0 0 122 126">
    <defs>
        <path id="fgmricresa" d="M0.045 0.044L45.728 0.044 45.728 33.97 0.045 33.97z"/>
        <path id="pdfcj2hnvc" d="M0.002 0.048L24.732 0.048 24.732 21.69 0.002 21.69z"/>
        <path id="9xh1cb5bqe" d="M0 124.926L138.128 124.926 138.128 0.048 0 0.048z"/>
    </defs>
    <g fill="none" fill-rule="evenodd">
        <g>
            <g>
                <path fill="#FFF" d="M11.41 40.394H125.523V125.186H11.41z" transform="translate(-265 -122) translate(257.531 122)"/>
                <g transform="translate(-265 -122) translate(257.531 122) translate(0 .127)">
                    <path fill="#F6C19D" d="M19.557 124.63h31.047l2.576-6.933c.912-2.457 2.779-4.431 5.166-5.511 2.249-1.018 5.275-2.865 8.208-6.158 5.709-6.407 8.738-13.281 8.738-13.281l-19.24-.094s1.731-10.763-7.832-25.058c-1.023-1.53-1.489-3.366-1.33-5.2l.907-10.425s6.498-7.262 2.511-16.272c0 0-3.812-5.278-5.325-3.346 0 0-11.516 27.424-12.565 31.502-1.048 4.077-2.446 6.64-1.048 19.456.37 3.393.503 6.222.498 8.548-.009 4.466-1.006 8.875-2.916 12.912l-9.395 19.86z"/>
                    <g transform="translate(19.512 90.66)">
                        <mask id="ek7wsyd1tb" fill="#fff">
                            <use xlink:href="#fgmricresa"/>
                        </mask>
                        <path fill="#F6C19D" d="M29.002 16.18c-2.881-3.2-6.884-2.694-11.094-4.153-4.21-1.46-5.56-11.982-5.56-11.982V.044c.006.397.009.782.008 1.154-.009 4.466-1.006 8.874-2.916 12.911L.045 33.97h31.047l2.576-6.933c.912-2.456 2.779-4.431 5.166-5.511 1.914-.866 4.39-2.333 6.894-4.78-8.55 3.594-13.844 2.635-16.726-.565" mask="url(#ek7wsyd1tb)"/>
                    </g>
                    <path fill="#DDC0FB" d="M34.786.391c7.137 11.262 24.73 21.299 24.73 21.299S45.53 20.554 38.59 11.516l2.516-2.084s-2 .194-3.675.387c-1.543-2.56-2.543-5.665-2.646-9.428"/>
                    <g transform="translate(34.783)">
                        <mask id="vtdcgjzgpd" fill="#fff">
                            <use xlink:href="#pdfcj2hnvc"/>
                        </mask>
                        <path fill="#FBF7FF" d="M18.73 5.049c-1.085.492-2.69 1.243-2.69 1.243l1.546-2.223c-1.802-1.402-3.784-2.336-5.75-2.948-.796 1.16-1.732 2.456-1.732 2.456L9.918.618C4.651-.516.002.391.002.391 7.14 11.653 24.732 21.69 24.732 21.69c-.08-8.275-2.6-13.442-6.002-16.641" mask="url(#vtdcgjzgpd)"/>
                    </g>
                    <mask id="xijiamgp3f" fill="#fff">
                        <use xlink:href="#9xh1cb5bqe"/>
                    </mask>
                    <path fill="#5B99E6" d="M32.165 16.282c2.1-1.234 4.23-1.899 6.3-2.17.623.712 1.388 1.549 1.388 1.549l.043-1.676c7.955-.382 14.663 4.629 14.663 4.629-4.553 2.77-8.47 3.546-11.699 3.316-.203-.585-.492-1.458-.492-1.458l-.54 1.349c-1.55-.221-2.924-.67-4.113-1.22.287-.7.587-1.5.587-1.5l-1.696.93c-2.912-1.649-4.44-3.75-4.44-3.75" mask="url(#xijiamgp3f)"/>
                    <path fill="#2671D1" d="M42.86 21.93c-.203-.585-.492-1.458-.492-1.458l-.54 1.349c-1.55-.221-2.924-.67-4.113-1.22.287-.7.587-1.5.587-1.5l-1.696.93c-2.912-1.649-4.441-3.75-4.441-3.75 9.256-1.057 22.394 2.333 22.394 2.333-4.553 2.77-8.47 3.546-11.699 3.316" mask="url(#xijiamgp3f)"/>
                    <g mask="url(#xijiamgp3f)">
                        <g>
                            <path fill="#5CB30B" d="M3.766 3.183l-.67 5.058 3.592-2.623L17.684 0 9.178.779S4.846 1.83 4.611 2.044c-.234.212-.845 1.14-.845 1.14" transform="translate(111.093 9.79)"/>
                            <path fill="#92CC5C" d="M0 .129L17.684 0 3.766 3.183zM9.451 8.272L4.817 4.55 17.684 0z" transform="translate(111.093 9.79)"/>
                        </g>
                    </g>
                    <path fill="#141414" d="M111.158 17.76c.827-.255 1.437-.31 1.443-.31l-.04-.314c-.027.002-.666.06-1.539.328l.136.296zM106.814 20.757c.388-.777.952-1.455 1.675-2.014l.265.23c-.683.527-1.215 1.168-1.583 1.903l-.357-.12zm-.485 4.77c-.153-.851-.203-1.658-.146-2.397l.385.02c-.055.717-.007 1.501.142 2.33l.003.018-.382.043-.002-.014zm.432 2.377l.382-.044c.161.924.277 1.679.363 2.376l-.384.031c-.086-.692-.2-1.443-.361-2.363zm.549 4.734l.386-.007c.024.857-.008 1.643-.095 2.403l-.385-.03c.087-.747.117-1.521.094-2.366zm-1.56 6.906c.19-.325.364-.664.518-1.007.175-.388.33-.794.46-1.207l.373.08c-.133.422-.291.838-.47 1.236-.159.352-.338.7-.532 1.034l-.348-.136zm-3.434 3.747c.726-.542 1.38-1.127 1.943-1.737l.308.19c-.577.626-1.247 1.225-1.99 1.78l-.26-.233zm-4.78 2.638c.894-.37 1.736-.77 2.502-1.188l.214.263c-.779.425-1.634.83-2.542 1.207l-.174-.282zM94.288 47.633c.407-.141.807-.29 1.191-.44l-.116-.294c-.38.15-.776.296-1.178.436l.103.298z" mask="url(#xijiamgp3f)"/>
                    <path fill="#F19A5E" d="M92.65 14.067s6.577-4.401 8.079-1.501c1.501 2.9-8.544 13.16-8.544 13.16l.466-11.659zM92.65 33.244s6.577-4.401 8.079-1.501c1.501 2.9-8.544 13.16-8.544 13.16l.466-11.659zM92.65 46.31s6.577-4.402 8.079-1.502c1.501 2.9-8.544 13.16-8.544 13.16l.466-11.658z" mask="url(#xijiamgp3f)"/>
                    <path fill="#F6C19D" d="M50.429 71.172s-6.53 15.984-5.897 19.007c.634 3.022 4.596 7.064 14.318 5.716 9.722-1.347 16.442-3.148 16.442-3.148s.406-21.572 0-22.666c-.406-1.094-17.886-8.86-18.574-8.86-.688 0-6.29 9.95-6.29 9.95" mask="url(#xijiamgp3f)"/>
                    <path fill="#141414" d="M88.109 9.135H52.008c-2.688 0-4.868 2.269-4.868 5.068V91.01c0 2.822 2.202 5.068 4.868 5.068h36.101c2.688 0 4.868-2.268 4.868-5.068V14.203c0-2.824-2.205-5.068-4.868-5.068" mask="url(#xijiamgp3f)"/>
                    <path fill="#FFF" d="M49.499 88.011L90.617 88.011 90.617 15.77 49.499 15.77z" mask="url(#xijiamgp3f)"/>
                    <path fill="#DAE7F7" d="M59.945 63.689c-1.41 0-2.553-1.143-2.553-2.553V34.348c0-1.41 1.143-2.554 2.553-2.554h20.227c1.41 0 2.553 1.143 2.553 2.554v26.788c0 1.41-1.143 2.553-2.553 2.553H59.945z" mask="url(#xijiamgp3f)"/>
                    <path fill="#92CC5C" d="M75.811 53.643c0 .268-.217.486-.486.486s-.486-.218-.486-.486l.674-6.828c0-.268.218-.486.486-.486.269 0 .486.218.486.486l-.674 6.828zm-2.445 0c0 .268-.218.486-.486.486-.269 0-.487-.218-.487-.486l.27-6.828c0-.268.218-.486.486-.486.269 0 .487.218.487.486l-.27 6.828zm-2.821 0c0 .268-.218.486-.487.486-.268 0-.486-.218-.486-.486v-6.828c0-.268.218-.486.486-.486.269 0 .487.218.487.486v6.828zm-3.308.486c-.268 0-.486-.218-.486-.486l-.27-6.828c0-.268.218-.486.486-.486.269 0 .487.218.487.486l.27 6.828c0 .268-.218.486-.487.486zm-2.445 0c-.269 0-.486-.218-.486-.486l-.675-6.828c0-.268.218-.486.487-.486.268 0 .486.218.486.486l.674 6.828c0 .268-.218.486-.486.486zm-3.541-9.418l2.008 9.633c.087.42.446.719.863.719h11.873c.416 0 .776-.3.863-.72l2.008-9.632H61.25z" mask="url(#xijiamgp3f)"/>
                    <path fill="#5CB30B" d="M78.991 45.489H61.126c-.43 0-.778-.348-.778-.778 0-.43.348-.778.778-.778H78.99c.43 0 .778.348.778.778 0 .43-.348.778-.778.778" mask="url(#xijiamgp3f)"/>
                    <path fill="#92CC5C" d="M64.877 43.991v-.672c0-1.12.908-2.027 2.028-2.027h6.307c1.12 0 2.027.908 2.027 2.027v.672c0 .241.195.436.436.436.24 0 .436-.195.436-.436v-.672c0-1.6-1.298-2.898-2.899-2.898h-6.307c-1.601 0-2.899 1.297-2.899 2.898v.672c0 .241.195.436.436.436.24 0 .435-.195.435-.436" mask="url(#xijiamgp3f)"/>
                    <path fill="#FFF" d="M78.536 13.562H61.648c-.195 0-.354-.158-.354-.353v-.173c0-.196.159-.354.354-.354h16.888c.195 0 .353.158.353.354v.173c0 .195-.158.353-.353.353" mask="url(#xijiamgp3f)"/>
                    <path fill="#F6C19D" d="M46.321 58.261s.248.923.81 1.376l.666-7.667s4.78-5.342 3.625-12.547c-.395-2.467-1.622-4.737-3.498-6.386-1.071-.942-2.247-1.57-2.94-.685 0 0-5.416 12.896-9.158 22.317L46.32 58.26z" mask="url(#xijiamgp3f)"/>
                    <path fill="#DAE7F7" d="M69.433 88.626c-.096 0-.175.078-.175.174v1.204c0 .096.079.175.175.175h1.204c.096 0 .174-.079.174-.175V88.8c0-.096-.078-.174-.174-.174h-1.204zm1.204 1.618h-1.204c-.132 0-.24-.108-.24-.24V88.8c0-.132.108-.239.24-.239h1.204c.132 0 .239.107.239.24v1.203c0 .132-.107.24-.24.24z" mask="url(#xijiamgp3f)"/>
                    <path fill="#D0E1F5" d="M49.499 90.639L90.617 90.639 90.617 86.483 49.499 86.483zM49.499 19.498L90.617 19.498 90.617 15.77 49.499 15.77z" mask="url(#xijiamgp3f)"/>
                    <path fill="#F19A5E" d="M45.957 39.927c1.496-.689 2.278-4.582 2.557-6.332-1.2-1.208-2.707-2.296-3.53-1.243 0 0-1.193 2.84-2.846 6.828 1.13.628 2.7 1.261 3.82.747" mask="url(#xijiamgp3f)"/>
                    <path fill="#141414" d="M28.503 106.31c3.285 2.019 13.861 8.054 24.797 9.34.64.076 1.091.663.902 1.17l-1.91 5.118c-.127.338-.508.536-.935.484-3.223-.391-16.52-2.393-25.877-9.631-.318-.246-.453-.62-.334-.939l1.95-5.222c.184-.492.872-.648 1.407-.32" mask="url(#xijiamgp3f)"/>
                    <path fill="#000" d="M27.543 111.204l-.036-.014c-.192-.071-.29-.285-.218-.477l.588-1.575c.072-.192.286-.29.477-.218l.037.014c.191.071.289.285.217.477l-.588 1.575c-.072.192-.285.29-.477.218M29.51 112.416l-.036-.013c-.192-.072-.29-.286-.218-.477l.589-1.576c.071-.192.285-.289.476-.217l.037.013c.191.072.289.285.217.477l-.588 1.575c-.072.192-.285.29-.477.218M31.48 113.62l-.036-.013c-.192-.072-.29-.286-.217-.477l.588-1.576c.071-.191.285-.289.477-.217l.036.013c.192.072.29.285.217.477l-.588 1.576c-.071.191-.285.289-.477.217M33.508 114.6l-.036-.014c-.192-.072-.29-.285-.218-.477l.588-1.575c.072-.192.285-.29.477-.218l.036.013c.192.072.29.286.218.477l-.588 1.576c-.072.192-.285.289-.477.217M35.503 115.738l-.036-.014c-.192-.071-.29-.285-.218-.477l.588-1.575c.072-.192.285-.29.477-.218l.036.014c.192.071.29.285.218.477l-.588 1.575c-.072.192-.285.29-.477.218M37.585 116.64l-.036-.013c-.191-.072-.289-.285-.217-.477l.588-1.575c.071-.192.285-.29.477-.218l.036.013c.192.072.29.285.218.477l-.589 1.576c-.071.191-.285.289-.477.217M39.71 117.433l-.037-.013c-.192-.072-.29-.285-.218-.477l.589-1.576c.071-.191.285-.289.477-.217l.036.013c.192.072.289.285.217.477l-.588 1.575c-.071.192-.285.29-.477.218M41.874 118.116l-.036-.013c-.192-.072-.29-.285-.218-.477l.588-1.575c.072-.192.285-.29.477-.218l.036.013c.192.072.29.285.218.477l-.588 1.576c-.072.191-.285.289-.477.217M44.127 118.564l-.037-.014c-.191-.071-.289-.285-.217-.477l.588-1.575c.072-.192.285-.29.477-.218l.036.014c.192.071.29.285.218.477l-.588 1.575c-.072.192-.286.29-.477.218M46.32 119.17l-.036-.013c-.192-.072-.29-.285-.218-.477l.588-1.575c.072-.192.285-.29.477-.218l.036.013c.192.072.29.285.218.477l-.588 1.576c-.072.191-.285.289-.477.217M48.597 119.552l-.036-.014c-.192-.071-.29-.285-.218-.477l.588-1.575c.072-.192.286-.289.477-.218l.037.014c.191.072.289.285.217.477l-.588 1.575c-.072.192-.285.29-.477.218M50.877 119.925l-.036-.013c-.192-.072-.289-.285-.217-.477l.588-1.575c.071-.192.285-.29.477-.218l.036.013c.192.072.29.286.218.477l-.589 1.576c-.071.191-.285.289-.477.217" mask="url(#xijiamgp3f)"/>
                    <path fill="#AC8CCE" d="M34.994 118.16l.01-.025c-.036-.004-.07-.012-.104-.025l-2.588-.966c-.256-.095-.38-.398-.277-.674l2.334-6.25c.103-.276.395-.423.65-.328l2.588.966c.152.057.257.187.296.34l.614.266c.07-.526-.2-1.036-.682-1.216l-2.588-.966c-.567-.212-1.214.114-1.443.727l-2.334 6.25c-.229.613.047 1.284.614 1.496l2.588.966c.388.145.814.038 1.117-.24-.264-.105-.53-.212-.795-.321" mask="url(#xijiamgp3f)"/>
                    <path fill="#FFF" d="M34.426 113.2l-1.125-.421c-.202-.075-.432.04-.513.258-.082.218.016.456.218.532l1.126.42.294-.79z" mask="url(#xijiamgp3f)"/>
                    <path fill="#141414" d="M22.745 59.685c-.547-.473-.996-.696-1-.699l.139-.283c.02.01.49.244 1.068.743l-.207.239zM24.73 63.736c-.028-.794-.216-1.546-.558-2.234l.283-.14c.362.728.56 1.524.59 2.363l-.315.011zm-.966 4.615l-.278-.148.008-.017c.4-.735.708-1.457.915-2.147l.302.09c-.212.71-.528 1.454-.94 2.21l-.007.012zm-2.239 4.213l-.283-.139c.306-.63.656-1.306 1.099-2.127l.278.15c-.441.817-.789 1.49-1.094 2.116zm-1.708 4.419l-.305-.081c.195-.738.442-1.485.757-2.283l.294.116c-.31.786-.554 1.522-.746 2.248zm-.756 4.703c-.034-.368-.052-.745-.052-1.12 0-.425.023-.86.066-1.294l.314.031c-.042.424-.064.849-.064 1.263 0 .365.017.732.05 1.09l-.314.03zm1.377 4.603c-.38-.732-.687-1.483-.914-2.233l.302-.092c.222.732.522 1.465.892 2.18l-.28.145zm2.808 3.896c-.567-.61-1.083-1.232-1.535-1.851l.255-.186c.444.609.953 1.222 1.511 1.822l-.23.215zM25.937 92.69c-.333-.273-.658-.55-.966-.824l.21-.236c.305.271.626.546.956.816l-.2.244z" mask="url(#xijiamgp3f)"/>
                    <path fill="#9369BF" d="M20.642 54.28l-.417 5.085-2.954-3.326-9.553-7.824 8.146 2.566s4.01 1.949 4.195 2.206c.184.257.583 1.293.583 1.293" mask="url(#xijiamgp3f)"/>
                    <path fill="#AC8CCE" d="M24.971 52.095L7.718 48.215 20.642 54.28zM14.007 58.046L19.325 55.392 7.718 48.215z" mask="url(#xijiamgp3f)"/>
                    <path fill="#085FCC" d="M76.642 29.776h-.034c-1.802 0-3.263-1.46-3.263-3.263v-2.447h6.56v2.447c0 1.802-1.461 3.263-3.263 3.263" mask="url(#xijiamgp3f)"/>
                    <path fill="#88B2E7" d="M70.083 29.776h-.034c-1.802 0-3.263-1.46-3.263-3.263v-2.447h6.56v2.447c0 1.802-1.461 3.263-3.263 3.263" mask="url(#xijiamgp3f)"/>
                    <path fill="#085FCC" d="M63.523 29.776h-.033c-1.802 0-3.263-1.46-3.263-3.263v-2.447h6.56v2.447c0 1.802-1.462 3.263-3.264 3.263" mask="url(#xijiamgp3f)"/>
                    <path fill="#88B2E7" d="M56.964 29.776h-.033c-1.802 0-3.263-1.46-3.263-3.263v-2.447h6.56v2.447c0 1.802-1.462 3.263-3.264 3.263" mask="url(#xijiamgp3f)"/>
                    <path fill="#085FCC" d="M50.405 29.776h-.033c-1.802 0-3.263-1.46-3.263-3.263v-2.447h6.56v2.447c0 1.802-1.462 3.263-3.264 3.263" mask="url(#xijiamgp3f)"/>
                    <path fill="#88B2E7" d="M96.304 29.776h-.033c-1.802 0-3.263-1.46-3.263-3.263v-2.447h6.559v2.447c0 1.802-1.461 3.263-3.263 3.263" mask="url(#xijiamgp3f)"/>
                    <path fill="#085FCC" d="M89.745 29.776h-.033c-1.802 0-3.263-1.46-3.263-3.263v-2.447h6.559v2.447c0 1.802-1.461 3.263-3.263 3.263" mask="url(#xijiamgp3f)"/>
                    <path fill="#88B2E7" d="M83.2 29.776h-.032c-1.803 0-3.263-1.46-3.263-3.263v-2.447h6.559v2.447c0 1.802-1.461 3.263-3.263 3.263M43.846 29.776h-.033c-1.802 0-3.263-1.46-3.263-3.263v-2.447h6.559v2.447c0 1.802-1.46 3.263-3.263 3.263" mask="url(#xijiamgp3f)"/>
                    <path fill="#DAE7F7" d="M72.398 15.77L67.734 15.77 66.786 24.066 73.346 24.066z" mask="url(#xijiamgp3f)"/>
                    <path fill="#669CDF" d="M67.734 15.77L63.071 15.77 60.227 24.066 66.786 24.066z" mask="url(#xijiamgp3f)"/>
                    <path fill="#DAE7F7" d="M63.071 15.77L58.407 15.77 53.668 24.066 60.227 24.066z" mask="url(#xijiamgp3f)"/>
                    <path fill="#669CDF" d="M58.407 15.77L53.744 15.77 47.109 24.066 53.668 24.066z" mask="url(#xijiamgp3f)"/>
                    <path fill="#DAE7F7" d="M53.744 15.77L49.08 15.77 40.55 24.066 47.109 24.066zM91.021 15.77L86.357 15.77 93.008 24.066 99.567 24.066z" mask="url(#xijiamgp3f)"/>
                    <path fill="#669CDF" d="M86.38 15.77L81.717 15.77 86.449 24.066 93.008 24.066z" mask="url(#xijiamgp3f)"/>
                    <path fill="#DAE7F7" d="M81.717 15.77L77.053 15.77 79.905 24.066 86.464 24.066z" mask="url(#xijiamgp3f)"/>
                    <path fill="#669CDF" d="M77.053 15.77L72.39 15.77 73.346 24.066 79.905 24.066z" mask="url(#xijiamgp3f)"/>
                    <path fill="#16449B" d="M57.367 73.708c-1.382 0-2.502-1.12-2.502-2.503v-.738c0-1.382 1.12-2.503 2.502-2.503H82.75c1.382 0 2.502 1.12 2.502 2.503v.738c0 1.382-1.12 2.503-2.502 2.503H57.367z" mask="url(#xijiamgp3f)"/>
                    <text fill="#FFF" font-family="ProximaNova-Semibold, Proxima Nova" font-size="12" font-weight="500" letter-spacing=".05" mask="url(#xijiamgp3f)">
                        <tspan x="64.541" y="75.328">B</tspan> <tspan x="64.541" y="90.328">U</tspan> <tspan x="64.541" y="105.328">Y </tspan> <tspan x="64.541" y="120.328">N</tspan> <tspan x="64.541" y="135.328">O</tspan> <tspan x="64.541" y="150.328">W</tspan>
                    </text>
                </g>
            </g>
        </g>
    </g>
</svg>
