<svg width="20" height="16" viewBox="0 0 20 16" fill="none" xmlns="http://www.w3.org/2000/svg">
<path d="M7.95 2.3125C8.51359 2.3125 9.05409 2.54297 9.4526 2.9532C9.85112 3.36344 10.075 3.91984 10.075 4.5C10.075 5.08016 9.85112 5.63656 9.4526 6.0468C9.05409 6.45703 8.51359 6.6875 7.95 6.6875C7.38642 6.6875 6.84591 6.45703 6.4474 6.0468C6.04888 5.63656 5.825 5.08016 5.825 4.5C5.825 3.91984 6.04888 3.36344 6.4474 2.9532C6.84591 2.54297 7.38642 2.3125 7.95 2.3125ZM7.95 8C8.85174 8 9.71654 7.63125 10.3542 6.97487C10.9918 6.3185 11.35 5.42826 11.35 4.5C11.35 3.57174 10.9918 2.6815 10.3542 2.02513C9.71654 1.36875 8.85174 1 7.95 1C7.04826 1 6.18346 1.36875 5.54584 2.02513C4.90821 2.6815 4.55 3.57174 4.55 4.5C4.55 5.42826 4.90821 6.3185 5.54584 6.97487C6.18346 7.63125 7.04826 8 7.95 8ZM6.73609 10.625H9.16391C10.9091 10.625 12.3541 11.9566 12.5905 13.6875H3.30953C3.54594 11.9566 4.99094 10.625 6.73609 10.625ZM6.73609 9.3125C4.11969 9.3125 2 11.4945 2 14.1879C2 14.6363 2.35328 15 2.78891 15H13.1111C13.5467 15 13.9 14.6363 13.9 14.1879C13.9 11.4945 11.7803 9.3125 9.16391 9.3125H6.73609ZM15.3875 9.53125C15.3875 9.89492 15.6717 10.1875 16.025 10.1875C16.3783 10.1875 16.6625 9.89492 16.6625 9.53125V7.78125H18.3625C18.7158 7.78125 19 7.48867 19 7.125C19 6.76133 18.7158 6.46875 18.3625 6.46875H16.6625V4.71875C16.6625 4.35508 16.3783 4.0625 16.025 4.0625C15.6717 4.0625 15.3875 4.35508 15.3875 4.71875V6.46875H13.6875C13.3342 6.46875 13.05 6.76133 13.05 7.125C13.05 7.48867 13.3342 7.78125 13.6875 7.78125H15.3875V9.53125Z" fill="#5B626A"/>
</svg>
