<svg width="25" height="20" viewBox="0 0 25 20" fill="none" xmlns="http://www.w3.org/2000/svg">
<g clip-path="url(#clip0_2962_1871)">
<path d="M5.625 0C6.4538 0 7.24866 0.32924 7.83471 0.915291C8.42076 1.50134 8.75 2.2962 8.75 3.125C8.75 3.9538 8.42076 4.74866 7.83471 5.33471C7.24866 5.92076 6.4538 6.25 5.625 6.25C4.7962 6.25 4.00134 5.92076 3.41529 5.33471C2.82924 4.74866 2.5 3.9538 2.5 3.125C2.5 2.2962 2.82924 1.50134 3.41529 0.915291C4.00134 0.32924 4.7962 0 5.625 0ZM20 0C20.8288 0 21.6237 0.32924 22.2097 0.915291C22.7958 1.50134 23.125 2.2962 23.125 3.125C23.125 3.9538 22.7958 4.74866 22.2097 5.33471C21.6237 5.92076 20.8288 6.25 20 6.25C19.1712 6.25 18.3763 5.92076 17.7903 5.33471C17.2042 4.74866 16.875 3.9538 16.875 3.125C16.875 2.2962 17.2042 1.50134 17.7903 0.915291C18.3763 0.32924 19.1712 0 20 0ZM0 11.668C0 9.36719 1.86719 7.5 4.16797 7.5H5.83594C6.45703 7.5 7.04687 7.63672 7.57812 7.87891C7.52734 8.16016 7.50391 8.45313 7.50391 8.75C7.50391 10.2422 8.16016 11.582 9.19531 12.5C9.1875 12.5 9.17969 12.5 9.16797 12.5H0.832031C0.375 12.5 0 12.125 0 11.668ZM15.832 12.5C15.8242 12.5 15.8164 12.5 15.8047 12.5C16.8438 11.582 17.4961 10.2422 17.4961 8.75C17.4961 8.45313 17.4688 8.16406 17.4219 7.87891C17.9531 7.63281 18.543 7.5 19.1641 7.5H20.832C23.1328 7.5 25 9.36719 25 11.668C25 12.1289 24.625 12.5 24.168 12.5H23.6445C23.3867 11.7734 22.6914 11.25 21.875 11.25H20.625C19.8086 11.25 19.1133 11.7734 18.8555 12.5H15.832ZM14.7891 13.75C15.543 13.75 16.2578 13.9102 16.9062 14.1992C16.5039 14.543 16.25 15.0547 16.25 15.625V15.9609C15.8086 15.7461 15.3164 15.625 14.793 15.625H10.207C8.65234 15.625 7.34766 16.6875 6.98047 18.125H16.7266C17.0703 18.5078 17.5703 18.75 18.125 18.75H18.75V19.375C18.75 19.5937 18.7891 19.8047 18.8555 20H6.04297C5.46875 20 5 19.5352 5 18.957C5 16.082 7.33203 13.75 10.207 13.75H14.793H14.7891ZM12.5 10.625C12.7462 10.625 12.99 10.5765 13.2175 10.4823C13.445 10.388 13.6517 10.2499 13.8258 10.0758C13.9999 9.90172 14.138 9.69502 14.2323 9.46753C14.3265 9.24005 14.375 8.99623 14.375 8.75C14.375 8.50377 14.3265 8.25995 14.2323 8.03247C14.138 7.80498 13.9999 7.59828 13.8258 7.42417C13.6517 7.25006 13.445 7.11195 13.2175 7.01773C12.99 6.9235 12.7462 6.875 12.5 6.875C12.2538 6.875 12.01 6.9235 11.7825 7.01773C11.555 7.11195 11.3483 7.25006 11.1742 7.42417C11.0001 7.59828 10.862 7.80498 10.7677 8.03247C10.6735 8.25995 10.625 8.50377 10.625 8.75C10.625 8.99623 10.6735 9.24005 10.7677 9.46753C10.862 9.69502 11.0001 9.90172 11.1742 10.0758C11.3483 10.2499 11.555 10.388 11.7825 10.4823C12.01 10.5765 12.2538 10.625 12.5 10.625ZM12.5 5C12.9925 5 13.4801 5.097 13.9351 5.28545C14.39 5.47391 14.8034 5.75013 15.1517 6.09835C15.4999 6.44657 15.7761 6.85997 15.9645 7.31494C16.153 7.76991 16.25 8.25754 16.25 8.75C16.25 9.24246 16.153 9.73009 15.9645 10.1851C15.7761 10.64 15.4999 11.0534 15.1517 11.4017C14.8034 11.7499 14.39 12.0261 13.9351 12.2145C13.4801 12.403 12.9925 12.5 12.5 12.5C12.0075 12.5 11.5199 12.403 11.0649 12.2145C10.61 12.0261 10.1966 11.7499 9.84835 11.4017C9.50013 11.0534 9.22391 10.64 9.03545 10.1851C8.847 9.73009 8.75 9.24246 8.75 8.75C8.75 8.25754 8.847 7.76991 9.03545 7.31494C9.22391 6.85997 9.50013 6.44657 9.84835 6.09835C10.1966 5.75013 10.61 5.47391 11.0649 5.28545C11.5199 5.097 12.0075 5 12.5 5ZM20 13.125C20 12.7812 20.2812 12.5 20.625 12.5H21.875C22.2188 12.5 22.5 12.7812 22.5 13.125V15H24.375C24.7188 15 25 15.2812 25 15.625V16.875C25 17.2188 24.7188 17.5 24.375 17.5H22.5V19.375C22.5 19.7188 22.2188 20 21.875 20H20.625C20.2812 20 20 19.7188 20 19.375V17.5H18.125C17.7812 17.5 17.5 17.2188 17.5 16.875V15.625C17.5 15.2812 17.7812 15 18.125 15H20V13.125Z" fill="#3FB213"/>
</g>
<defs>
<clipPath id="clip0_2962_1871">
<rect width="25" height="20" fill="white"/>
</clipPath>
</defs>
</svg>
