<svg width="20" height="20" viewBox="0 0 20 20" fill="none" xmlns="http://www.w3.org/2000/svg">
<g clip-path="url(#clip0_154_480)">
<path d="M7.49972 15.625C7.41746 15.6255 7.33592 15.6097 7.25978 15.5786C7.18363 15.5475 7.11437 15.5017 7.05597 15.4437C6.99739 15.3856 6.95089 15.3165 6.91916 15.2404C6.88743 15.1642 6.87109 15.0825 6.87109 15C6.87109 14.9175 6.88743 14.8358 6.91916 14.7596C6.95089 14.6835 6.99739 14.6143 7.05597 14.5562L11.6185 9.99999L7.05597 5.44374C6.93828 5.32605 6.87216 5.16643 6.87216 4.99999C6.87216 4.91758 6.88839 4.83598 6.91993 4.75984C6.95147 4.6837 6.99769 4.61452 7.05597 4.55624C7.11424 4.49797 7.18342 4.45174 7.25956 4.42021C7.3357 4.38867 7.41731 4.37244 7.49972 4.37244C7.66616 4.37244 7.82578 4.43855 7.94347 4.55624L12.9435 9.55624C13.002 9.61435 13.0485 9.68347 13.0803 9.75963C13.112 9.83579 13.1283 9.91749 13.1283 9.99999C13.1283 10.0825 13.112 10.1642 13.0803 10.2404C13.0485 10.3165 13.002 10.3856 12.9435 10.4437L7.94347 15.4437C7.88507 15.5017 7.81581 15.5475 7.73966 15.5786C7.66351 15.6097 7.58197 15.6255 7.49972 15.625Z" fill="#6C757D"/>
</g>
<defs>
<clipPath id="clip0_154_480">
<rect width="20" height="20" fill="white"/>
</clipPath>
</defs>
</svg>
