<svg width="20" height="20" viewBox="0 0 20 20" fill="none" xmlns="http://www.w3.org/2000/svg">
<g clip-path="url(#clip0_46_455)">
<path d="M5.58567 20.0001C4.32433 20.0001 3.10122 19.5414 2.14566 18.5859C1.22832 17.6685 0.731445 16.4454 0.731445 15.1459C0.731445 13.8463 1.22832 12.6232 2.14566 11.7058L12.5804 1.30929C13.3066 0.583048 14.224 0.23906 15.1795 0.277281C16.0969 0.315502 17.0142 0.735932 17.7404 1.46217C18.4285 2.15018 18.8489 3.06753 18.8871 3.98483C18.9253 4.94039 18.5814 5.85773 17.8933 6.58397L8.07015 16.3689C7.64972 16.7894 7.11458 17.0187 6.54123 17.0187C5.96788 17.0187 5.43278 16.7894 5.01231 16.3689C4.59188 15.9485 4.36252 15.4134 4.36252 14.84C4.36252 14.2667 4.59184 13.7316 5.01231 13.3111L11.663 6.66037C11.8159 6.50749 12.0452 6.50749 12.1982 6.66037C12.3511 6.81326 12.3511 7.04258 12.1982 7.1955L5.54745 13.8462C5.2799 14.1138 5.12702 14.4578 5.12702 14.84C5.12702 15.2222 5.2799 15.5662 5.54745 15.8338C6.08258 16.3689 6.99988 16.3689 7.53501 15.8338L17.32 6.04884C17.8551 5.51371 18.1609 4.78751 18.1227 4.06127C18.0844 3.33503 17.7404 2.60884 17.1671 2.03548C16.5937 1.46213 15.8675 1.11814 15.1413 1.07992C14.4151 1.0417 13.6889 1.30925 13.1537 1.8826L2.68079 12.2791C1.91634 13.0436 1.4959 14.0756 1.4959 15.184C1.4959 16.2925 1.91634 17.3245 2.68079 18.0889C4.28615 19.6943 6.88526 19.6943 8.4524 18.0889L18.8871 7.65423C19.04 7.50135 19.2693 7.50135 19.4223 7.65423C19.5752 7.80712 19.5751 8.03644 19.4223 8.18937L9.02571 18.5858C8.07015 19.5414 6.84704 20.0001 5.58567 20.0001Z" fill="#6C757D"/>
<path d="M5.31809 19.7324C4.05676 19.7324 2.83365 19.2737 1.87808 18.3182C0.96074 17.4008 0.463867 16.1777 0.463867 14.8782C0.463867 13.5786 0.96074 12.3555 1.87808 11.4382L12.3128 1.00343C13.0008 0.315413 13.9182 -0.0667962 14.9119 0.00964557C15.8293 0.0478665 16.7466 0.468296 17.4729 1.19453C18.1991 1.92077 18.5813 2.79989 18.6578 3.75545C18.696 4.71101 18.352 5.62835 17.664 6.35459L7.80257 16.1013C6.96167 16.9422 5.58567 16.9422 4.74477 16.1013C4.32434 15.6809 4.09498 15.1458 4.09498 14.5724C4.09498 13.999 4.3243 13.464 4.74477 13.0435L11.3955 6.39277C11.5484 6.23989 11.7777 6.23989 11.9306 6.39277C12.0836 6.54566 12.0835 6.77498 11.9306 6.9279L5.27987 13.5786C5.01232 13.8461 4.85943 14.1902 4.85943 14.5724C4.85943 14.9546 5.01232 15.2986 5.27987 15.5661C5.815 16.1013 6.7323 16.1013 7.26743 15.5661L17.0524 5.7812C17.5875 5.24607 17.8933 4.51987 17.8551 3.79363C17.8169 3.0674 17.4729 2.3412 16.8995 1.76785C16.3262 1.19449 15.6 0.850505 14.8737 0.812284C14.1475 0.774063 13.4213 1.04161 12.8862 1.61496L2.41318 12.0115C1.64872 12.7759 1.22829 13.8079 1.22829 14.9164C1.22829 16.0248 1.64872 17.0568 2.41318 17.8213C4.01853 19.4267 6.61764 19.4267 8.18478 17.8213L18.6195 7.3866C18.7724 7.23371 19.0017 7.23371 19.1546 7.3866C19.3075 7.53948 19.3075 7.7688 19.1546 7.92173L8.75813 18.3182C7.80257 19.2737 6.5412 19.7324 5.31809 19.7324Z" fill="#6C757D"/>
</g>
<defs>
<clipPath id="clip0_46_455">
<rect width="20" height="20" fill="white"/>
</clipPath>
</defs>
</svg>
