<svg width="20" height="16" viewBox="0 0 20 16" fill="none" xmlns="http://www.w3.org/2000/svg">
<path d="M9.09375 13.188C9.09375 12.4116 8.46387 11.7817 7.6875 11.7817H4.875C4.61719 11.7817 4.40625 11.5708 4.40625 11.3129V2.87508C4.40625 2.61726 4.61719 2.40631 4.875 2.40631H16.125C16.3828 2.40631 16.5938 2.61726 16.5938 2.87508V11.3129C16.5938 11.5708 16.3828 11.7817 16.125 11.7817H12.0615C11.7568 11.7817 11.4609 11.8813 11.2178 12.063L9.09375 13.6568V13.188ZM9.08789 15.4205L9.09375 15.4147L12.0615 13.188H16.125C17.1592 13.188 18 12.3472 18 11.3129V2.87508C18 1.84086 17.1592 1 16.125 1H4.875C3.84082 1 3 1.84086 3 2.87508V11.3129C3 12.3472 3.84082 13.188 4.875 13.188H6.28125H7.6875V14.5943V14.7115V14.7203V14.9078V15.5319C7.6875 15.7106 7.78711 15.8717 7.94531 15.9508C8.10352 16.0299 8.29395 16.0124 8.4375 15.9069L8.93848 15.5319L9.08789 15.4205ZM7.21875 8.03155C7.46739 8.03155 7.70585 7.93278 7.88166 7.75695C8.05748 7.58113 8.15625 7.34266 8.15625 7.09401C8.15625 6.84536 8.05748 6.60689 7.88166 6.43107C7.70585 6.25525 7.46739 6.15647 7.21875 6.15647C6.97011 6.15647 6.73165 6.25525 6.55584 6.43107C6.38002 6.60689 6.28125 6.84536 6.28125 7.09401C6.28125 7.34266 6.38002 7.58113 6.55584 7.75695C6.73165 7.93278 6.97011 8.03155 7.21875 8.03155ZM11.4375 7.09401C11.4375 6.84536 11.3387 6.60689 11.1629 6.43107C10.9871 6.25525 10.7486 6.15647 10.5 6.15647C10.2514 6.15647 10.0129 6.25525 9.83709 6.43107C9.66127 6.60689 9.5625 6.84536 9.5625 7.09401C9.5625 7.34266 9.66127 7.58113 9.83709 7.75695C10.0129 7.93278 10.2514 8.03155 10.5 8.03155C10.7486 8.03155 10.9871 7.93278 11.1629 7.75695C11.3387 7.58113 11.4375 7.34266 11.4375 7.09401ZM13.7812 8.03155C14.0299 8.03155 14.2683 7.93278 14.4442 7.75695C14.62 7.58113 14.7188 7.34266 14.7188 7.09401C14.7188 6.84536 14.62 6.60689 14.4442 6.43107C14.2683 6.25525 14.0299 6.15647 13.7812 6.15647C13.5326 6.15647 13.2942 6.25525 13.1183 6.43107C12.9425 6.60689 12.8438 6.84536 12.8438 7.09401C12.8438 7.34266 12.9425 7.58113 13.1183 7.75695C13.2942 7.93278 13.5326 8.03155 13.7812 8.03155Z" fill="#5B626A"/>
</svg>
