<svg width="25" height="24" viewBox="0 0 25 24" fill="none" xmlns="http://www.w3.org/2000/svg">
<path d="M5.75 18C3.95507 18 2.5 16.5449 2.5 14.75V6.25C2.5 4.45507 3.95507 3 5.75 3H19.25C21.0449 3 22.5 4.45507 22.5 6.25V14.75C22.5 16.5449 21.0449 18 19.25 18H13.5125L8.49868 21.7507C7.94585 22.1642 7.1625 22.0512 6.74901 21.4984C6.58736 21.2822 6.5 21.0196 6.5 20.7499L6.49921 18H5.75ZM13.0135 16.5H19.25C20.2165 16.5 21 15.7165 21 14.75V6.25C21 5.2835 20.2165 4.5 19.25 4.5H5.75C4.7835 4.5 4 5.2835 4 6.25V14.75C4 15.7165 4.7835 16.5 5.75 16.5H7.99879L7.999 17.2498L7.99986 20.2506L13.0135 16.5Z" fill="#6C757D"/>
</svg>
