<svg width="16" height="16" viewBox="0 0 16 16" fill="none" xmlns="http://www.w3.org/2000/svg">
<g clip-path="url(#clip0_109_446)">
<path d="M8 0C6.41775 0 4.87103 0.469192 3.55544 1.34824C2.23985 2.22729 1.21447 3.47672 0.608967 4.93853C0.00346629 6.40034 -0.15496 8.00887 0.153721 9.56072C0.462403 11.1126 1.22433 12.538 2.34315 13.6569C3.46197 14.7757 4.88743 15.5376 6.43928 15.8463C7.99113 16.155 9.59966 15.9965 11.0615 15.391C12.5233 14.7855 13.7727 13.7602 14.6518 12.4446C15.5308 11.129 16 9.58225 16 8C15.9976 5.87899 15.154 3.84554 13.6542 2.34576C12.1545 0.845978 10.121 0.0023645 8 0ZM11.138 10.1953C11.2017 10.2568 11.2525 10.3304 11.2874 10.4117C11.3223 10.4931 11.3407 10.5805 11.3415 10.6691C11.3423 10.7576 11.3254 10.8454 11.2919 10.9273C11.2584 11.0092 11.2089 11.0837 11.1463 11.1463C11.0837 11.2089 11.0092 11.2584 10.9273 11.2919C10.8454 11.3254 10.7576 11.3423 10.6691 11.3415C10.5805 11.3407 10.4931 11.3223 10.4117 11.2874C10.3304 11.2525 10.2568 11.2017 10.1953 11.138L8 8.94273L5.80467 11.138C5.67893 11.2594 5.51053 11.3266 5.33574 11.3251C5.16094 11.3236 4.99373 11.2535 4.87012 11.1299C4.74652 11.0063 4.67641 10.8391 4.67489 10.6643C4.67337 10.4895 4.74056 10.3211 4.862 10.1953L7.05727 8L4.862 5.80467C4.74056 5.67893 4.67337 5.51053 4.67489 5.33573C4.67641 5.16093 4.74652 4.99373 4.87012 4.87012C4.99373 4.74651 5.16094 4.6764 5.33574 4.67488C5.51053 4.67336 5.67893 4.74056 5.80467 4.862L8 7.05727L10.1953 4.862C10.3211 4.74056 10.4895 4.67336 10.6643 4.67488C10.8391 4.6764 11.0063 4.74651 11.1299 4.87012C11.2535 4.99373 11.3236 5.16093 11.3251 5.33573C11.3266 5.51053 11.2594 5.67893 11.138 5.80467L8.94274 8L11.138 10.1953Z" fill="white"/>
</g>
<defs>
<clipPath id="clip0_109_446">
<rect width="16" height="16" fill="white"/>
</clipPath>
</defs>
</svg>
