<svg width="20" height="20" viewBox="0 0 20 20" fill="none" xmlns="http://www.w3.org/2000/svg">
<path d="M14.5836 9.99983C17.115 9.99983 19.167 12.0518 19.167 14.5832C19.167 17.1144 17.115 19.1665 14.5836 19.1665C12.0524 19.1665 10.0003 17.1144 10.0003 14.5832C10.0003 12.0518 12.0524 9.99983 14.5836 9.99983ZM10.0189 11.6659C9.47962 12.5079 9.16695 13.509 9.16695 14.5832C9.16695 15.9532 9.6757 17.2046 10.5145 18.1586C9.84604 18.2759 9.11862 18.334 8.33362 18.334C5.92572 18.334 4.06005 17.7868 2.75766 16.6672C2.06714 16.0735 1.66992 15.2082 1.66992 14.2975V13.5414C1.66992 12.5059 2.50939 11.6664 3.54492 11.6664L10.0189 11.6659ZM12.5779 12.4717L12.5201 12.5199L12.472 12.5777C12.3735 12.7197 12.3735 12.9094 12.472 13.0515L12.5201 13.1092L13.9948 14.5837L12.5223 16.0561L12.4741 16.1137C12.3756 16.2558 12.3756 16.4455 12.4741 16.5876L12.5223 16.6453L12.58 16.6935C12.7221 16.7919 12.9118 16.7919 13.0539 16.6935L13.1115 16.6453L14.584 15.1729L16.0581 16.6472L16.1159 16.6954C16.258 16.7938 16.4476 16.7938 16.5897 16.6954L16.6474 16.6472L16.6956 16.5895C16.794 16.4474 16.794 16.2577 16.6956 16.1157L16.6474 16.0579L15.1731 14.5837L16.6497 13.1092L16.6979 13.0515C16.7964 12.9094 16.7964 12.7197 16.6979 12.5777L16.6497 12.52L16.592 12.4717C16.4499 12.3733 16.2602 12.3733 16.1181 12.4717L16.0605 12.52L14.584 13.9946L13.1094 12.5199L13.0517 12.4717C12.9299 12.3873 12.7731 12.3752 12.6414 12.4356L12.5779 12.4717ZM8.33362 1.67032C10.6348 1.67032 12.5003 3.5358 12.5003 5.83699C12.5003 8.13818 10.6348 10.0037 8.33362 10.0037C6.03245 10.0037 4.16697 8.13818 4.16697 5.83699C4.16697 3.5358 6.03245 1.67032 8.33362 1.67032Z" fill="#FF0000"/>
</svg>
