<svg width="18" height="18" viewBox="0 0 18 18" fill="none" xmlns="http://www.w3.org/2000/svg">
<path d="M8.5173 15.0254C8.36111 15.0255 8.20582 15.0018 8.05675 14.9551C7.41621 14.7551 7.00664 14.1943 7.01296 13.5271C7.01859 12.9171 6.90222 12.3845 6.66738 11.945C6.37945 11.4061 5.89992 10.9913 5.24179 10.7118C5.17787 10.6847 5.11991 10.6453 5.07121 10.5959C5.02251 10.5464 4.98402 10.4878 4.95796 10.4235C4.93189 10.3592 4.91875 10.2904 4.91928 10.221C4.91982 10.1515 4.93402 10.0829 4.96107 10.019C4.98812 9.95508 5.0275 9.89712 5.07696 9.84842C5.12642 9.79972 5.18498 9.76124 5.24931 9.73517C5.31364 9.7091 5.38247 9.69596 5.45188 9.69649C5.52128 9.69703 5.5899 9.71123 5.65382 9.73828C7.24992 10.4154 8.08453 11.7281 8.0673 13.5352C8.06772 13.6268 8.09726 13.7158 8.15166 13.7895C8.20605 13.8632 8.28247 13.9177 8.36988 13.9451C8.45728 13.9725 8.55113 13.9714 8.63786 13.942C8.72459 13.9125 8.79971 13.8562 8.85234 13.7812C9.84867 12.3149 8.97433 10.7005 8.96554 10.6843C8.92106 10.6041 8.8983 10.5136 8.89951 10.4218C8.90072 10.33 8.92587 10.2401 8.97245 10.1611C9.01904 10.082 9.08546 10.0164 9.16514 9.97091C9.24482 9.92537 9.33501 9.90141 9.42679 9.90141H14.4063C14.5366 9.89795 14.6603 9.84378 14.7512 9.75044C14.8421 9.6571 14.893 9.53195 14.893 9.40166C14.893 9.27137 14.8421 9.14622 14.7512 9.05288C14.6603 8.95954 14.5366 8.90537 14.4063 8.90191H13.6874C13.5475 8.90192 13.4134 8.84636 13.3145 8.74746C13.2156 8.64856 13.16 8.51443 13.16 8.37457C13.16 8.23471 13.2156 8.10058 13.3145 8.00168C13.4134 7.90279 13.5475 7.84723 13.6874 7.84723C13.753 7.84727 13.818 7.83438 13.8786 7.80929C13.9392 7.7842 13.9943 7.74741 14.0407 7.70101C14.0871 7.65461 14.1239 7.59952 14.149 7.53889C14.1741 7.47826 14.187 7.41327 14.1869 7.34766C14.1868 7.21522 14.1341 7.08826 14.0404 6.99461C13.9468 6.90097 13.8198 6.84827 13.6874 6.84809H12.9688C12.8289 6.84809 12.6948 6.79253 12.5959 6.69363C12.497 6.59474 12.4414 6.4606 12.4414 6.32074C12.4414 6.18088 12.497 6.04675 12.5959 5.94785C12.6948 5.84896 12.8289 5.7934 12.9688 5.7934C13.1013 5.7934 13.2283 5.74077 13.322 5.64708C13.4157 5.55339 13.4684 5.42632 13.4684 5.29383C13.4684 5.16133 13.4157 5.03427 13.322 4.94058C13.2283 4.84689 13.1013 4.79426 12.9688 4.79426H12.2498C12.11 4.79426 11.9758 4.7387 11.877 4.6398C11.7781 4.54091 11.7225 4.40677 11.7225 4.26691C11.7225 4.12705 11.7781 3.99292 11.877 3.89403C11.9758 3.79513 12.11 3.73957 12.2498 3.73957C12.3823 3.73957 12.5094 3.68694 12.6031 3.59325C12.6968 3.49956 12.7494 3.37249 12.7494 3.24C12.7494 3.10751 12.6968 2.98044 12.6031 2.88675C12.5094 2.79306 12.3823 2.74043 12.2498 2.74043H9.20355C8.73468 2.7398 8.26948 2.82314 7.83 2.98652L5.45695 3.86789C5.32941 3.90422 5.19287 3.89116 5.07453 3.83131C4.95619 3.77147 4.86474 3.66924 4.8184 3.54499C4.77206 3.42074 4.77424 3.28359 4.82449 3.16087C4.87474 3.03815 4.96939 2.93887 5.08957 2.88281L7.46261 2.00145C8.01951 1.79363 8.60914 1.6873 9.20355 1.6875H12.2498C12.5113 1.68798 12.7685 1.75437 12.9975 1.88053C13.2266 2.00669 13.4201 2.18856 13.5603 2.40931C13.7005 2.63007 13.7827 2.8826 13.7995 3.14356C13.8162 3.40452 13.7669 3.66548 13.6561 3.90234C14.0206 4.08288 14.2999 4.39895 14.4343 4.78288C14.5687 5.16681 14.5474 5.58808 14.375 5.95652C14.7394 6.13712 15.0186 6.45316 15.1529 6.837C15.2872 7.22084 15.2659 7.64199 15.0936 8.01035C15.408 8.1658 15.6606 8.42299 15.8103 8.74014C15.96 9.05728 15.998 9.41573 15.9182 9.75724C15.8384 10.0987 15.6455 10.4032 15.3707 10.6212C15.096 10.8392 14.7556 10.9578 14.4049 10.9579H10.1988C10.4368 11.7703 10.5936 13.0971 9.72492 14.3757C9.59294 14.5753 9.41357 14.7391 9.20284 14.8525C8.99211 14.9659 8.75659 15.0253 8.5173 15.0254Z" fill="#6C757D"/>
<path d="M5.44904 10.7525H2.43018C2.29032 10.7525 2.15618 10.697 2.05729 10.5981C1.95839 10.4992 1.90283 10.3651 1.90283 10.2252V2.99567C1.90283 2.85581 1.95839 2.72167 2.05729 2.62278C2.15618 2.52388 2.29032 2.46832 2.43018 2.46832H5.44904C5.5889 2.46832 5.72303 2.52388 5.82193 2.62278C5.92083 2.72167 5.97639 2.85581 5.97639 2.99567V10.2252C5.97639 10.3651 5.92083 10.4992 5.82193 10.5981C5.72303 10.697 5.5889 10.7525 5.44904 10.7525ZM2.95857 9.69785H4.9217V3.52301H2.95752L2.95857 9.69785Z" fill="#6C757D"/>
</svg>
