<svg width="30" height="30" viewBox="0 0 30 30" fill="none" xmlns="http://www.w3.org/2000/svg">
<path d="M14.9999 12.1875C13.4493 12.1875 12.1874 13.4494 12.1874 15C12.1874 16.5506 13.4493 17.8125 14.9999 17.8125C16.5506 17.8125 17.8124 16.5506 17.8124 15C17.8124 13.4494 16.5506 12.1875 14.9999 12.1875Z" fill="#6C757D"/>
<path d="M5.62488 12.1875C4.07428 12.1875 2.81238 13.4494 2.81238 15C2.81238 16.5506 4.07428 17.8125 5.62488 17.8125C7.17558 17.8125 8.43738 16.5506 8.43738 15C8.43738 13.4494 7.17558 12.1875 5.62488 12.1875Z" fill="#6C757D"/>
<path d="M24.3749 12.1875C22.8243 12.1875 21.5624 13.4494 21.5624 15C21.5624 16.5506 22.8243 17.8125 24.3749 17.8125C25.9256 17.8125 27.1874 16.5506 27.1874 15C27.1874 13.4494 25.9256 12.1875 24.3749 12.1875Z" fill="#6C757D"/>
</svg>
