<svg width="20" height="20" viewBox="0 0 20 20" fill="none" xmlns="http://www.w3.org/2000/svg">
<path d="M2.24161 5.58752C2.17641 5.43502 2.0533 5.31467 1.89936 5.25294C1.74543 5.19121 1.57327 5.19316 1.42077 5.25835C1.26827 5.32355 1.14792 5.44666 1.08619 5.6006C1.02446 5.75454 1.02641 5.92669 1.09161 6.07919L2.24161 5.58752ZM7.53411 11.4484C7.58075 11.3796 7.61322 11.3022 7.62961 11.2208C7.646 11.1393 7.64599 11.0554 7.62957 10.974C7.61315 10.8925 7.58066 10.8152 7.534 10.7464C7.48733 10.6777 7.42743 10.6189 7.35779 10.5736C7.28815 10.5283 7.21018 10.4973 7.12843 10.4825C7.04667 10.4677 6.96279 10.4693 6.88167 10.4873C6.80055 10.5053 6.72384 10.5392 6.656 10.5872C6.58817 10.6352 6.53058 10.6962 6.48661 10.7667L7.53411 11.4484ZM5.30911 12.5759C5.26435 12.6447 5.23359 12.7217 5.21858 12.8024C5.20357 12.8831 5.2046 12.966 5.22163 13.0463C5.25601 13.2085 5.35342 13.3505 5.49244 13.4409C5.63146 13.5312 5.80069 13.5627 5.96291 13.5283C6.04323 13.5113 6.11942 13.4786 6.18711 13.4322C6.2548 13.3857 6.31268 13.3264 6.35744 13.2575L5.30911 12.5759ZM18.9083 6.07919C18.9665 5.92822 18.9638 5.76056 18.901 5.61148C18.8381 5.46241 18.7198 5.34352 18.5711 5.27984C18.4224 5.21616 18.2547 5.21263 18.1034 5.27002C17.9522 5.3274 17.829 5.44121 17.7599 5.58752L18.9083 6.07919ZM16.6416 10.9667C16.6988 11.0281 16.7678 11.0773 16.8445 11.1115C16.9212 11.1457 17.0039 11.164 17.0878 11.1655C17.1718 11.167 17.2551 11.1516 17.3329 11.1201C17.4108 11.0887 17.4815 11.0419 17.5408 10.9826C17.6002 10.9232 17.6469 10.8525 17.6784 10.7747C17.7098 10.6969 17.7252 10.6135 17.7238 10.5296C17.7223 10.4457 17.7039 10.3629 17.6698 10.2862C17.6356 10.2096 17.5863 10.1406 17.5249 10.0834L16.6416 10.9667ZM9.37494 13.75C9.37494 13.9158 9.44079 14.0748 9.558 14.192C9.67521 14.3092 9.83418 14.375 9.99994 14.375C10.1657 14.375 10.3247 14.3092 10.4419 14.192C10.5591 14.0748 10.6249 13.9158 10.6249 13.75H9.37494ZM13.6424 13.2575C13.7328 13.3965 13.8748 13.494 14.037 13.5283C14.1992 13.5627 14.3684 13.5312 14.5074 13.4409C14.6465 13.3505 14.7439 13.2085 14.7783 13.0463C14.8126 12.8841 14.7812 12.7149 14.6908 12.5759L13.6424 13.2575ZM4.60911 9.71586C4.7194 9.59727 4.77935 9.44051 4.77635 9.27859C4.77334 9.11668 4.7076 8.96225 4.59298 8.84785C4.47836 8.73344 4.32381 8.66799 4.16189 8.66529C3.99996 8.66259 3.84331 8.72284 3.72494 8.83336L4.60827 9.71669L4.60911 9.71586ZM2.47494 10.0825C2.36454 10.201 2.30444 10.3577 2.30729 10.5196C2.31015 10.6815 2.37574 10.836 2.49026 10.9505C2.60477 11.0651 2.75925 11.1306 2.92117 11.1335C3.08309 11.1364 3.23979 11.0763 3.35827 10.9659L2.47494 10.0834V10.0825ZM9.99994 11.0417C7.31327 11.0417 5.38411 9.70419 4.10411 8.32502C3.56637 7.74288 3.09101 7.10608 2.68577 6.42502C2.53296 6.16884 2.39198 5.90579 2.26327 5.63669C2.25707 5.62312 2.25096 5.60951 2.24494 5.59586L2.24161 5.58752L2.24077 5.58669L1.66661 5.83336C1.47454 5.91463 1.28287 5.99602 1.09161 6.07919L1.09244 6.08002L1.09327 6.08252L1.09577 6.08752C1.10658 6.11211 1.11769 6.13655 1.12911 6.16086C1.2761 6.46931 1.43739 6.77075 1.61244 7.06419C1.95411 7.63919 2.47411 8.40586 3.18744 9.17502C4.61661 10.7125 6.85327 12.2917 9.99994 12.2917V11.0417ZM12.7608 10.5259C11.9524 10.845 11.0349 11.0417 9.99994 11.0417V12.2917C11.1983 12.2917 12.2708 12.0617 13.2183 11.6892L12.7608 10.5259ZM6.48661 10.7667L5.30911 12.5759L6.35744 13.2567L7.53411 11.4484L6.48661 10.7659V10.7667ZM18.3333 5.83336L17.7583 5.58669H17.7591V5.58835L17.7533 5.59919C17.7132 5.68703 17.6713 5.774 17.6274 5.86002C17.0579 6.96366 16.3069 7.9637 15.4058 8.81836L16.2608 9.73002C17.3338 8.71223 18.215 7.50975 18.8624 6.18002L18.8949 6.10919L18.9033 6.08919L18.9066 6.08336V6.08086L18.9074 6.08002L18.3333 5.83336ZM15.4058 8.81836C14.6891 9.49002 13.8116 10.1117 12.7608 10.5259L13.2183 11.6892C14.4458 11.2059 15.4558 10.4859 16.2608 9.73002L15.4058 8.81836ZM15.3916 9.71586L16.6416 10.9667L17.5249 10.0825L16.2749 8.83252L15.3916 9.71586ZM9.37494 11.6667V13.75H10.6249V11.6667H9.37494ZM12.4658 11.4484L13.6424 13.2575L14.6908 12.5759L13.5133 10.7667L12.4658 11.4484ZM3.72411 8.83169L2.47411 10.0817L3.35827 10.9659L4.60827 9.71669L3.72494 8.83336L3.72411 8.83169Z" fill="#ADB5BD"/>
</svg>
