<svg width="20" height="20" viewBox="0 0 20 20" fill="none" xmlns="http://www.w3.org/2000/svg">
<path d="M10.0001 7.50389C11.8411 7.50389 13.3335 8.99629 13.3335 10.8372C13.3335 12.6782 11.8411 14.1705 10.0001 14.1705C8.15919 14.1705 6.66681 12.6782 6.66681 10.8372C6.66681 8.99629 8.15919 7.50389 10.0001 7.50389ZM10.0001 8.75387C8.84956 8.75387 7.91681 9.68662 7.91681 10.8372C7.91681 11.9878 8.84956 12.9205 10.0001 12.9205C11.1507 12.9205 12.0835 11.9878 12.0835 10.8372C12.0835 9.68662 11.1507 8.75387 10.0001 8.75387ZM10.0001 4.58337C13.8447 4.58337 17.1636 7.20838 18.0844 10.887C18.1682 11.2219 17.9647 11.5613 17.6299 11.6451C17.2951 11.7289 16.9556 11.5255 16.8718 11.1905C16.0894 8.06501 13.268 5.83337 10.0001 5.83337C6.73092 5.83337 3.90855 8.06692 3.12752 11.1944C3.04388 11.5292 2.7046 11.7329 2.36971 11.6493C2.03482 11.5656 1.83113 11.2264 1.91477 10.8915C2.83401 7.21064 6.15387 4.58337 10.0001 4.58337Z" fill="#000200"/>
</svg>
