<svg width="20" height="20" viewBox="0 0 20 20" fill="#FF0000" xmlns="http://www.w3.org/2000/svg">
<path d="M10 17.84C10 17.84 1 12.8 1 6.68001C1 5.59811 1.37484 4.54962 2.06076 3.71294C2.74667 2.87626 3.70128 2.30307 4.76218 2.09089C5.82307 1.87871 6.92471 2.04065 7.87966 2.54916C8.83461 3.05767 9.58388 3.88133 10 4.88001C10.4161 3.88133 11.1654 3.05767 12.1203 2.54916C13.0753 2.04065 14.1769 1.87871 15.2378 2.09089C16.2987 2.30307 17.2533 2.87626 17.9392 3.71294C18.6252 4.54962 19 5.59811 19 6.68001C19 12.8 10 17.84 10 17.84Z" stroke="#FF0000" stroke-width="1.5" stroke-linecap="round" stroke-linejoin="round"/>
</svg>
