<svg width="24" height="24" viewBox="0 0 24 24" fill="none" xmlns="http://www.w3.org/2000/svg">
<path fill-rule="evenodd" clip-rule="evenodd" d="M8.68397 14.448C10.5498 14.0865 12.5471 14.1676 14.1633 15.1316C14.3903 15.267 14.6031 15.4357 14.7888 15.6442C15.1646 16.0664 15.3588 16.5911 15.3679 17.1172C15.5592 16.9938 15.7508 16.8568 15.9454 16.7098L17.7526 15.3446C18.6572 14.6613 19.9718 14.6612 20.8765 15.3443C21.7125 15.9755 22.0457 17.1083 21.4473 18.0675C21.022 18.7493 20.3815 19.6922 19.7296 20.296C19.0707 20.9063 18.1329 21.4194 17.4236 21.7618C16.5621 22.1776 15.6316 22.4075 14.7269 22.5539C12.8777 22.8532 10.9535 22.8074 9.12505 22.4308C8.19064 22.2382 7.21961 22.1382 6.25999 22.1382H4.00006C3.58585 22.1382 3.25006 21.8024 3.25006 21.3882C3.25006 20.974 3.58585 20.6382 4.00006 20.6382H6.25999C7.3221 20.6382 8.39454 20.7487 9.42772 20.9616C11.0798 21.302 12.8202 21.343 14.4872 21.0732C15.3161 20.939 16.0901 20.7398 16.7715 20.4109C17.4549 20.081 18.2233 19.6466 18.7104 19.1955C19.2029 18.7393 19.7541 17.9477 20.1747 17.2736C20.3016 17.0701 20.284 16.7765 19.9727 16.5414C19.6029 16.2622 19.0264 16.2623 18.6567 16.5415L16.8496 17.9067C16.1281 18.4516 15.2402 19.0347 14.1388 19.2103C14.0276 19.2281 13.9119 19.2443 13.7918 19.2586C13.7345 19.2689 13.6749 19.2758 13.6133 19.2781C13.051 19.334 12.3998 19.347 11.6813 19.2791C11.2689 19.2402 10.9662 18.8743 11.0051 18.4619C11.0441 18.0495 11.41 17.7468 11.8223 17.7858C12.4498 17.845 13.0127 17.8319 13.4903 17.7829C13.5 17.7819 13.5096 17.7809 13.5192 17.7799C13.5392 17.7683 13.5697 17.7472 13.6096 17.7122C13.9291 17.4334 13.9576 16.9665 13.6684 16.6416C13.5951 16.5593 13.5049 16.4854 13.3949 16.4198C12.2138 15.7153 10.6363 15.5976 8.96927 15.9206C7.31174 16.2417 5.66497 16.9815 4.43392 17.8545C4.09604 18.0941 3.6279 18.0144 3.38828 17.6766C3.14867 17.3387 3.22833 16.8706 3.5662 16.6309C4.96457 15.6393 6.80866 14.8113 8.68397 14.448Z" fill="#38B000"/>
<path d="M13.4321 4.49289L13.4319 4.49348C13.3846 4.63474 13.2827 4.75081 13.1495 4.81699C13.0164 4.88312 12.8625 4.89438 12.7212 4.84851C12.5798 4.80261 12.4618 4.70295 12.3939 4.57042C12.374 4.5315 12.3589 4.49073 12.3488 4.44897C12.1384 4.53801 11.9483 4.66955 11.7914 4.83598C11.5718 5.06896 11.4268 5.36004 11.3739 5.67293L11.3739 5.67293L11.1798 6.82304L11.1662 6.90331L11.1005 6.9513L10.8649 7.12319L13.4321 4.49289ZM13.4321 4.49289C13.4441 4.45657 13.4565 4.42039 13.4694 4.38436C13.7382 4.46295 13.9829 4.60791 14.1797 4.80631C14.4153 5.04375 14.5709 5.34629 14.6261 5.67293C14.6261 5.67294 14.6261 5.67294 14.6261 5.67295L14.8202 6.82304L14.8338 6.90308L14.8992 6.95106L15.1349 7.12376L15.1352 7.12399M13.4321 4.49289L15.1352 7.12399M15.1352 7.12399C15.748 7.57129 16.0727 8.16697 16.0727 8.77539C16.0727 9.97125 14.7754 11.0834 13 11.0834C11.2246 11.0834 9.92727 9.97125 9.92727 8.77539C9.92727 8.16702 10.252 7.57133 10.8648 7.12328L15.1352 7.12399ZM13.0188 2.79991C12.9287 2.93011 12.8441 3.06662 12.7652 3.21058C12.1719 3.26009 11.609 3.49671 11.161 3.88738C10.6842 4.30311 10.3665 4.86815 10.2617 5.48807L10.2617 5.48823L10.1295 6.27415C9.31971 6.89274 8.8 7.7789 8.8 8.77539C8.8 10.7046 10.7225 12.2 13 12.2C15.2775 12.2 17.2 10.7046 17.2 8.77539C17.2 7.77897 16.681 6.89276 15.8705 6.2741L15.7383 5.48823L15.7383 5.48804C15.6506 4.96999 15.4139 4.48802 15.0565 4.09936C14.7613 3.7783 14.3942 3.53209 13.9862 3.37918C14.171 3.12579 14.3596 2.9498 14.5483 2.83915C14.6119 2.80193 14.6676 2.75263 14.7121 2.69392C14.7567 2.63521 14.7892 2.56826 14.8076 2.49687C14.8261 2.42547 14.8301 2.35114 14.8194 2.27818L14.6215 2.30719L14.8194 2.27818C14.8087 2.20522 14.7835 2.13518 14.7455 2.07205C14.7074 2.00893 14.6572 1.95402 14.5979 1.91032C14.5386 1.86664 14.4713 1.835 14.3998 1.81709C14.3284 1.79917 14.2542 1.7953 14.1813 1.80568C14.1084 1.81605 14.0381 1.84048 13.9746 1.87769L13.9744 1.8778C13.6133 2.08969 13.2966 2.4015 13.0192 2.7994L13.0188 2.79991Z" fill="#38B000" stroke="#38B000" stroke-width="0.4"/>
</svg>
