<svg width="21" height="21" viewBox="0 0 21 21" fill="none" xmlns="http://www.w3.org/2000/svg">
<path fill-rule="evenodd" clip-rule="evenodd" d="M7.73681 12.54C9.29166 12.2387 10.9561 12.3063 12.3029 13.1097C12.4921 13.2225 12.6694 13.3631 12.8242 13.5368C13.1373 13.8887 13.2992 14.3259 13.3067 14.7643C13.4662 14.6615 13.6258 14.5473 13.788 14.4248L15.294 13.2872C16.0478 12.7177 17.1433 12.7177 17.8972 13.2869C18.5939 13.8129 18.8716 14.7569 18.3729 15.5562C18.0185 16.1244 17.4847 16.9102 16.9415 17.4133C16.3924 17.9219 15.6109 18.3495 15.0198 18.6348C14.3019 18.9813 13.5265 19.1729 12.7726 19.2949C11.2316 19.5443 9.62808 19.5062 8.10437 19.1923C7.3257 19.0318 6.51651 18.9485 5.71682 18.9485H3.83355C3.48837 18.9485 3.20855 18.6687 3.20855 18.3235C3.20855 17.9783 3.48837 17.6985 3.83355 17.6985H5.71682C6.60191 17.6985 7.49561 17.7906 8.3566 17.968C9.73333 18.2517 11.1837 18.2858 12.5728 18.061C13.2636 17.9492 13.9086 17.7832 14.4764 17.5091C15.0459 17.2342 15.6862 16.8722 16.0922 16.4962C16.5026 16.1161 16.9619 15.4564 17.3124 14.8947C17.4182 14.7251 17.4035 14.4804 17.1441 14.2845C16.8359 14.0518 16.3555 14.0519 16.0474 14.2846L14.5415 15.4222C13.9402 15.8763 13.2003 16.3622 12.2825 16.5086C12.1898 16.5234 12.0934 16.5369 11.9933 16.5488C11.9456 16.5574 11.8959 16.5632 11.8446 16.5651C11.376 16.6117 10.8333 16.6225 10.2346 16.5659C9.89091 16.5335 9.63866 16.2286 9.67108 15.8849C9.70358 15.5412 10.0085 15.289 10.3521 15.3215C10.875 15.3708 11.3441 15.3599 11.7421 15.3191C11.7502 15.3182 11.7582 15.3174 11.7662 15.3166C11.7828 15.3069 11.8082 15.2893 11.8415 15.2602C12.1077 15.0278 12.1315 14.6387 11.8905 14.368C11.8294 14.2994 11.7542 14.2378 11.6626 14.1832C10.6783 13.5961 9.36375 13.498 7.97456 13.7672C6.59328 14.0347 5.22097 14.6512 4.1951 15.3787C3.91353 15.5784 3.52342 15.512 3.32373 15.2305C3.12406 14.9489 3.19044 14.5588 3.472 14.3591C4.63731 13.5327 6.17405 12.8427 7.73681 12.54Z" fill="#6C757D"/>
<path d="M10.3271 2.80629C10.4117 2.64773 10.503 2.49844 10.6011 2.35684L10.6012 2.35658C10.8723 1.96774 11.179 1.66709 11.525 1.46404L11.5251 1.46399C11.5774 1.43336 11.6353 1.41323 11.6954 1.40468L10.3271 2.80629ZM10.3271 2.80629C9.7352 2.8439 9.17199 3.07446 8.72672 3.46275C8.26722 3.86343 7.96121 4.40779 7.86031 5.00474L7.86029 5.00482L7.72153 5.82994C6.9135 6.43443 6.4 7.30323 6.4 8.27539C6.4 10.1304 8.25651 11.6 10.5 11.6C12.7435 11.6 14.6 10.1304 14.6 8.27539C14.6 7.30326 14.0872 6.43445 13.2785 5.82991L13.1397 5.00482L13.1397 5.00472C13.0553 4.50586 12.8272 4.04157 12.4829 3.66704C12.1692 3.32582 11.771 3.07219 11.3285 2.9302C11.3406 2.91225 11.3528 2.89441 11.3652 2.87668L11.3653 2.87653C11.5682 2.58532 11.7801 2.38049 11.9978 2.25285C11.9978 2.25284 11.9978 2.25283 11.9978 2.25282L10.3271 2.80629ZM10.8371 3.96147C10.859 3.89533 10.8823 3.82967 10.9071 3.76452C11.2274 3.84007 11.52 4.00328 11.7507 4.23588C12.0007 4.48787 12.166 4.80915 12.2247 5.15629C12.2247 5.15629 12.2247 5.15629 12.2247 5.15629L12.4188 6.3064L12.4256 6.34642L12.4583 6.37041L12.694 6.5431L12.6941 6.54322C13.3274 7.00549 13.6727 7.62901 13.6727 8.27539C13.6727 9.54834 12.3059 10.6834 10.5 10.6834C8.69412 10.6834 7.32727 9.54834 7.32727 8.27539C7.32727 7.62902 7.67255 7.00547 8.30592 6.54246L8.5415 6.37052L8.57437 6.34653L8.58115 6.3064L8.77533 5.15629L8.77533 5.15628C8.83146 4.82377 8.98554 4.51465 9.21864 4.26738C9.41532 4.05876 9.66095 3.90193 9.93307 3.81005C9.93179 3.88394 9.9486 3.95773 9.98296 4.02486C10.0386 4.13355 10.1355 4.21558 10.252 4.2534C10.3685 4.2912 10.4954 4.2819 10.605 4.22744C10.7147 4.17295 10.7983 4.07753 10.837 3.96176L10.8371 3.96147Z" fill="#6C757D" stroke="#6C757D" stroke-width="0.2"/>
</svg>
