<svg width="20" height="20" viewBox="0 0 20 20" fill="none" xmlns="http://www.w3.org/2000/svg">
<path d="M18.6251 10.2013C18.6251 9.60627 18.5763 9.00877 18.4738 8.42377H10.1738V11.7925H14.9263C14.8283 12.3316 14.6219 12.8452 14.3195 13.3022C14.0172 13.7592 13.6253 14.1501 13.1676 14.4513V16.6388H16.0038C17.6688 15.1138 18.6251 12.8638 18.6251 10.2013Z" fill="#4285F4"/>
<path d="M10.175 18.75C12.5475 18.75 14.5487 17.975 16.0063 16.6375L13.1712 14.4512C12.3825 14.985 11.3638 15.2875 10.1775 15.2875C7.8825 15.2875 5.93625 13.7475 5.2375 11.6775H2.3125V13.9312C3.0495 15.3828 4.17448 16.6016 5.56246 17.4522C6.95044 18.3029 8.54708 18.7521 10.175 18.75Z" fill="#34A853"/>
<path d="M5.23383 11.6775C4.86522 10.5912 4.86522 9.41373 5.23383 8.32748V6.07373H2.31133C1.69589 7.29192 1.37524 8.63765 1.37524 10.0025C1.37524 11.3673 1.69589 12.713 2.31133 13.9312L5.23383 11.6775Z" fill="#FBBC04"/>
<path d="M10.175 4.71252C11.4283 4.6922 12.6397 5.16332 13.55 6.02502L16.0625 3.52627C14.4657 2.03885 12.3571 1.22405 10.175 1.25127C8.54663 1.24921 6.94961 1.69887 5.56153 2.55025C4.17346 3.40163 3.04876 4.62135 2.3125 6.07377L5.2325 8.32502C5.9275 6.25252 7.8775 4.71252 10.1725 4.71252H10.175Z" fill="#EA4335"/>
</svg>
