<svg width="20" height="20" viewBox="0 0 20 20" fill="none" xmlns="http://www.w3.org/2000/svg">
<g clip-path="url(#clip0_2937_1913)">
<path d="M15.162 9.62348C14.4987 9.1316 13.857 8.65813 13.2972 8.27328C13.2465 8.2384 13.1894 8.21385 13.1292 8.20103C13.069 8.18821 13.0068 8.18738 12.9463 8.19858C12.8858 8.20978 12.828 8.23279 12.7764 8.2663C12.7247 8.29981 12.6802 8.34317 12.6453 8.39389C12.6104 8.44461 12.5859 8.5017 12.5731 8.56191C12.5603 8.62212 12.5594 8.68426 12.5706 8.74479C12.5818 8.80532 12.6048 8.86305 12.6384 8.91469C12.6719 8.96633 12.7152 9.01086 12.7659 9.04574C13.1699 9.32359 13.6214 9.65121 14.0945 9.99996C12.1459 11.4355 11.0152 12.1829 9.99492 12.1829H9.99074C9.61688 12.1821 9.2268 12.0792 8.78527 11.8775L9.29902 11.3637C9.58782 11.5125 9.91643 11.5657 10.2374 11.5156C10.5584 11.4655 10.8552 11.3147 11.0849 11.085C11.3146 10.8553 11.4654 10.5585 11.5155 10.2375C11.5656 9.91654 11.5124 9.58794 11.3636 9.29914L13.1474 7.51562C13.2341 7.42748 13.2825 7.30863 13.282 7.18497C13.2815 7.06131 13.2322 6.94286 13.1447 6.85542C13.0573 6.76798 12.9388 6.71864 12.8152 6.71813C12.6915 6.71763 12.5727 6.76601 12.4845 6.85273L11.9127 7.42457C10.7759 6.86434 9.6752 6.78762 8.55426 7.18953C7.52691 7.55789 6.60184 8.27129 5.62242 9.02656C5.36758 9.22309 5.10406 9.42633 4.83797 9.62363C4.77917 9.66724 4.7314 9.724 4.69848 9.78939C4.66557 9.85477 4.64843 9.92695 4.64843 10.0002C4.64843 10.0734 4.66557 10.1455 4.69848 10.2109C4.7314 10.2763 4.77917 10.3331 4.83797 10.3767C5.79797 11.0887 6.57496 11.6579 7.2475 12.0897L6.85254 12.4844C6.80882 12.5279 6.77411 12.5795 6.7504 12.6365C6.72668 12.6934 6.71443 12.7544 6.71435 12.8161C6.71427 12.8778 6.72636 12.9388 6.74992 12.9958C6.77348 13.0528 6.80805 13.1046 6.85166 13.1482C6.89526 13.1918 6.94704 13.2264 7.00403 13.2499C7.06101 13.2735 7.12209 13.2856 7.18375 13.2855C7.24542 13.2854 7.30646 13.2731 7.36338 13.2494C7.4203 13.2257 7.47199 13.191 7.51547 13.1473L8.08242 12.5805C8.77238 12.941 9.36758 13.1191 9.98898 13.1204H9.99523C11.3969 13.1204 12.7321 12.1786 15.162 10.3765C15.2208 10.3329 15.2686 10.2762 15.3015 10.2108C15.3344 10.1454 15.3516 10.0732 15.3516 10C15.3516 9.9268 15.3344 9.85461 15.3015 9.78923C15.2686 9.72385 15.2208 9.66708 15.162 9.62348ZM9.40813 9.92887C9.42423 9.79638 9.48426 9.67312 9.57863 9.57875C9.673 9.48438 9.79627 9.42435 9.92875 9.40824L9.40813 9.92887ZM10.0711 10.5918L10.5917 10.0711C10.5756 10.2036 10.5156 10.3269 10.4212 10.4212C10.3269 10.5156 10.2036 10.5756 10.0711 10.5918H10.0711ZM5.89988 9.99609C5.99939 9.91977 6.09772 9.84408 6.19488 9.76902C7.92055 8.43832 9.31066 7.36668 11.2039 8.1334L10.7008 8.63645C10.412 8.48767 10.0834 8.4345 9.76245 8.4846C9.44147 8.5347 9.14472 8.68549 8.915 8.9152C8.68528 9.14491 8.53449 9.44167 8.48438 9.76264C8.43427 10.0836 8.48744 10.4122 8.63621 10.701L7.9282 11.4091C7.35727 11.0556 6.69727 10.5834 5.89988 9.99609ZM17.3164 0H2.68359C1.97211 0.000806428 1.28999 0.2838 0.786897 0.786897C0.2838 1.28999 0.000806428 1.97211 0 2.68359L0 17.3164C0.000806428 18.0279 0.2838 18.71 0.786897 19.2131C1.28999 19.7162 1.97211 19.9992 2.68359 20H17.3164C18.0279 19.9992 18.71 19.7162 19.2131 19.2131C19.7162 18.71 19.9992 18.0279 20 17.3164V2.68359C19.9992 1.97211 19.7162 1.28999 19.2131 0.786897C18.71 0.2838 18.0279 0.000806428 17.3164 0ZM19.0625 17.3164C19.062 17.7793 18.8778 18.2232 18.5505 18.5505C18.2232 18.8778 17.7793 19.062 17.3164 19.0625H2.68359C2.22066 19.062 1.77684 18.8778 1.4495 18.5505C1.12216 18.2232 0.938027 17.7793 0.9375 17.3164V2.68359C0.938027 2.22066 1.12216 1.77684 1.4495 1.4495C1.77684 1.12216 2.22066 0.938027 2.68359 0.9375H17.3164C17.7793 0.938027 18.2232 1.12216 18.5505 1.4495C18.8778 1.77684 19.062 2.22066 19.0625 2.68359V17.3164Z" fill="#6C757D"/>
</g>
<defs>
<clipPath id="clip0_2937_1913">
<rect width="20" height="20" fill="white"/>
</clipPath>
</defs>
</svg>
