<svg width="23" height="20" viewBox="0 0 23 20" fill="none" xmlns="http://www.w3.org/2000/svg">
<g clip-path="url(#clip0_2960_1863)">
<path d="M10.6447 0.222656C10.9963 -0.0742188 11.508 -0.0742188 11.8596 0.222656L22.1721 8.97266C22.5666 9.30859 22.6174 9.89844 22.2815 10.293C21.9455 10.6875 21.3557 10.7344 20.9612 10.4023L20.0002 9.58984V16.875C20.0002 18.6016 18.6018 20 16.8752 20H5.62522C3.89865 20 2.50022 18.6016 2.50022 16.875V9.58984L1.54318 10.4023C1.14865 10.7383 0.554903 10.6875 0.222872 10.293C-0.109159 9.89844 -0.0622843 9.30469 0.332247 8.97266L10.6447 0.222656ZM11.2502 2.16797L4.37522 8V16.875C4.37522 17.5664 4.93381 18.125 5.62522 18.125H7.50022V12.1875C7.50022 11.3242 8.19943 10.625 9.06272 10.625H13.4377C14.301 10.625 15.0002 11.3242 15.0002 12.1875V18.125H16.8752C17.5666 18.125 18.1252 17.5664 18.1252 16.875V8L11.2502 2.16797ZM9.37522 18.125H13.1252V12.5H9.37522V18.125Z" fill="#5B626A"/>
</g>
<defs>
<clipPath id="clip0_2960_1863">
<rect width="22.5" height="20" fill="white"/>
</clipPath>
</defs>
</svg>
