<svg width="20" height="20" viewBox="0 0 20 20" fill="none" xmlns="http://www.w3.org/2000/svg">
<path d="M2.5 2.5C1.80859 2.5 1.25 3.05859 1.25 3.75V12.8672L3.89453 10.2227C4.50391 9.61328 5.49219 9.61328 6.10547 10.2227L8.75 12.8672L13.8945 7.72266C14.5039 7.11328 15.4922 7.11328 16.1055 7.72266L18.75 10.3672V3.75C18.75 3.05859 18.1914 2.5 17.5 2.5H2.5ZM1.25 14.6328V16.25C1.25 16.9414 1.80859 17.5 2.5 17.5H4.11719L7.86719 13.75L5.22266 11.1055C5.10156 10.9844 4.90234 10.9844 4.78125 11.1055L1.25 14.6328ZM15.2227 8.60547C15.1016 8.48438 14.9023 8.48438 14.7812 8.60547L5.88281 17.5H17.5C18.1914 17.5 18.75 16.9414 18.75 16.25V12.1328L15.2227 8.60547ZM0 3.75C0 2.37109 1.12109 1.25 2.5 1.25H17.5C18.8789 1.25 20 2.37109 20 3.75V16.25C20 17.6289 18.8789 18.75 17.5 18.75H2.5C1.12109 18.75 0 17.6289 0 16.25V3.75ZM6.25 5.625C6.25 5.45924 6.18415 5.30027 6.06694 5.18306C5.94973 5.06585 5.79076 5 5.625 5C5.45924 5 5.30027 5.06585 5.18306 5.18306C5.06585 5.30027 5 5.45924 5 5.625C5 5.79076 5.06585 5.94973 5.18306 6.06694C5.30027 6.18415 5.45924 6.25 5.625 6.25C5.79076 6.25 5.94973 6.18415 6.06694 6.06694C6.18415 5.94973 6.25 5.79076 6.25 5.625ZM3.75 5.625C3.75 5.12772 3.94754 4.65081 4.29917 4.29917C4.65081 3.94754 5.12772 3.75 5.625 3.75C6.12228 3.75 6.59919 3.94754 6.95083 4.29917C7.30246 4.65081 7.5 5.12772 7.5 5.625C7.5 6.12228 7.30246 6.59919 6.95083 6.95083C6.59919 7.30246 6.12228 7.5 5.625 7.5C5.12772 7.5 4.65081 7.30246 4.29917 6.95083C3.94754 6.59919 3.75 6.12228 3.75 5.625Z" fill="#5B626A"/>
</svg>
