<svg width="18" height="18" viewBox="0 0 18 18" fill="none" xmlns="http://www.w3.org/2000/svg">
<path d="M12.2498 15.2121H9.2035C8.60915 15.2126 8.01952 15.1067 7.46256 14.8992L5.08951 14.0178C4.95954 13.9683 4.8544 13.8694 4.797 13.7427C4.7396 13.616 4.73458 13.4718 4.78303 13.3414C4.83148 13.211 4.92949 13.105 5.0557 13.0466C5.18191 12.9881 5.32611 12.9819 5.4569 13.0293L7.82959 13.9106C8.26921 14.074 8.73451 14.1573 9.2035 14.1567H12.2498C12.3823 14.1567 12.5093 14.1041 12.603 14.0104C12.6967 13.9167 12.7494 13.7896 12.7494 13.6571C12.7494 13.5246 12.6967 13.3976 12.603 13.3039C12.5093 13.2102 12.3823 13.1576 12.2498 13.1576C12.1099 13.1576 11.9758 13.102 11.8769 13.0031C11.778 12.9042 11.7224 12.7701 11.7224 12.6302C11.7224 12.4904 11.778 12.3562 11.8769 12.2573C11.9758 12.1584 12.1099 12.1029 12.2498 12.1029H12.9687C13.1012 12.1029 13.2283 12.0503 13.322 11.9566C13.4157 11.8629 13.4683 11.7358 13.4683 11.6033C13.4683 11.4708 13.4157 11.3438 13.322 11.2501C13.2283 11.1564 13.1012 11.1037 12.9687 11.1037C12.8289 11.1037 12.6947 11.0482 12.5958 10.9493C12.4969 10.8504 12.4414 10.7163 12.4414 10.5764C12.4414 10.4365 12.4969 10.3024 12.5958 10.2035C12.6947 10.1046 12.8289 10.0491 12.9687 10.0491H13.6873C13.7862 10.0491 13.8828 10.0198 13.9649 9.96491C14.0471 9.91002 14.1112 9.83198 14.149 9.74068C14.1868 9.64938 14.1967 9.54891 14.1774 9.45199C14.1581 9.35506 14.1105 9.26603 14.0406 9.19617C13.9944 9.14958 13.9393 9.11265 13.8787 9.08755C13.818 9.06244 13.753 9.04965 13.6873 9.04992C13.5475 9.04992 13.4133 8.99436 13.3144 8.89546C13.2155 8.79656 13.16 8.66243 13.16 8.52257C13.16 8.38271 13.2155 8.24858 13.3144 8.14968C13.4133 8.05079 13.5475 7.99523 13.6873 7.99523H14.4063C14.5049 7.99491 14.6013 7.96538 14.6832 7.91035C14.7651 7.85533 14.8289 7.77728 14.8665 7.68604C14.9041 7.59481 14.9139 7.49449 14.8945 7.39773C14.8752 7.30097 14.8276 7.2121 14.7578 7.14234C14.7118 7.09591 14.657 7.05906 14.5967 7.03389C14.5364 7.00873 14.4716 6.99577 14.4063 6.99574H9.42674C9.33497 6.99585 9.24476 6.97201 9.16503 6.92658C9.0853 6.88115 9.0188 6.8157 8.97211 6.7367C8.92542 6.6577 8.90015 6.56788 8.8988 6.47613C8.89746 6.38437 8.92008 6.29385 8.96444 6.21351C9.12464 5.88848 9.23374 5.54068 9.28787 5.18238C9.40705 4.41351 9.2601 3.71847 8.85123 3.1166C8.7986 3.04163 8.72349 2.98535 8.63675 2.95589C8.55002 2.92643 8.45617 2.92532 8.36877 2.95272C8.28137 2.98012 8.20494 3.03461 8.15055 3.10831C8.09616 3.18201 8.06661 3.27109 8.06619 3.36269C8.08342 5.16902 7.24881 6.48175 5.65272 7.15956C5.58872 7.18819 5.51967 7.20376 5.44959 7.20538C5.3795 7.207 5.3098 7.19463 5.24456 7.16899C5.17931 7.14335 5.11983 7.10496 5.0696 7.05607C5.01936 7.00718 4.97938 6.94876 4.95199 6.88423C4.9246 6.8197 4.91035 6.75036 4.91007 6.68026C4.9098 6.61016 4.9235 6.54071 4.95038 6.47596C4.97726 6.41122 5.01678 6.35249 5.06663 6.3032C5.11647 6.25391 5.17565 6.21505 5.24069 6.1889C5.89881 5.90765 6.37834 5.49457 6.66627 4.95562C6.90112 4.51582 7.01783 3.98355 7.01186 3.37359C7.00658 2.70703 7.41756 2.14453 8.0567 1.94554C8.69584 1.74656 9.3508 1.97296 9.72487 2.52421C10.5936 3.80249 10.4368 5.12929 10.1988 5.94175H14.4063C14.757 5.9418 15.0974 6.06045 15.3721 6.27842C15.6468 6.49639 15.8398 6.80087 15.9196 7.14237C15.9994 7.48387 15.9613 7.84232 15.8116 8.15947C15.6619 8.47661 15.4094 8.73381 15.095 8.88925C15.2673 9.25761 15.2885 9.67877 15.1542 10.0626C15.0199 10.4464 14.7407 10.7625 14.3764 10.9431C14.5488 11.3115 14.57 11.7328 14.4357 12.1167C14.3013 12.5007 14.0219 12.8167 13.6574 12.9973C13.7684 13.2341 13.8179 13.4951 13.8013 13.7562C13.7846 14.0172 13.7024 14.2698 13.5622 14.4906C13.422 14.7114 13.2283 14.8933 12.9992 15.0194C12.77 15.1455 12.5128 15.2118 12.2512 15.2121H12.2498Z" fill="#6C757D"/>
<path d="M5.44904 14.4313H2.43018C2.29032 14.4313 2.15618 14.3757 2.05729 14.2768C1.95839 14.1779 1.90283 14.0438 1.90283 13.9039V6.67476C1.90283 6.5349 1.95839 6.40077 2.05729 6.30187C2.15618 6.20297 2.29032 6.14742 2.43018 6.14742H5.44904C5.5889 6.14742 5.72303 6.20297 5.82193 6.30187C5.92083 6.40077 5.97639 6.5349 5.97639 6.67476V13.9039C5.97639 14.0438 5.92083 14.1779 5.82193 14.2768C5.72303 14.3757 5.5889 14.4313 5.44904 14.4313ZM2.95857 13.3766H4.9217V7.2021H2.95752L2.95857 13.3766Z" fill="#6C757D"/>
</svg>
