<svg width="18" height="19" viewBox="0 0 18 19" fill="none" xmlns="http://www.w3.org/2000/svg">
<path d="M8.60056 17.0001C8.40564 16.9984 8.21322 16.956 8.03563 16.8756C7.85803 16.7953 7.69918 16.6787 7.56923 16.5334C5.8659 14.6667 3.00056 11.1154 3.00056 8.76806C2.97936 7.26088 3.5572 5.8069 4.60717 4.72543C5.65715 3.64395 7.09342 3.02341 8.60056 3.00006C10.1077 3.02341 11.544 3.64395 12.594 4.72543C13.6439 5.8069 14.2218 7.26088 14.2006 8.76806C14.2006 11.1014 11.3352 14.6434 9.6319 16.5381C9.50153 16.6825 9.34249 16.7982 9.16492 16.8777C8.98734 16.9573 8.79514 16.999 8.60056 17.0001ZM8.60056 3.93339C7.34135 3.95793 6.14318 4.48052 5.26849 5.38669C4.3938 6.29287 3.9139 7.50876 3.9339 8.76806C3.9339 10.2334 5.55323 12.9027 8.26456 15.9127C8.3081 15.9579 8.36029 15.9938 8.41802 16.0184C8.47575 16.0429 8.53783 16.0555 8.60056 16.0555C8.66329 16.0555 8.72538 16.0429 8.78311 16.0184C8.84084 15.9938 8.89303 15.9579 8.93656 15.9127C11.6479 12.9027 13.2672 10.2334 13.2672 8.76806C13.2872 7.50876 12.8073 6.29287 11.9326 5.38669C11.058 4.48052 9.85978 3.95793 8.60056 3.93339Z" fill="#000200"/>
<path d="M8.60029 11.4001C8.04651 11.4001 7.50515 11.2358 7.0447 10.9282C6.58424 10.6205 6.22536 10.1832 6.01343 9.67156C5.80151 9.15993 5.74606 8.59694 5.8541 8.0538C5.96213 7.51065 6.22881 7.01174 6.6204 6.62015C7.01198 6.22856 7.51089 5.96189 8.05404 5.85385C8.59719 5.74581 9.16017 5.80126 9.67181 6.01319C10.1834 6.22511 10.6207 6.584 10.9284 7.04445C11.2361 7.50491 11.4003 8.04626 11.4003 8.60005C11.4003 9.34266 11.1053 10.0548 10.5802 10.5799C10.0551 11.1051 9.3429 11.4001 8.60029 11.4001ZM8.60029 6.73338C8.2311 6.73338 7.8702 6.84286 7.56323 7.04797C7.25626 7.25309 7.017 7.54462 6.87572 7.88571C6.73444 8.2268 6.69747 8.60212 6.76949 8.96422C6.84152 9.32632 7.0193 9.65893 7.28036 9.91998C7.54142 10.181 7.87403 10.3588 8.23613 10.4309C8.59822 10.5029 8.97355 10.4659 9.31464 10.3246C9.65573 10.1833 9.94726 9.94409 10.1524 9.63711C10.3575 9.33014 10.467 8.96924 10.467 8.60005C10.467 8.10498 10.2703 7.63019 9.92023 7.28012C9.57016 6.93005 9.09536 6.73338 8.60029 6.73338Z" fill="#000200"/>
</svg>
