<svg width="31" height="39" viewBox="0 0 31 39" fill="none" xmlns="http://www.w3.org/2000/svg">
<path d="M15.2144 22.1295C13.8466 22.1295 12.5096 21.7239 11.3723 20.964C10.2351 20.2041 9.34867 19.1241 8.82525 17.8604C8.30182 16.5967 8.16487 15.2063 8.43171 13.8648C8.69855 12.5233 9.3572 11.291 10.3244 10.3239C11.2915 9.35671 12.5238 8.69806 13.8652 8.43122C15.2067 8.16438 16.5972 8.30134 17.8609 8.82476C19.1245 9.34818 20.2046 10.2346 20.9645 11.3718C21.7244 12.5091 22.13 13.8462 22.13 15.2139C22.1278 17.0474 21.3985 18.8051 20.102 20.1016C18.8056 21.398 17.0479 22.1273 15.2144 22.1295ZM15.2144 11.0646C14.3937 11.0646 13.5915 11.3079 12.9092 11.7639C12.2268 12.2198 11.695 12.8678 11.3809 13.626C11.0669 14.3842 10.9847 15.2185 11.1448 16.0234C11.3049 16.8283 11.7001 17.5677 12.2804 18.148C12.8607 18.7283 13.6 19.1234 14.4049 19.2835C15.2098 19.4436 16.0441 19.3615 16.8023 19.0474C17.5605 18.7334 18.2085 18.2015 18.6645 17.5192C19.1204 16.8368 19.3638 16.0346 19.3638 15.2139C19.3627 14.1138 18.9251 13.059 18.1472 12.2811C17.3693 11.5032 16.3146 11.0657 15.2144 11.0646Z" fill="#5C6B73"/>
<path d="M15.2143 38.7272L3.54633 24.9666C3.3842 24.76 3.22375 24.5521 3.065 24.3428C1.0719 21.7174 -0.00481489 18.5105 1.61864e-05 15.2143C1.61864e-05 11.1792 1.60294 7.30939 4.45617 4.45616C7.3094 1.60293 11.1792 0 15.2143 0C19.2494 0 23.1192 1.60293 25.9724 4.45616C28.8256 7.30939 30.4286 11.1792 30.4286 15.2143C30.4334 18.5091 29.3572 21.7144 27.365 24.3387L27.3636 24.3428C27.3636 24.3428 26.9486 24.8878 26.8864 24.9611L15.2143 38.7272ZM5.27245 22.6762C5.27522 22.6762 5.5961 23.1022 5.66941 23.1935L15.2143 34.4507L24.7716 23.1783C24.8325 23.1022 25.1561 22.6734 25.1575 22.672C26.7856 20.527 27.6655 17.9072 27.6623 15.2143C27.6623 11.9128 26.3508 8.74664 24.0164 6.41218C21.6819 4.07772 18.5157 2.76623 15.2143 2.76623C11.9129 2.76623 8.74666 4.07772 6.4122 6.41218C4.07773 8.74664 2.76625 11.9128 2.76625 15.2143C2.76335 17.9089 3.64422 20.5302 5.27384 22.6762H5.27245Z" fill="#5C6B73"/>
</svg>
