<svg width="20" height="20" viewBox="0 0 20 20" fill="none" xmlns="http://www.w3.org/2000/svg">
<g clip-path="url(#clip0_3058_328)">
<path d="M8.125 6.875C8.125 4.11328 10.3633 1.875 13.125 1.875C15.8867 1.875 18.125 4.11328 18.125 6.875C18.125 9.63672 15.8867 11.875 13.125 11.875C12.7188 11.875 12.3242 11.8281 11.9492 11.7344C11.6328 11.6562 11.2969 11.75 11.0664 11.9844L9.92578 13.125H7.8125C7.29297 13.125 6.875 13.543 6.875 14.0625V15.625H5.3125C4.79297 15.625 4.375 16.043 4.375 16.5625V18.125H1.875V15.0742L8.01562 8.93359C8.24609 8.70312 8.33984 8.36719 8.26563 8.05078C8.17578 7.67578 8.125 7.28125 8.125 6.875ZM13.125 0C9.32813 0 6.25 3.07813 6.25 6.875C6.25 7.24609 6.27734 7.60937 6.33594 7.96484L0.273438 14.0234C0.0976562 14.1992 0 14.4375 0 14.6875V19.0625C0 19.582 0.417969 20 0.9375 20H5.3125C5.83203 20 6.25 19.582 6.25 19.0625V17.5H7.8125C8.33203 17.5 8.75 17.082 8.75 16.5625V15H10.3125C10.5625 15 10.8008 14.9023 10.9766 14.7266L12.0391 13.6641C12.3945 13.7187 12.7578 13.75 13.1289 13.75C16.9258 13.75 20.0039 10.6719 20.0039 6.875C20.0039 3.07813 16.9219 0 13.125 0ZM14.375 6.875C14.7065 6.875 15.0245 6.7433 15.2589 6.50888C15.4933 6.27446 15.625 5.95652 15.625 5.625C15.625 5.29348 15.4933 4.97554 15.2589 4.74112C15.0245 4.5067 14.7065 4.375 14.375 4.375C14.0435 4.375 13.7255 4.5067 13.4911 4.74112C13.2567 4.97554 13.125 5.29348 13.125 5.625C13.125 5.95652 13.2567 6.27446 13.4911 6.50888C13.7255 6.7433 14.0435 6.875 14.375 6.875Z" fill="#5D646C"/>
</g>
<defs>
<clipPath id="clip0_3058_328">
<rect width="20" height="20" fill="white"/>
</clipPath>
</defs>
</svg>
