<svg width="24" height="24" viewBox="0 0 24 24" fill="none" xmlns="http://www.w3.org/2000/svg">
<g clip-path="url(#clip0_12_116)">
<path d="M17.2676 8.56094L13.0022 11.9952C12.195 12.6281 11.0634 12.6281 10.2562 11.9952L5.9541 8.56094" stroke="#6C757D" stroke-width="1.5" stroke-linecap="round" stroke-linejoin="round"/>
<path fill-rule="evenodd" clip-rule="evenodd" d="M6.88787 3H16.3158C17.6752 3.01525 18.969 3.58993 19.896 4.5902C20.823 5.59048 21.3022 6.92903 21.222 8.29412V14.822C21.3022 16.1871 20.823 17.5256 19.896 18.5259C18.969 19.5262 17.6752 20.1009 16.3158 20.1161H6.88787C3.96796 20.1161 2 17.7407 2 14.822V8.29412C2 5.37545 3.96796 3 6.88787 3Z" stroke="#6C757D" stroke-width="1.5" stroke-linecap="round" stroke-linejoin="round"/>
<path d="M21.3999 7.6C23.0568 7.6 24.3999 6.25685 24.3999 4.6C24.3999 2.94315 23.0568 1.6 21.3999 1.6C19.743 1.6 18.3999 2.94315 18.3999 4.6C18.3999 6.25685 19.743 7.6 21.3999 7.6Z" fill="#FF2500" stroke="white" stroke-linecap="round" stroke-linejoin="round"/>
</g>
<defs>
<clipPath id="clip0_12_116">
<rect width="24" height="24" fill="white"/>
</clipPath>
</defs>
</svg>
