<svg width="23" height="20" viewBox="0 0 23 20" fill="none" xmlns="http://www.w3.org/2000/svg">
<g clip-path="url(#clip0_3057_318)">
<path d="M20 3.125C20.3438 3.125 20.625 3.40625 20.625 3.75V5H1.875V3.75C1.875 3.40625 2.15625 3.125 2.5 3.125H20ZM20.625 8.75V16.25C20.625 16.5938 20.3438 16.875 20 16.875H2.5C2.15625 16.875 1.875 16.5938 1.875 16.25V8.75H20.625ZM2.5 1.25C1.12109 1.25 0 2.37109 0 3.75V16.25C0 17.6289 1.12109 18.75 2.5 18.75H20C21.3789 18.75 22.5 17.6289 22.5 16.25V3.75C22.5 2.37109 21.3789 1.25 20 1.25H2.5ZM4.6875 13.125C4.16797 13.125 3.75 13.543 3.75 14.0625C3.75 14.582 4.16797 15 4.6875 15H6.5625C7.08203 15 7.5 14.582 7.5 14.0625C7.5 13.543 7.08203 13.125 6.5625 13.125H4.6875ZM9.6875 13.125C9.16797 13.125 8.75 13.543 8.75 14.0625C8.75 14.582 9.16797 15 9.6875 15H14.0625C14.582 15 15 14.582 15 14.0625C15 13.543 14.582 13.125 14.0625 13.125H9.6875Z" fill="#5D646C"/>
</g>
<defs>
<clipPath id="clip0_3057_318">
<rect width="22.5" height="20" fill="white"/>
</clipPath>
</defs>
</svg>
