<svg width="20" height="20" viewBox="0 0 20 20" fill="none" xmlns="http://www.w3.org/2000/svg">
<path fill-rule="evenodd" clip-rule="evenodd" d="M14.5582 7.73564C15.1914 7.10242 15.1914 6.07572 14.5582 5.44247C13.925 4.80922 12.8982 4.80922 12.265 5.44247C11.6317 6.07572 11.6317 7.10242 12.265 7.73564C12.8982 8.36893 13.925 8.36893 14.5582 7.73564ZM13.8828 6.11782C14.1431 6.37808 14.1431 6.80006 13.8828 7.06033C13.6226 7.3206 13.2006 7.3206 12.9404 7.06033C12.68 6.80006 12.68 6.37808 12.9404 6.11782C13.2006 5.85755 13.6226 5.85755 13.8828 6.11782Z" fill="black"/>
<path fill-rule="evenodd" clip-rule="evenodd" d="M2.57233 9.98637C2.1061 10.4526 2.1061 11.2085 2.57233 11.6747L8.32576 17.4281C8.79195 17.8943 9.54789 17.8943 10.0141 17.4281L17.4286 10.0137C17.6525 9.78977 17.7782 9.48614 17.7782 9.16953V3.41608C17.7782 2.75674 17.2437 2.22223 16.5844 2.22223H10.8309C10.5143 2.22223 10.2107 2.34801 9.9868 2.5719L2.57233 9.98637ZM9.59301 16.1609C9.35931 16.3946 8.98053 16.3946 8.74684 16.1609L3.83956 11.2536C3.60592 11.0199 3.60592 10.6411 3.83956 10.4075L10.6557 3.59132C10.7679 3.47911 10.9201 3.41608 11.0788 3.41608H15.9861C16.3165 3.41608 16.5844 3.68394 16.5844 4.01437V8.92165C16.5844 9.08038 16.5213 9.23253 16.4092 9.34471L9.59301 16.1609Z" fill="black"/>
</svg>
