<svg width="20" height="20" viewBox="0 0 20 20" fill="none" xmlns="http://www.w3.org/2000/svg">
<g clip-path="url(#clip0_2960_1861)">
<path d="M9.86732 0.457214C9.6017 0.0119013 9.02357 -0.13263 8.58216 0.132995C8.14076 0.39862 7.99232 0.976745 8.26185 1.41815L8.6642 2.09003C8.92591 2.52753 9.06654 3.02753 9.06654 3.53534V3.96112C8.39857 3.72284 7.65248 3.67206 6.9142 3.85565H6.90638C6.49623 3.95721 6.12123 4.12518 5.78529 4.34003C4.94154 3.80878 3.88685 3.60175 2.83998 3.86346C0.832166 4.36346 -0.39049 6.39862 0.113416 8.41034L2.30092 17.1603C2.80482 19.1682 4.83998 20.3908 6.84779 19.8869C7.25795 19.7853 7.63295 19.6174 7.96888 19.4025C8.19154 19.5432 8.42982 19.6642 8.68373 19.7619C9.09779 19.9182 9.5431 20.0002 10.0001 20.0002C10.4572 20.0002 10.9025 19.9182 11.3165 19.7619C11.5704 19.6682 11.8087 19.5471 12.0314 19.4025C12.3673 19.6174 12.7462 19.7853 13.1525 19.8869C15.1603 20.3908 17.1994 19.1682 17.6994 17.1603L19.8868 8.41034C20.3908 6.40253 19.1681 4.36346 17.1564 3.86346C16.1095 3.60175 15.0548 3.80878 14.215 4.34784C13.879 4.12909 13.5001 3.96503 13.0939 3.86346C12.3517 3.67596 11.6056 3.72675 10.9337 3.96503V3.53925C10.9337 2.69159 10.7033 1.85565 10.2658 1.12909L9.86732 0.457214ZM3.29701 5.67987C3.70717 5.57831 4.12123 5.61737 4.48451 5.77362C4.07826 6.55487 3.94545 7.48456 4.17592 8.41034L5.48841 13.6603C5.61341 14.1642 6.12123 14.4689 6.62513 14.3439C7.12904 14.2189 7.43373 13.7111 7.30873 13.2072L5.99232 7.95331C5.75013 6.97675 6.31654 5.98846 7.26966 5.70331C7.29701 5.6955 7.32826 5.68768 7.3556 5.67987C8.08607 5.49628 8.82435 5.76971 9.26966 6.3205C9.44935 6.53925 9.71498 6.66815 10.0001 6.66815C10.2853 6.66815 10.5509 6.53925 10.7306 6.3205C11.1759 5.76971 11.9142 5.49628 12.6447 5.67987C13.004 5.76971 13.3087 5.95331 13.5431 6.1994C13.7189 6.383 13.965 6.48847 14.2189 6.48847C14.4728 6.48847 14.7189 6.383 14.8947 6.1994C15.3478 5.72675 16.0275 5.508 16.7033 5.67596C17.7072 5.92596 18.3204 6.9455 18.0665 7.9494L15.879 16.6994C15.629 17.7033 14.6095 18.3166 13.6056 18.0627C13.2462 17.9728 12.9415 17.7892 12.7072 17.5432C12.5314 17.3596 12.2853 17.2541 12.0314 17.2541C11.7775 17.2541 11.5314 17.3596 11.3556 17.5432C11.3478 17.551 11.3361 17.5627 11.3283 17.5705C11.1447 17.7541 10.9181 17.9025 10.6603 18.0002C10.4533 18.0783 10.2306 18.1213 10.004 18.1213C9.77748 18.1213 9.55482 18.0783 9.34779 18.0002C9.08998 17.9025 8.86732 17.758 8.68373 17.5744C8.67591 17.5666 8.6642 17.5549 8.65638 17.5432C8.4806 17.3596 8.23451 17.2541 7.9806 17.2541C7.7267 17.2541 7.4806 17.3596 7.30482 17.5432C7.07045 17.7892 6.76185 17.9728 6.40638 18.0627C5.40248 18.3127 4.38295 17.7033 4.13295 16.6994L1.94545 7.9494C1.69545 6.9455 2.30482 5.92596 3.30873 5.67596L3.29701 5.67987Z" fill="#5B626A"/>
</g>
<defs>
<clipPath id="clip0_2960_1861">
<rect width="20" height="20" fill="white"/>
</clipPath>
</defs>
</svg>
