<svg width="24" height="24" viewBox="0 0 24 24" fill="none" xmlns="http://www.w3.org/2000/svg">
<path fill-rule="evenodd" clip-rule="evenodd" d="M6.27889 7.79464C7.0827 7.22906 8.15637 7.04266 9.10901 7.30665C8.11098 8.27223 7.60604 9.65379 7.60604 11.0146H8.63228C8.63228 9.94378 8.99739 8.97501 9.58451 8.27783C10.798 6.83787 12.7299 6.83747 13.9433 8.27783C14.5305 8.97501 14.8956 9.94378 14.8956 11.0146H15.9214C15.9214 9.70019 15.4524 8.37182 14.5219 7.40985C15.5215 6.99506 16.7269 7.13746 17.6268 7.71944C18.5859 8.34102 19.0283 9.333 18.7671 10.4674L16.9918 18.1616C16.782 19.0715 16.365 19.7855 15.838 20.2495C14.6997 21.2519 13.3877 20.9007 12.4408 19.8715L11.5752 19.8759C10.6377 20.9095 9.31793 21.2743 8.17435 20.2823C7.64161 19.8199 7.21926 19.1019 7.00706 18.1812L5.23344 10.487C4.98649 9.41659 5.37367 8.43022 6.27889 7.79464ZM12.6489 3.13757C12.0507 4.00394 12.1166 5.09911 12.2846 6.22628C11.9428 6.17628 11.592 6.17588 11.2502 6.22548C11.4436 5.18551 11.7261 4.14954 12.5385 3.13757H12.6489ZM18.2666 6.77307C16.8655 5.86629 14.9688 5.7707 13.5239 6.64387C13.2843 5.18671 13.0524 3.72715 14.5411 3.08837L14.3097 2H12.2658L11.8255 2.19999C10.5662 3.63555 10.2755 5.03512 10.0367 6.43308C8.60652 5.7927 6.87459 5.98109 5.60223 6.87506C4.3131 7.78104 3.75173 9.2118 4.10253 10.7366L5.87698 18.4307C6.14437 19.5923 6.69879 20.5167 7.40734 21.1319C8.82485 22.3618 10.6398 22.2398 12.0115 21.0503C13.3906 22.227 15.2088 22.3314 16.6148 21.0943C17.3119 20.4803 17.8573 19.5619 18.1227 18.4111L19.898 10.717C20.2651 9.1246 19.6232 7.65024 18.2666 6.77307Z" fill="#000000"/>
</svg>
