<svg width="20" height="21" viewBox="0 0 20 21" fill="none" xmlns="http://www.w3.org/2000/svg">
<path d="M9.99984 18.8333C14.6022 18.8333 18.3332 15.1023 18.3332 10.5C18.3332 5.89763 14.6022 2.16667 9.99984 2.16667C5.39746 2.16667 1.6665 5.89763 1.6665 10.5C1.6665 15.1023 5.39746 18.8333 9.99984 18.8333Z" stroke="#6C757D" stroke-width="1.5" stroke-linecap="round" stroke-linejoin="round"/>
<path d="M12.9167 13.8333C13.1467 13.8333 13.3333 13.6467 13.3333 13.4167C13.3333 13.1866 13.1467 13 12.9167 13C12.6866 13 12.5 13.1866 12.5 13.4167C12.5 13.6467 12.6866 13.8333 12.9167 13.8333Z" fill="#6C757D" stroke="#6C757D" stroke-width="1.5" stroke-linecap="round" stroke-linejoin="round"/>
<path d="M7.08317 8.00001C7.31329 8.00001 7.49984 7.81346 7.49984 7.58334C7.49984 7.35322 7.31329 7.16667 7.08317 7.16667C6.85305 7.16667 6.6665 7.35322 6.6665 7.58334C6.6665 7.81346 6.85305 8.00001 7.08317 8.00001Z" fill="#6C757D" stroke="#6C757D" stroke-width="1.5" stroke-linecap="round" stroke-linejoin="round"/>
<path d="M13.3332 7.16667L6.6665 13.8333" stroke="#6C757D" stroke-width="1.5" stroke-linecap="round" stroke-linejoin="round"/>
</svg>
