<svg width="21" height="21" viewBox="0 0 21 21" fill="none" xmlns="http://www.w3.org/2000/svg">
<g clip-path="url(#clip0_132_493)">
<path d="M10.5 14.5625C12.2259 14.5625 13.625 13.1634 13.625 11.4375C13.625 9.71161 12.2259 8.3125 10.5 8.3125C8.77411 8.3125 7.375 9.71161 7.375 11.4375C7.375 13.1634 8.77411 14.5625 10.5 14.5625Z" stroke="#6C757D" stroke-width="1.5" stroke-linecap="round" stroke-linejoin="round"/>
<path d="M15.8125 9.56251C16.5404 9.56129 17.2586 9.73018 17.9096 10.0557C18.5607 10.3813 19.1267 10.8544 19.5625 11.4375" stroke="#6C757D" stroke-width="1.5" stroke-linecap="round" stroke-linejoin="round"/>
<path d="M1.4375 11.4375C1.87328 10.8544 2.43928 10.3813 3.09036 10.0557C3.74144 9.73018 4.45957 9.56129 5.1875 9.56251" stroke="#6C757D" stroke-width="1.5" stroke-linecap="round" stroke-linejoin="round"/>
<path d="M6 17.375C6.41158 16.5321 7.05163 15.8217 7.84722 15.3248C8.64282 14.828 9.56198 14.5645 10.5 14.5645C11.438 14.5645 12.3572 14.828 13.1528 15.3248C13.9484 15.8217 14.5884 16.5321 15 17.375" stroke="#6C757D" stroke-width="1.5" stroke-linecap="round" stroke-linejoin="round"/>
<path d="M5.1876 9.5625C4.7131 9.56298 4.24826 9.42842 3.8474 9.17453C3.44654 8.92064 3.12621 8.55792 2.92384 8.12874C2.72146 7.69956 2.64541 7.22165 2.70456 6.75085C2.76371 6.28006 2.95562 5.83581 3.25787 5.47003C3.56012 5.10426 3.96022 4.83205 4.41143 4.68521C4.86264 4.53838 5.34632 4.52298 5.80595 4.64083C6.26558 4.75867 6.68219 5.00489 7.00708 5.35071C7.33198 5.69653 7.55175 6.12767 7.64072 6.59375" stroke="#6C757D" stroke-width="1.5" stroke-linecap="round" stroke-linejoin="round"/>
<path d="M13.3594 6.59375C13.4483 6.12767 13.6681 5.69653 13.993 5.35071C14.3179 5.00489 14.7345 4.75867 15.1941 4.64083C15.6538 4.52298 16.1375 4.53838 16.5887 4.68521C17.0399 4.83205 17.44 5.10426 17.7422 5.47003C18.0445 5.83581 18.2364 6.28006 18.2955 6.75085C18.3547 7.22165 18.2786 7.69956 18.0763 8.12874C17.8739 8.55792 17.5536 8.92064 17.1527 9.17453C16.7518 9.42842 16.287 9.56298 15.8125 9.5625" stroke="#6C757D" stroke-width="1.5" stroke-linecap="round" stroke-linejoin="round"/>
</g>
<defs>
<clipPath id="clip0_132_493">
<rect width="20" height="20" fill="white" transform="translate(0.5 0.5)"/>
</clipPath>
</defs>
</svg>
