<svg width="30" height="30" viewBox="0 0 30 30" fill="#FF0000" xmlns="http://www.w3.org/2000/svg">
<path d="M13.7377 26.4464C14.077 26.7856 14.533 26.9747 15.0113 26.9747C15.484 26.9747 15.9511 26.78 16.2848 26.4464L26.2785 16.4527C27.7967 14.9344 28.6309 12.9156 28.6365 10.7745C28.6365 8.62786 27.8023 6.6091 26.2841 5.09086C24.7658 3.57262 22.7526 2.73842 20.6059 2.73842C18.4982 2.73842 16.5128 3.54481 15.0057 5.013C13.493 3.53925 11.5021 2.72729 9.38876 2.72729C7.24765 2.72729 5.23445 3.56149 3.71621 5.07418C2.19797 6.59242 1.36377 8.61118 1.36377 10.7579C1.36377 12.899 2.20353 14.9177 3.72177 16.436L13.7377 26.4464ZM4.68388 6.04185C5.94074 4.78499 7.6147 4.08982 9.39432 4.08982C11.1739 4.08982 12.8535 4.78499 14.1159 6.04741L14.5274 6.45895C14.6553 6.58686 14.8277 6.65915 15.0113 6.65915C15.1892 6.65915 15.3672 6.58686 15.4951 6.45895L15.8955 6.05853C17.1579 4.79611 18.8319 4.10094 20.6171 4.10094C22.3967 4.10094 24.0707 4.79611 25.3275 6.05297C26.5899 7.31539 27.2795 8.98935 27.2795 10.769C27.2795 12.5486 26.5844 14.2226 25.3219 15.485L15.3227 25.4842C15.1614 25.6455 14.8667 25.6455 14.6998 25.4842L4.68944 15.4739C3.42702 14.2114 2.73186 12.5375 2.73186 10.7579C2.73186 8.97823 3.42702 7.30427 4.68388 6.04185Z" stroke="#FF0000" stroke-width="0.5" stroke-linecap="round" stroke-linejoin="round"/>
</svg>
