<svg width="20" height="20" viewBox="0 0 20 20" fill="none" xmlns="http://www.w3.org/2000/svg">
<g clip-path="url(#clip0_46_444)">
<path d="M15.0016 12.8304C13.8937 12.8304 12.9019 13.3358 12.2438 14.128L7.96289 11.6975C8.09601 11.3229 8.16918 10.9201 8.16918 10.5003C8.16918 10.0806 8.09601 9.67779 7.96289 9.30317L12.2435 6.87205C12.9015 7.66453 13.8935 8.1701 15.0015 8.1701C16.9778 8.1701 18.5856 6.56165 18.5856 4.58451C18.5858 2.60795 16.9779 1 15.0016 1C13.0251 1 11.417 2.60795 11.417 4.58442C11.417 5.0042 11.4901 5.40709 11.6233 5.7818L7.3425 8.213C6.68449 7.42094 5.69274 6.9157 4.58509 6.9157C2.60829 6.9157 1 8.52365 1 10.5002C1 12.4767 2.60829 14.0846 4.58509 14.0846C5.69274 14.0846 6.6844 13.5794 7.34242 12.7874L11.6233 15.218C11.4901 15.5927 11.4169 15.9957 11.4169 16.4156C11.4169 18.392 13.025 20 15.0015 20C16.9778 20 18.5857 18.392 18.5857 16.4156C18.5858 14.4388 16.9779 12.8304 15.0016 12.8304ZM15.0016 2.25432C16.2863 2.25432 17.3315 3.29958 17.3315 4.58442C17.3315 5.86993 16.2863 6.9157 15.0016 6.9157C13.7167 6.9157 12.6713 5.86993 12.6713 4.58442C12.6713 3.29958 13.7167 2.25432 15.0016 2.25432ZM4.58518 12.8304C3.3 12.8304 2.2544 11.785 2.2544 10.5003C2.2544 9.21537 3.3 8.1701 4.58518 8.1701C5.86985 8.1701 6.91495 9.21537 6.91495 10.5003C6.91495 11.785 5.86976 12.8304 4.58518 12.8304ZM15.0016 18.7458C13.7167 18.7458 12.6713 17.7004 12.6713 16.4157C12.6713 15.1304 13.7167 14.0847 15.0016 14.0847C16.2863 14.0847 17.3315 15.1304 17.3315 16.4157C17.3315 17.7004 16.2863 18.7458 15.0016 18.7458Z" fill="#6C757D" stroke="#6C757D" stroke-width="0.5"/>
</g>
<defs>
<clipPath id="clip0_46_444">
<rect width="20" height="20" fill="white"/>
</clipPath>
</defs>
</svg>
