<svg width="20" height="20" viewBox="0 0 20 20" fill="none" xmlns="http://www.w3.org/2000/svg">
<path d="M10 3.125C5.51172 3.125 1.875 6.76172 1.875 11.25V15.3125C1.875 15.832 1.45703 16.25 0.9375 16.25C0.417969 16.25 0 15.832 0 15.3125V11.25C0 5.72656 4.47656 1.25 10 1.25C15.5234 1.25 20 5.72656 20 11.25V15.3125C20 15.832 19.582 16.25 19.0625 16.25C18.543 16.25 18.125 15.832 18.125 15.3125V11.25C18.125 6.76172 14.4883 3.125 10 3.125ZM6.25 16.875V12.5C5.55859 12.5 5 13.0586 5 13.75V15.625C5 16.3164 5.55859 16.875 6.25 16.875ZM6.25 10.625H6.875C7.56641 10.625 8.125 11.1836 8.125 11.875V17.5C8.125 18.1914 7.56641 18.75 6.875 18.75H6.25C4.52344 18.75 3.125 17.3516 3.125 15.625V13.75C3.125 12.0234 4.52344 10.625 6.25 10.625ZM13.75 12.5V16.875C14.4414 16.875 15 16.3164 15 15.625V13.75C15 13.0586 14.4414 12.5 13.75 12.5ZM16.875 13.75V15.625C16.875 17.3516 15.4766 18.75 13.75 18.75H13.125C12.4336 18.75 11.875 18.1914 11.875 17.5V11.875C11.875 11.1836 12.4336 10.625 13.125 10.625H13.75C15.4766 10.625 16.875 12.0234 16.875 13.75Z" fill="#5D646C"/>
</svg>
