<svg width="20" height="20" viewBox="0 0 20 20" fill="none" xmlns="http://www.w3.org/2000/svg">
<path d="M18.3335 9.16674H1.66683C1.44582 9.16674 1.23385 9.07894 1.07757 8.92266C0.921293 8.76638 0.833496 8.55442 0.833496 8.33341C0.833496 8.11239 0.921293 7.90043 1.07757 7.74415C1.23385 7.58787 1.44582 7.50007 1.66683 7.50007H16.3252L14.4085 5.59174C14.2516 5.43482 14.1634 5.22199 14.1634 5.00007C14.1634 4.77816 14.2516 4.56533 14.4085 4.40841C14.5654 4.25149 14.7782 4.16333 15.0002 4.16333C15.2221 4.16333 15.4349 4.25149 15.5918 4.40841L18.9252 7.74174C19.0408 7.85893 19.1191 8.00774 19.1503 8.16939C19.1814 8.33105 19.164 8.49831 19.1002 8.65007C19.0376 8.80226 18.9315 8.93253 18.795 9.02447C18.6586 9.11642 18.498 9.16592 18.3335 9.16674ZM5.59183 15.5917C5.66994 15.5143 5.73193 15.4221 5.77424 15.3206C5.81655 15.219 5.83833 15.1101 5.83833 15.0001C5.83833 14.8901 5.81655 14.7811 5.77424 14.6796C5.73193 14.578 5.66994 14.4859 5.59183 14.4084L3.67516 12.5001H18.3335C18.5545 12.5001 18.7665 12.4123 18.9228 12.256C19.079 12.0997 19.1668 11.8878 19.1668 11.6667C19.1668 11.4457 19.079 11.2338 18.9228 11.0775C18.7665 10.9212 18.5545 10.8334 18.3335 10.8334H1.66683C1.50231 10.8342 1.34171 10.8837 1.20528 10.9757C1.06884 11.0676 0.96268 11.1979 0.900163 11.3501C0.836347 11.5018 0.818911 11.6691 0.850056 11.8308C0.881201 11.9924 0.959531 12.1412 1.07516 12.2584L4.4085 15.5917C4.48597 15.6698 4.57813 15.7318 4.67968 15.7741C4.78123 15.8165 4.89015 15.8382 5.00016 15.8382C5.11017 15.8382 5.21909 15.8165 5.32064 15.7741C5.42219 15.7318 5.51436 15.6698 5.59183 15.5917Z" fill="#38B000"/>
</svg>
