<svg width="30" height="30" viewBox="0 0 30 30" fill="none" xmlns="http://www.w3.org/2000/svg">
<path d="M23.2106 8.13274C23.0487 8.04902 22.891 7.95725 22.7382 7.85776C22.2938 7.564 21.8864 7.21786 21.5247 6.82681C20.6198 5.79136 20.2818 4.74091 20.1573 4.00545H20.1623C20.0583 3.39498 20.1013 3 20.1078 3H15.986V18.9382C15.986 19.1522 15.986 19.3637 15.977 19.5727C15.977 19.5987 15.9745 19.6227 15.973 19.6507C15.973 19.6622 15.973 19.6742 15.9705 19.6862C15.9705 19.6892 15.9705 19.6922 15.9705 19.6952C15.9271 20.267 15.7437 20.8194 15.4367 21.3038C15.1296 21.7882 14.7082 22.1897 14.2096 22.473C13.6899 22.7687 13.1021 22.9238 12.5042 22.923C10.5838 22.923 9.02735 21.3571 9.02735 19.4232C9.02735 17.4893 10.5838 15.9234 12.5042 15.9234C12.8677 15.923 13.229 15.9802 13.5746 16.0928L13.5796 11.8961C12.5304 11.7605 11.4644 11.8439 10.449 12.141C9.43355 12.438 8.4907 12.9423 7.67992 13.622C6.96949 14.2392 6.37223 14.9758 5.91501 15.7984C5.74102 16.0983 5.08455 17.3038 5.00506 19.2602C4.95506 20.3706 5.28854 21.5211 5.44753 21.9966V22.0066C5.54753 22.2865 5.93501 23.242 6.56648 24.0474C7.07567 24.6936 7.67727 25.2611 8.35189 25.7319V25.7219L8.36189 25.7319C10.3573 27.0878 12.5697 26.9988 12.5697 26.9988C12.9527 26.9833 14.2356 26.9988 15.6925 26.3083C17.3084 25.5429 18.2284 24.4024 18.2284 24.4024C18.8161 23.721 19.2834 22.9444 19.6103 22.106C19.9833 21.1256 20.1078 19.9497 20.1078 19.4797V11.0241C20.1578 11.0541 20.8238 11.4946 20.8238 11.4946C20.8238 11.4946 21.7832 12.1095 23.2801 12.51C24.3541 12.795 25.801 12.855 25.801 12.855V8.76321C25.294 8.81821 24.2646 8.65822 23.2106 8.13274Z" fill="#ADB5BD"/>
</svg>
