<svg width="19" height="19" viewBox="0 0 19 19" fill="none" xmlns="http://www.w3.org/2000/svg">
<path d="M13.875 10C13.875 11.2929 13.3614 12.5329 12.4471 13.4471C11.5329 14.3614 10.2929 14.875 9 14.875C7.70707 14.875 6.46709 14.3614 5.55285 13.4471C4.63861 12.5329 4.125 11.2929 4.125 10C4.125 8.70707 4.63861 7.46709 5.55285 6.55285C6.46709 5.63861 7.70707 5.125 9 5.125C10.2929 5.125 11.5329 5.63861 12.4471 6.55285C13.3614 7.46709 13.875 8.70707 13.875 10ZM3 10C3 11.5913 3.63214 13.1174 4.75736 14.2426C5.88258 15.3679 7.4087 16 9 16C10.5913 16 12.1174 15.3679 13.2426 14.2426C14.3679 13.1174 15 11.5913 15 10C15 8.4087 14.3679 6.88258 13.2426 5.75736C12.1174 4.63214 10.5913 4 9 4C7.4087 4 5.88258 4.63214 4.75736 5.75736C3.63214 6.88258 3 8.4087 3 10ZM8.4375 6.8125V10C8.4375 10.1875 8.53125 10.3633 8.68828 10.4688L10.9383 11.9688C11.1961 12.1422 11.5453 12.0719 11.7188 11.8117C11.8922 11.5516 11.8219 11.2047 11.5617 11.0312L9.5625 9.7V6.8125C9.5625 6.50078 9.31172 6.25 9 6.25C8.68828 6.25 8.4375 6.50078 8.4375 6.8125Z" fill="black"/>
</svg>
