<svg width="51" height="48" viewBox="0 0 51 48" fill="none" xmlns="http://www.w3.org/2000/svg">
<path d="M25.5 8V16" stroke="#6C757D" stroke-width="2" stroke-linecap="round" stroke-linejoin="round"/>
<path d="M28.5 11L25.587 8.08705C25.539 8.03898 25.461 8.03898 25.413 8.08705L22.5 11" stroke="#6C757D" stroke-width="2" stroke-linecap="round" stroke-linejoin="round"/>
<path d="M16.5 15V16V19C16.5 20.1046 17.3954 21 18.5 21H32.5C33.6046 21 34.5 20.1046 34.5 19V16V15" stroke="#6C757D" stroke-width="2" stroke-linecap="round" stroke-linejoin="round"/>
<path d="M5.896 43.632C6.35467 43.632 6.76533 43.5547 7.128 43.4C7.49067 43.2453 7.79733 43.0293 8.048 42.752C8.29867 42.4693 8.49067 42.136 8.624 41.752C8.75733 41.3627 8.824 40.9333 8.824 40.464V33.512H10.52V40.464C10.52 41.136 10.4133 41.7573 10.2 42.328C9.98667 42.8987 9.68 43.392 9.28 43.808C8.88 44.224 8.39467 44.5493 7.824 44.784C7.25333 45.0187 6.61067 45.136 5.896 45.136C5.18133 45.136 4.53867 45.0187 3.968 44.784C3.39733 44.5493 2.912 44.224 2.512 43.808C2.112 43.392 1.80533 42.8987 1.592 42.328C1.37867 41.7573 1.272 41.136 1.272 40.464V33.512H2.976V40.456C2.976 40.9253 3.04 41.3547 3.168 41.744C3.30133 42.1333 3.49333 42.4693 3.744 42.752C3.99467 43.0293 4.30133 43.2453 4.664 43.4C5.02667 43.5547 5.43733 43.632 5.896 43.632ZM14.2029 43C14.4589 43.336 14.7335 43.5707 15.0269 43.704C15.3255 43.8373 15.6589 43.904 16.0269 43.904C16.7415 43.904 17.2935 43.648 17.6829 43.136C18.0775 42.6187 18.2749 41.8667 18.2749 40.88C18.2749 40.3627 18.2295 39.9227 18.1389 39.56C18.0535 39.192 17.9255 38.8933 17.7549 38.664C17.5895 38.4293 17.3842 38.2587 17.1389 38.152C16.8935 38.04 16.6162 37.984 16.3069 37.984C15.8535 37.984 15.4589 38.0853 15.1229 38.288C14.7922 38.4907 14.4855 38.7787 14.2029 39.152V43ZM14.1229 38.088C14.2935 37.8853 14.4749 37.7013 14.6669 37.536C14.8642 37.3653 15.0749 37.2213 15.2989 37.104C15.5229 36.9813 15.7602 36.888 16.0109 36.824C16.2669 36.7547 16.5389 36.72 16.8269 36.72C17.2909 36.72 17.7095 36.8107 18.0829 36.992C18.4615 37.1733 18.7842 37.44 19.0509 37.792C19.3175 38.144 19.5229 38.5787 19.6669 39.096C19.8162 39.6133 19.8909 40.208 19.8909 40.88C19.8909 41.4827 19.8082 42.0427 19.6429 42.56C19.4829 43.072 19.2509 43.5173 18.9469 43.896C18.6482 44.2747 18.2802 44.5733 17.8429 44.792C17.4109 45.0053 16.9229 45.112 16.3789 45.112C15.8935 45.112 15.4775 45.032 15.1309 44.872C14.7842 44.712 14.4749 44.488 14.2029 44.2V47.728H12.6429V36.872H13.5789C13.7975 36.872 13.9335 36.976 13.9869 37.184L14.1229 38.088ZM23.2429 33.192V45H21.6749V33.192H23.2429ZM28.935 36.744C29.5323 36.744 30.071 36.8427 30.551 37.04C31.0363 37.232 31.447 37.512 31.783 37.88C32.1243 38.2427 32.3857 38.6827 32.567 39.2C32.7483 39.712 32.839 40.288 32.839 40.928C32.839 41.568 32.7483 42.1467 32.567 42.664C32.3857 43.1813 32.1243 43.6213 31.783 43.984C31.447 44.3467 31.0363 44.6267 30.551 44.824C30.071 45.016 29.5323 45.112 28.935 45.112C28.3323 45.112 27.7883 45.016 27.303 44.824C26.823 44.6267 26.4123 44.3467 26.071 43.984C25.7297 43.6213 25.4657 43.1813 25.279 42.664C25.0977 42.1467 25.007 41.568 25.007 40.928C25.007 40.288 25.0977 39.712 25.279 39.2C25.4657 38.6827 25.7297 38.2427 26.071 37.88C26.4123 37.512 26.823 37.232 27.303 37.04C27.7883 36.8427 28.3323 36.744 28.935 36.744ZM28.935 43.896C29.703 43.896 30.2763 43.6373 30.655 43.12C31.0337 42.6027 31.223 41.8747 31.223 40.936C31.223 39.9973 31.0337 39.2693 30.655 38.752C30.2763 38.2293 29.703 37.968 28.935 37.968C28.1563 37.968 27.575 38.2293 27.191 38.752C26.8123 39.2693 26.623 39.9973 26.623 40.936C26.623 41.8747 26.8123 42.6027 27.191 43.12C27.575 43.6373 28.1563 43.896 28.935 43.896ZM38.9484 41.392C38.3137 41.4133 37.775 41.464 37.3324 41.544C36.8897 41.6187 36.5297 41.72 36.2524 41.848C35.975 41.976 35.775 42.128 35.6524 42.304C35.5297 42.4747 35.4684 42.6667 35.4684 42.88C35.4684 43.0827 35.5004 43.2587 35.5644 43.408C35.6337 43.552 35.7244 43.672 35.8364 43.768C35.9537 43.8587 36.0897 43.9253 36.2444 43.968C36.399 44.0107 36.567 44.032 36.7484 44.032C36.9884 44.032 37.207 44.008 37.4044 43.96C37.607 43.912 37.7964 43.8453 37.9724 43.76C38.1484 43.6693 38.3164 43.56 38.4764 43.432C38.6364 43.304 38.7937 43.1573 38.9484 42.992V41.392ZM34.3724 38.008C34.8257 37.576 35.3164 37.2533 35.8444 37.04C36.3777 36.8267 36.9617 36.72 37.5964 36.72C38.0604 36.72 38.471 36.7973 38.8284 36.952C39.1857 37.1013 39.487 37.312 39.7324 37.584C39.9777 37.856 40.1617 38.1813 40.2844 38.56C40.4124 38.9387 40.4764 39.3573 40.4764 39.816V45H39.7804C39.6257 45 39.5084 44.976 39.4284 44.928C39.3484 44.8747 39.2844 44.7787 39.2364 44.64L39.0684 43.928C38.8604 44.12 38.655 44.2907 38.4524 44.44C38.2497 44.584 38.0364 44.7093 37.8124 44.816C37.5937 44.9173 37.359 44.9947 37.1084 45.048C36.8577 45.1013 36.5804 45.128 36.2764 45.128C35.9564 45.128 35.655 45.0853 35.3724 45C35.095 44.9093 34.8524 44.7733 34.6444 44.592C34.4364 44.4107 34.271 44.184 34.1484 43.912C34.031 43.64 33.9724 43.3227 33.9724 42.96C33.9724 42.64 34.0577 42.3333 34.2284 42.04C34.4044 41.7413 34.687 41.4747 35.0764 41.24C35.471 41.0053 35.983 40.8133 36.6124 40.664C37.247 40.5147 38.0257 40.4293 38.9484 40.408V39.816C38.9484 39.2027 38.8177 38.744 38.5564 38.44C38.295 38.136 37.911 37.984 37.4044 37.984C37.063 37.984 36.775 38.0267 36.5404 38.112C36.311 38.1973 36.111 38.2933 35.9404 38.4C35.775 38.5013 35.6284 38.5947 35.5004 38.68C35.3777 38.7653 35.2497 38.808 35.1164 38.808C35.0097 38.808 34.9164 38.7787 34.8364 38.72C34.7617 38.6613 34.7004 38.592 34.6524 38.512L34.3724 38.008ZM47.8048 38.84C47.5488 38.504 47.2714 38.2693 46.9728 38.136C46.6794 38.0027 46.3488 37.936 45.9808 37.936C45.2661 37.936 44.7114 38.1947 44.3168 38.712C43.9274 39.224 43.7328 39.9733 43.7328 40.96C43.7328 41.4773 43.7754 41.92 43.8608 42.288C43.9514 42.6507 44.0794 42.9493 44.2448 43.184C44.4154 43.4133 44.6234 43.584 44.8688 43.696C45.1141 43.8027 45.3914 43.856 45.7008 43.856C46.1541 43.856 46.5461 43.7547 46.8768 43.552C47.2074 43.3493 47.5168 43.064 47.8048 42.696V38.84ZM49.3728 33.192V45H48.4288C48.2101 45 48.0741 44.896 48.0208 44.688L47.8848 43.752C47.5381 44.1627 47.1434 44.4933 46.7008 44.744C46.2634 44.9893 45.7568 45.112 45.1808 45.112C44.7168 45.112 44.2954 45.0213 43.9168 44.84C43.5434 44.6587 43.2234 44.3947 42.9568 44.048C42.6901 43.696 42.4848 43.2613 42.3408 42.744C42.1968 42.2267 42.1248 41.632 42.1248 40.96C42.1248 40.3573 42.2048 39.7973 42.3648 39.28C42.5248 38.7627 42.7568 38.3147 43.0608 37.936C43.3648 37.5573 43.7328 37.2613 44.1648 37.048C44.5968 36.8293 45.0848 36.72 45.6288 36.72C46.1194 36.72 46.5354 36.8 46.8768 36.96C47.2234 37.12 47.5328 37.3467 47.8048 37.64V33.192H49.3728Z" fill="#6C757D"/>
</svg>
