<svg width="25" height="20" viewBox="0 0 25 20" fill="none" xmlns="http://www.w3.org/2000/svg">
<g clip-path="url(#clip0_3057_324)">
<path d="M5.625 5C5.625 4.1712 5.95424 3.37634 6.54029 2.79029C7.12634 2.20424 7.9212 1.875 8.75 1.875C9.5788 1.875 10.3737 2.20424 10.9597 2.79029C11.5458 3.37634 11.875 4.1712 11.875 5C11.875 5.8288 11.5458 6.62366 10.9597 7.20971C10.3737 7.79576 9.5788 8.125 8.75 8.125C7.9212 8.125 7.12634 7.79576 6.54029 7.20971C5.95424 6.62366 5.625 5.8288 5.625 5ZM13.75 5C13.75 3.67392 13.2232 2.40215 12.2855 1.46447C11.3479 0.526784 10.0761 0 8.75 0C7.42392 0 6.15215 0.526784 5.21447 1.46447C4.27678 2.40215 3.75 3.67392 3.75 5C3.75 6.32608 4.27678 7.59785 5.21447 8.53553C6.15215 9.47322 7.42392 10 8.75 10C10.0761 10 11.3479 9.47322 12.2855 8.53553C13.2232 7.59785 13.75 6.32608 13.75 5ZM1.92578 18.125C2.27344 15.6523 4.39844 13.75 6.96484 13.75H10.5352C11.8984 13.75 13.1328 14.2852 14.0469 15.1562L15.3711 13.832C14.1172 12.6211 12.4141 11.875 10.5313 11.875H6.96484C3.11719 11.875 0 14.9922 0 18.8398C0 19.4805 0.519531 20 1.16016 20H12.6094C12.4883 19.6562 12.4648 19.2813 12.5547 18.9141L12.7539 18.125H1.92578ZM23.9766 9.20703C23.3672 8.59766 22.3789 8.59766 21.7656 9.20703L20.6172 10.3555L23.3906 13.1289L24.5391 11.9805C25.1484 11.3711 25.1484 10.3828 24.5391 9.76953L23.9766 9.20703ZM14.6836 16.2891C14.5234 16.4492 14.4102 16.6484 14.3555 16.8711L13.7695 19.2188C13.7148 19.4336 13.7773 19.6563 13.9336 19.8125C14.0898 19.9688 14.3125 20.0312 14.5273 19.9766L16.875 19.3906C17.0937 19.3359 17.2969 19.2227 17.457 19.0625L22.5039 14.0117L19.7305 11.2383L14.6836 16.2891Z" fill="#5D646C"/>
</g>
<defs>
<clipPath id="clip0_3057_324">
<rect width="25" height="20" fill="white"/>
</clipPath>
</defs>
</svg>
